{
.appVersion = "3091";
classes = (
{
automatic = 1;
code = "A Aacute Abreve Acircumflex Adieresis Agrave Amacron Aogonek Aring Atilde AE B C Cacute Ccaron Ccedilla D Eth Dcaron Dcroat E Eacute Ecaron Ecircumflex Edieresis Edotaccent Egrave Emacron Eogonek F G Gbreve H I IJ Iacute Icircumflex Idieresis Idotaccent Igrave Imacron Iogonek J K L Lacute Lcaron Ldot Lslash M N Nacute Ncaron Ntilde O Oacute Ocircumflex Odieresis Ograve Ohungarumlaut Omacron Oslash Otilde OE P Thorn Q R Racute Rcaron S Sacute Scaron Germandbls T Tcaron U Uacute Ucircumflex Udieresis Ugrave Uhungarumlaut Umacron Uogonek Uring V W X Y Yacute Ydieresis Z Zacute Zcaron Zdotaccent uni0122 uni0136 uni013B uni0145 uni0156 uni015E uni0162 uni0218 uni021A E.swsh.001 Eacute.swsh.001 Ecaron.swsh.001 Ecircumflex.swsh.001 Edieresis.swsh.001 Edotaccent.swsh.001 Egrave.swsh.001 Emacron.swsh.001 M.swsh.001 R.swsh.001 Racute.swsh.001 Rcaron.swsh.001 uni0156.swsh.001 Adieresis.titl.001 Odieresis.titl.001 Iacute_J.loclNLD R.ss03 Racute.ss03 Rcaron.ss03 uni0156.ss03 G.ss04 Gbreve.ss04 uni0122.ss04 IJ.ss05 Iacute_J.loclNLD.ss05 A.swsh Aacute.swsh Abreve.swsh Acircumflex.swsh Adieresis.swsh Agrave.swsh Amacron.swsh Aogonek.swsh Atilde.swsh E.swsh Eacute.swsh Ecaron.swsh Ecircumflex.swsh Edieresis.swsh Edotaccent.swsh Egrave.swsh Emacron.swsh Eogonek.swsh F.swsh L.swsh Lacute.swsh Lcaron.swsh uni013B.swsh Lslash.swsh M.swsh N.swsh Nacute.swsh Ncaron.swsh uni0145.swsh Ntilde.swsh R.swsh Racute.swsh Rcaron.swsh uni0156.swsh S.swsh Sacute.swsh Scaron.swsh uni015E.swsh uni0218.swsh T.swsh Tcaron.swsh uni0162.swsh uni021A.swsh W.swsh Adieresis.titl Odieresis.titl Udieresis.titl";
name = Uppercase;
},
{

glyphs = (
{
color = 4;
glyphname = A;
lastChange = "2016-04-09 01:28:02 +0000";
layers = (
{
anchors = (
{
name = ogonek;
position = "{589, 0}";
},
{
name = top;
position = "{378, 660}";
}
);
layerId = "4A17B37A-CBFD-40E5-9E02-2080A0E1F76C";
name = "Regular Italic";
paths = (
{
closed = 1;
nodes = (
"65 0 LINE",
"323 495 LINE",
"365 584 LINE",
"367 584 LINE",
"385 492 LINE",
"504 0 LINE",
"589 0 LINE",
"426 660 LINE",
"331 660 LINE",
"-19 0 LINE"
);
},
{
closed = 1;
nodes = (
"506 155 LINE",
"516 230 LINE",
"117 230 LINE",
"107 155 LINE"
);
}
);
width = 640;
},
{
anchors = (
{
name = ogonek;
position = "{662, 0}";
},
{
name = top;
position = "{402, 660}";
}
);
layerId = "99EB5860-B45A-4B60-BB0B-F826C8F71D42";
name = "Bold Italic";
paths = (
{
closed = 1;
nodes = (
"187 0 LINE",
"333 379 LINE",
"375 491 LINE",
"378 491 LINE",
"389 379 LINE",
"426 0 LINE",
"654 0 LINE",
"542 660 LINE",
"262 660 LINE",
"-35 0 LINE"
);
},
{
closed = 1;
nodes = (
"510 78 LINE",
"535 255 LINE",
"158 255 LINE",
"133 78 LINE"
);
}
);
width = 689;
},
{
anchors = (
{
name = ogonek;
position = "{539, 0}";
},
{
name = top;
position = "{351, 660}";
}
);
layerId = "1C7CD022-87C7-4E11-B656-E47B18819458";
name = "Light Italic";
paths = (
{
closed = 1;
nodes = (
"-6 0 LINE",
"325 597 LINE",
"348 642 LINE",
"348 642 LINE",
"359 596 LINE",
"522 0 LINE",
"539 0 LINE",
"360 660 LINE",
"342 660 LINE",
"-23 0 LINE"
);
},
{
closed = 1;
nodes = (
"462 229 LINE",
"464 243 LINE",
"119 243 LINE",
"117 229 LINE"
);
}
);
width = 586;
}
);
leftKerningGroup = A;
rightKerningGroup = A;
unicode = 0041;
},
{
color = 4;
glyphname = Aacute;
lastChange = "2016-04-09 01:28:01 +0000";
layers = (
{
anchors = (
{
name = ogonek;
position = "{589, 0}";
},
{
name = top;
position = "{378, 660}";
}
);
layerId = "4A17B37A-CBFD-40E5-9E02-2080A0E1F76C";
name = "Regular Italic";
paths = (
{
closed = 1;
nodes = (
"65 0 LINE",
"323 495 LINE",
"365 584 LINE",
"367 584 LINE",
"385 492 LINE",
"504 0 LINE",
"589 0 LINE",
"426 660 LINE",
"331 660 LINE",
"-19 0 LINE"
);
},
{
closed = 1;
nodes = (
"506 155 LINE",
"516 230 LINE",
"117 230 LINE",
"107 155 LINE"
);
},
{
closed = 1;
nodes = (
"347 743 LINE",
"428 743 LINE",
"510 891 LINE",
"425 891 LINE"
);
}
);
width = 640;
},
{
anchors = (
{
name = ogonek;
position = "{662, 0}";
},
{
name = top;
position = "{402, 660}";
}
);
layerId = "99EB5860-B45A-4B60-BB0B-F826C8F71D42";
name = "Bold Italic";
paths = (
{
closed = 1;
nodes = (
"187 0 LINE",
"333 379 LINE",
"375 491 LINE",
"378 491 LINE",
"389 379 LINE",
"426 0 LINE",
"654 0 LINE",
"542 660 LINE",
"262 660 LINE",
"-35 0 LINE"
);
},
{
closed = 1;
nodes = (
"510 78 LINE",
"535 255 LINE",
"158 255 LINE",
"133 78 LINE"
);
},
{
closed = 1;
nodes = (
"318 709 LINE",
"495 709 LINE",
"585 876 LINE",
"394 876 LINE"
);
}
);
width = 689;
},
{
anchors = (
{
name = ogonek;
position = "{539, 0}";
},
{
name = top;
position = "{351, 660}";
}
);
layerId = "1C7CD022-87C7-4E11-B656-E47B18819458";
name = "Light Italic";
paths = (
{
closed = 1;
nodes = (
"-6 0 LINE",
"325 597 LINE",
"348 642 LINE",
"348 642 LINE",
"359 596 LINE",
"522 0 LINE",
"539 0 LINE",
"360 660 LINE",
"342 660 LINE",
"-23 0 LINE"
);
},
{
closed = 1;
nodes = (
"462 229 LINE",
"464 243 LINE",
"119 243 LINE",
"117 229 LINE"
);
},
{
closed = 1;
nodes = (
"361 743 LINE",
"377 743 LINE",
"473 891 LINE",
"457 891 LINE"
);
}
);
width = 586;
}
);
leftKerningGroup = A;
rightKerningGroup = A;
unicode = 00C1;
},
{
color = 4;
glyphname = Abreve;
lastChange = "2016-04-09 01:28:02 +0000";
layers = (
{
anchors = (
{
name = ogonek;
position = "{589, 0}";
},
{
name = top;
position = "{378, 660}";
}
);
layerId = "4A17B37A-CBFD-40E5-9E02-2080A0E1F76C";
name = "Regular Italic";
paths = (
{
closed = 1;
nodes = (
"65 0 LINE",
"323 495 LINE",
"365 584 LINE",
"367 584 LINE",
"385 492 LINE",
"504 0 LINE",
"589 0 LINE",
"426 660 LINE",
"331 660 LINE",
"-19 0 LINE"
);
},
{
closed = 1;
nodes = (
"506 155 LINE",
"516 230 LINE",
"117 230 LINE",
"107 155 LINE"
);
},
{
closed = 1;
nodes = (
"491 885 LINE",
"485 838 OFFCURVE",
"444 797 OFFCURVE",
"397 797 CURVE SMOOTH",
"350 797 OFFCURVE",
"321 838 OFFCURVE",
"327 885 CURVE",
"261 885 LINE",
"249 797 OFFCURVE",
"300 737 OFFCURVE",
"388 737 CURVE SMOOTH",
"476 737 OFFCURVE",
"545 797 OFFCURVE",
"557 885 CURVE"
);
}
);
width = 640;
},
{
anchors = (
{
name = ogonek;
position = "{662, 0}";
},
{
name = top;
position = "{402, 660}";
}
);
layerId = "99EB5860-B45A-4B60-BB0B-F826C8F71D42";
name = "Bold Italic";
paths = (
{
closed = 1;
nodes = (
"187 0 LINE",
"333 379 LINE",
"375 491 LINE",
"378 491 LINE",
"389 379 LINE",
"426 0 LINE",
"654 0 LINE",
"542 660 LINE",
"262 660 LINE",
"-35 0 LINE"
);
},
{
closed = 1;
nodes = (
"510 78 LINE",
"535 255 LINE",
"158 255 LINE",
"133 78 LINE"
);
},
{
closed = 1;
nodes = (
"476 873 LINE",
"470 837 OFFCURVE",
"454 818 OFFCURVE",
"424 818 CURVE SMOOTH",
"394 818 OFFCURVE",
"382 837 OFFCURVE",
"388 873 CURVE",
"249 873 LINE",
"233 763 OFFCURVE",
"291 700 OFFCURVE",
"407 700 CURVE SMOOTH",
"523 700 OFFCURVE",
"599 763 OFFCURVE",
"615 873 CURVE"
);
}
);
width = 689;
},
{
anchors = (
{
name = ogonek;
position = "{539, 0}";
},
{
name = top;
position = "{351, 660}";
}
);
layerId = "1C7CD022-87C7-4E11-B656-E47B18819458";
name = "Light Italic";
paths = (
{
closed = 1;
nodes = (
"-6 0 LINE",
"325 597 LINE",
"348 642 LINE",
"348 642 LINE",
"359 596 LINE",
"522 0 LINE",
"539 0 LINE",
"360 660 LINE",
"342 660 LINE",
"-23 0 LINE"
);
},
{
closed = 1;
nodes = (
"462 229 LINE",
"464 243 LINE",
"119 243 LINE",
"117 229 LINE"
);
},
{
closed = 1;
nodes = (
"486 861 LINE",
"477 796 OFFCURVE",
"430 754 OFFCURVE",
"364 754 CURVE SMOOTH",
"298 754 OFFCURVE",
"263 796 OFFCURVE",
"272 861 CURVE",
"258 861 LINE",
"247 785 OFFCURVE",
"286 740 OFFCURVE",
"362 740 CURVE SMOOTH",
"438 740 OFFCURVE",
"489 785 OFFCURVE",
"500 861 CURVE"
);
}
);
width = 586;
}
);
leftKerningGroup = A;
rightKerningGroup = A;
unicode = 0102;
},
{
color = 4;
glyphname = Acircumflex;
lastChange = "2016-04-09 01:28:02 +0000";
layers = (
{
anchors = (
{
name = ogonek;
position = "{589, 0}";
},
{
name = top;
position = "{378, 660}";
}
);
layerId = "4A17B37A-CBFD-40E5-9E02-2080A0E1F76C";
name = "Regular Italic";
paths = (
{
closed = 1;
nodes = (
"65 0 LINE",
"323 495 LINE",
"365 584 LINE",
"367 584 LINE",
"385 492 LINE",
"504 0 LINE",
"589 0 LINE",
"426 660 LINE",
"331 660 LINE",
"-19 0 LINE"
);
},
{
closed = 1;
nodes = (
"506 155 LINE",
"516 230 LINE",
"117 230 LINE",
"107 155 LINE"
);
},
{
closed = 1;
nodes = (
"457 903 LINE",
"367 903 LINE",
"229 736 LINE",
"302 736 LINE",
"404 851 LINE",
"474 736 LINE",
"547 736 LINE"
);
}
);
width = 640;
},
{
anchors = (
{
name = ogonek;
position = "{662, 0}";
},
{
name = top;
position = "{402, 660}";
}
);
layerId = "99EB5860-B45A-4B60-BB0B-F826C8F71D42";
name = "Bold Italic";
paths = (
{
closed = 1;
nodes = (
"187 0 LINE",
"333 379 LINE",
"375 491 LINE",
"378 491 LINE",
"389 379 LINE",
"426 0 LINE",
"654 0 LINE",
"542 660 LINE",
"262 660 LINE",
"-35 0 LINE"
);
},
{
closed = 1;
nodes = (
"510 78 LINE",
"535 255 LINE",
"158 255 LINE",
"133 78 LINE"
);
},
{
closed = 1;
nodes = (
"539 876 LINE",
"325 876 LINE",
"194 709 LINE",
"365 709 LINE",
"418 778 LINE",
"453 709 LINE",
"624 709 LINE"
);
}
);
width = 689;
},
{
anchors = (
{
name = ogonek;
position = "{539, 0}";
},
{
name = top;
position = "{351, 660}";
}
);
layerId = "1C7CD022-87C7-4E11-B656-E47B18819458";
name = "Light Italic";
paths = (
{
closed = 1;
nodes = (
"-6 0 LINE",
"325 597 LINE",
"348 642 LINE",
"348 642 LINE",
"359 596 LINE",
"522 0 LINE",
"539 0 LINE",
"360 660 LINE",
"342 660 LINE",
"-23 0 LINE"
);
},
{
closed = 1;
nodes = (
"462 229 LINE",
"464 243 LINE",
"119 243 LINE",
"117 229 LINE"
);
},
{
closed = 1;
nodes = (
"392 885 LINE",
"372 885 LINE",
"243 743 LINE",
"260 743 LINE",
"380 872 LINE",
"464 743 LINE",
"481 743 LINE"
);
}
);
width = 586;
}
);
leftKerningGroup = A;
rightKerningGroup = A;
unicode = 00C2;
},
{
color = 4;
glyphname = Adieresis;
lastChange = "2016-04-09 01:28:02 +0000";
layers = (
{
anchors = (
{
name = ogonek;
position = "{589, 0}";
},
{
name = top;
position = "{378, 660}";
}
);
layerId = "4A17B37A-CBFD-40E5-9E02-2080A0E1F76C";
name = "Regular Italic";
paths = (
{
closed = 1;
nodes = (
"65 0 LINE",
"323 495 LINE",
"365 584 LINE",
"367 584 LINE",
"385 492 LINE",
"504 0 LINE",
"589 0 LINE",
"426 660 LINE",
"331 660 LINE",
"-19 0 LINE"
);
},
{
closed = 1;
nodes = (
"506 155 LINE",
"516 230 LINE",
"117 230 LINE",
"107 155 LINE"
);
},
{
closed = 1;
nodes = (
"517 742 OFFCURVE",
"547 768 OFFCURVE",
"551 799 CURVE SMOOTH",
"556 830 OFFCURVE",
"533 856 OFFCURVE",
"502 856 CURVE SMOOTH",
"470 856 OFFCURVE",
"442 830 OFFCURVE",
"437 799 CURVE SMOOTH",
"433 768 OFFCURVE",
"454 742 OFFCURVE",
"486 742 CURVE SMOOTH"
);
},
{
closed = 1;
nodes = (
"323 742 OFFCURVE",
"353 768 OFFCURVE",
"357 799 CURVE SMOOTH",
"362 830 OFFCURVE",
"339 856 OFFCURVE",
"308 856 CURVE SMOOTH",
"276 856 OFFCURVE",
"248 830 OFFCURVE",
"243 799 CURVE SMOOTH",
"239 768 OFFCURVE",
"260 742 OFFCURVE",
"292 742 CURVE SMOOTH"
);
}
);
width = 640;
},
{
anchors = (
{
name = ogonek;
position = "{662, 0}";
},
{
name = top;
position = "{402, 660}";
}
);
layerId = "99EB5860-B45A-4B60-BB0B-F826C8F71D42";
name = "Bold Italic";
paths = (
{
closed = 1;
nodes = (
"187 0 LINE",
"333 379 LINE",
"375 491 LINE",
"378 491 LINE",
"389 379 LINE",
"426 0 LINE",
"654 0 LINE",
"542 660 LINE",
"262 660 LINE",
"-35 0 LINE"
);
},
{
closed = 1;
nodes = (
"510 78 LINE",
"535 255 LINE",
"158 255 LINE",
"133 78 LINE"
);
},
{
closed = 1;
nodes = (
"581 697 OFFCURVE",
"633 743 OFFCURVE",
"641 799 CURVE SMOOTH",
"649 856 OFFCURVE",
"610 902 OFFCURVE",
"553 902 CURVE SMOOTH",
"497 902 OFFCURVE",
"444 856 OFFCURVE",
"436 799 CURVE SMOOTH",
"428 743 OFFCURVE",
"468 697 OFFCURVE",
"524 697 CURVE SMOOTH"
);
},
{
closed = 1;
nodes = (
"346 697 OFFCURVE",
"398 743 OFFCURVE",
"406 799 CURVE SMOOTH",
"414 856 OFFCURVE",
"375 902 OFFCURVE",
"318 902 CURVE SMOOTH",
"262 902 OFFCURVE",
"209 856 OFFCURVE",
"201 799 CURVE SMOOTH",
"193 743 OFFCURVE",
"233 697 OFFCURVE",
"289 697 CURVE SMOOTH"
);
}
);
width = 689;
},
{
anchors = (
{
name = ogonek;
position = "{539, 0}";
},
{
name = top;
position = "{351, 660}";
}
);
layerId = "1C7CD022-87C7-4E11-B656-E47B18819458";
name = "Light Italic";
paths = (
{
closed = 1;
nodes = (
"-6 0 LINE",
"325 597 LINE",
"348 642 LINE",
"348 642 LINE",
"359 596 LINE",
"522 0 LINE",
"539 0 LINE",
"360 660 LINE",
"342 660 LINE",
"-23 0 LINE"
);
},
{
closed = 1;
nodes = (
"462 229 LINE",
"464 243 LINE",
"119 243 LINE",
"117 229 LINE"
);
},
{
closed = 1;
nodes = (
"472 758 OFFCURVE",
"484 767 OFFCURVE",
"485 780 CURVE SMOOTH",
"487 792 OFFCURVE",
"478 801 OFFCURVE",
"467 801 CURVE SMOOTH",
"454 801 OFFCURVE",
"443 792 OFFCURVE",
"441 780 CURVE SMOOTH",
"440 767 OFFCURVE",
"448 758 OFFCURVE",
"461 758 CURVE SMOOTH"
);
},
{
closed = 1;
nodes = (
"288 758 OFFCURVE",
"300 767 OFFCURVE",
"301 780 CURVE SMOOTH",
"303 792 OFFCURVE",
"294 801 OFFCURVE",
"283 801 CURVE SMOOTH",
"270 801 OFFCURVE",
"259 792 OFFCURVE",
"257 780 CURVE SMOOTH",
"256 767 OFFCURVE",
"264 758 OFFCURVE",
"277 758 CURVE SMOOTH"
);
}
);
width = 586;
}
);
leftKerningGroup = A;
rightKerningGroup = A;
unicode = 00C4;
},
{
color = 4;
glyphname = Agrave;
lastChange = "2016-04-09 01:28:01 +0000";
layers = (
{
anchors = (
{
name = ogonek;
position = "{589, 0}";
},
{
name = top;
position = "{378, 660}";
}
);
layerId = "4A17B37A-CBFD-40E5-9E02-2080A0E1F76C";
name = "Regular Italic";
paths = (
{
closed = 1;
nodes = (
"65 0 LINE",
"323 495 LINE",
"365 584 LINE",
"367 584 LINE",
"385 492 LINE",
"504 0 LINE",
"589 0 LINE",
"426 660 LINE",
"331 660 LINE",
"-19 0 LINE"
);
},
{
closed = 1;
nodes = (
"506 155 LINE",
"516 230 LINE",
"117 230 LINE",
"107 155 LINE"
);
},
{
closed = 1;
nodes = (
"301 891 LINE",
"341 743 LINE",
"422 743 LINE",
"386 891 LINE"
);
}
);
width = 640;
},
{
anchors = (
{
name = ogonek;
position = "{662, 0}";
},
{
name = top;
position = "{402, 660}";
}
);
layerId = "99EB5860-B45A-4B60-BB0B-F826C8F71D42";
name = "Bold Italic";
paths = (
{
closed = 1;
nodes = (
"187 0 LINE",
"333 379 LINE",
"375 491 LINE",
"378 491 LINE",
"389 379 LINE",
"426 0 LINE",
"654 0 LINE",
"542 660 LINE",
"262 660 LINE",
"-35 0 LINE"
);
},
{
closed = 1;
nodes = (
"510 78 LINE",
"535 255 LINE",
"158 255 LINE",
"133 78 LINE"
);
},
{
closed = 1;
nodes = (
"259 876 LINE",
"303 709 LINE",
"480 709 LINE",
"450 876 LINE"
);
}
);
width = 689;
},
{
anchors = (
{
name = ogonek;
position = "{539, 0}";
},
{
name = top;
position = "{351, 660}";
}
);
layerId = "1C7CD022-87C7-4E11-B656-E47B18819458";
name = "Light Italic";
paths = (
{
closed = 1;
nodes = (
"-6 0 LINE",
"325 597 LINE",
"348 642 LINE",
"348 642 LINE",
"359 596 LINE",
"522 0 LINE",
"539 0 LINE",
"360 660 LINE",
"342 660 LINE",
"-23 0 LINE"
);
},
{
closed = 1;
nodes = (
"462 229 LINE",
"464 243 LINE",
"119 243 LINE",
"117 229 LINE"
);
},
{
closed = 1;
nodes = (
"290 891 LINE",
"344 743 LINE",
"360 743 LINE",
"306 891 LINE"
);
}
);
width = 586;
}
);
leftKerningGroup = A;
rightKerningGroup = A;
unicode = 00C0;
},
{
color = 4;
glyphname = Amacron;
lastChange = "2016-04-09 01:28:02 +0000";
layers = (
{
anchors = (
{
name = ogonek;
position = "{589, 0}";
},
{
name = top;
position = "{378, 660}";
}
);
layerId = "4A17B37A-CBFD-40E5-9E02-2080A0E1F76C";
name = "Regular Italic";
paths = (
{
closed = 1;
nodes = (
"65 0 LINE",
"323 495 LINE",
"365 584 LINE",
"367 584 LINE",
"385 492 LINE",
"504 0 LINE",
"589 0 LINE",
"426 660 LINE",
"331 660 LINE",
"-19 0 LINE"
);
},
{
closed = 1;
nodes = (
"506 155 LINE",
"516 230 LINE",
"117 230 LINE",
"107 155 LINE"
);
},
{
closed = 1;
nodes = (
"227 823 LINE",
"217 756 LINE",
"565 756 LINE",
"575 823 LINE"
);
}
);
width = 640;
},
{
anchors = (
{
name = ogonek;
position = "{662, 0}";
},
{
name = top;
position = "{402, 660}";
}
);
layerId = "99EB5860-B45A-4B60-BB0B-F826C8F71D42";
name = "Bold Italic";
paths = (
{
closed = 1;
nodes = (
"187 0 LINE",
"333 379 LINE",
"375 491 LINE",
"378 491 LINE",
"389 379 LINE",
"426 0 LINE",
"654 0 LINE",
"542 660 LINE",
"262 660 LINE",
"-35 0 LINE"
);
},
{
closed = 1;
nodes = (
"510 78 LINE",
"535 255 LINE",
"158 255 LINE",
"133 78 LINE"
);
},
{
closed = 1;
nodes = (
"233 841 LINE",
"215 711 LINE",
"603 711 LINE",
"621 841 LINE"
);
}
);
width = 689;
},
{
anchors = (
{
name = ogonek;
position = "{539, 0}";
},
{
name = top;
position = "{351, 660}";
}
);
layerId = "1C7CD022-87C7-4E11-B656-E47B18819458";
name = "Light Italic";
paths = (
{
closed = 1;
nodes = (
"-6 0 LINE",
"325 597 LINE",
"348 642 LINE",
"348 642 LINE",
"359 596 LINE",
"522 0 LINE",
"539 0 LINE",
"360 660 LINE",
"342 660 LINE",
"-23 0 LINE"
);
},
{
closed = 1;
nodes = (
"462 229 LINE",
"464 243 LINE",
"119 243 LINE",
"117 229 LINE"
);
},
{
closed = 1;
nodes = (
"223 779 LINE",
"221 765 LINE",
"509 765 LINE",
"511 779 LINE"
);
}
);
width = 586;
}
);
leftKerningGroup = A;
rightKerningGroup = A;
unicode = 0100;
},
{
color = 4;
glyphname = Aogonek;
lastChange = "2016-04-09 01:28:01 +0000";
layers = (
{
anchors = (
{
name = ogonek;
position = "{589, 0}";
},
{
name = top;
position = "{378, 660}";
}
);
layerId = "4A17B37A-CBFD-40E5-9E02-2080A0E1F76C";
name = "Regular Italic";
paths = (
{
closed = 1;
nodes = (
"65 0 LINE",
"323 495 LINE",
"365 584 LINE",
"367 584 LINE",
"385 492 LINE",
"504 0 LINE",
"589 0 LINE",
"426 660 LINE",
"331 660 LINE",
"-19 0 LINE"
);
},
{
closed = 1;
nodes = (
"506 155 LINE",
"516 230 LINE",
"117 230 LINE",
"107 155 LINE"
);
},
{
closed = 1;
nodes = (
"547 31 LINE",
"444 0 OFFCURVE",
"394 -45 OFFCURVE",
"384 -111 CURVE SMOOTH",
"375 -177 OFFCURVE",
"417 -215 OFFCURVE",
"489 -215 CURVE SMOOTH",
"518 -215 OFFCURVE",
"552 -209 OFFCURVE",
"573 -196 CURVE",
"564 -145 LINE",
"547 -156 OFFCURVE",
"524 -158 OFFCURVE",
"507 -158 CURVE SMOOTH",
"468 -158 OFFCURVE",
"445 -139 OFFCURVE",
"450 -106 CURVE SMOOTH",
"455 -68 OFFCURVE",
"483 -33 OFFCURVE",
"589 0 CURVE"
);
}
);
width = 640;
},
{
anchors = (
{
name = ogonek;
position = "{662, 0}";
},
{
name = top;
position = "{402, 660}";
}
);
layerId = "99EB5860-B45A-4B60-BB0B-F826C8F71D42";
name = "Bold Italic";
paths = (
{
closed = 1;
nodes = (
"187 0 LINE",
"333 379 LINE",
"375 491 LINE",
"378 491 LINE",
"389 379 LINE",
"426 0 LINE",
"654 0 LINE",
"542 660 LINE",
"262 660 LINE",
"-35 0 LINE"
);
},
{
closed = 1;
nodes = (
"510 78 LINE",
"535 255 LINE",
"158 255 LINE",
"133 78 LINE"
);
},
{
closed = 1;
nodes = (
"574 32 LINE",
"472 26 OFFCURVE",
"392 -17 OFFCURVE",
"381 -96 CURVE SMOOTH",
"370 -180 OFFCURVE",
"434 -215 OFFCURVE",
"517 -215 CURVE SMOOTH",
"567 -215 OFFCURVE",
"603 -209 OFFCURVE",
"638 -189 CURVE",
"626 -86 LINE",
"615 -92 OFFCURVE",
"600 -94 OFFCURVE",
"585 -94 CURVE SMOOTH",
"554 -94 OFFCURVE",
"538 -80 OFFCURVE",
"541 -56 CURVE SMOOTH",
"545 -25 OFFCURVE",
"576 -5 OFFCURVE",
"662 0 CURVE"
);
}
);
width = 689;
},
{
anchors = (
{
name = ogonek;
position = "{539, 0}";
},
{
name = top;
position = "{351, 660}";
}
);
layerId = "1C7CD022-87C7-4E11-B656-E47B18819458";
name = "Light Italic";
paths = (
{
closed = 1;
nodes = (
"-6 0 LINE",
"325 597 LINE",
"348 642 LINE",
"348 642 LINE",
"359 596 LINE",
"522 0 LINE",
"539 0 LINE",
"360 660 LINE",
"342 660 LINE",
"-23 0 LINE"
);
},
{
closed = 1;
nodes = (
"462 229 LINE",
"464 243 LINE",
"119 243 LINE",
"117 229 LINE"
);
},
{
closed = 1;
nodes = (
"525 7 LINE",
"420 -32 OFFCURVE",
"382 -72 OFFCURVE",
"374 -124 CURVE SMOOTH",
"367 -176 OFFCURVE",
"403 -202 OFFCURVE",
"451 -202 CURVE SMOOTH",
"487 -202 OFFCURVE",
"509 -192 OFFCURVE",
"526 -181 CURVE",
"522 -168 LINE",
"507 -179 OFFCURVE",
"487 -188 OFFCURVE",
"453 -188 CURVE SMOOTH",
"413 -188 OFFCURVE",
"383 -167 OFFCURVE",
"389 -124 CURVE SMOOTH",
"396 -75 OFFCURVE",
"435 -38 OFFCURVE",
"539 0 CURVE"
);
}
);
width = 586;
}
);
leftKerningGroup = A;
rightKerningGroup = A;
unicode = 0104;
},
{
color = 4;
glyphname = Aring;
lastChange = "2016-04-09 01:28:01 +0000";
layers = (
{
anchors = (
{
name = ogonek;
position = "{662, 0}";
},
{
name = top;
position = "{402, 660}";
}
);
layerId = "99EB5860-B45A-4B60-BB0B-F826C8F71D42";
name = "Bold Italic";
paths = (
{
closed = 1;
nodes = (
"326 867 OFFCURVE",
"258 812 OFFCURVE",
"246 730 CURVE SMOOTH",
"235 647 OFFCURVE",
"289 606 OFFCURVE",
"395 606 CURVE SMOOTH",
"491 606 OFFCURVE",
"567 647 OFFCURVE",
"578 730 CURVE SMOOTH",
"590 812 OFFCURVE",
"538 867 OFFCURVE",
"432 867 CURVE SMOOTH"
);
},
{
closed = 1;
nodes = (
"450 768 OFFCURVE",
"465 751 OFFCURVE",
"461 721 CURVE SMOOTH",
"457 691 OFFCURVE",
"437 674 OFFCURVE",
"405 674 CURVE SMOOTH",
"373 674 OFFCURVE",
"357 691 OFFCURVE",
"361 721 CURVE SMOOTH",
"365 751 OFFCURVE",
"386 768 OFFCURVE",
"418 768 CURVE SMOOTH"
);
},
{
closed = 1;
nodes = (
"187 0 LINE",
"333 379 LINE",
"375 491 LINE",
"378 491 LINE",
"389 379 LINE",
"426 0 LINE",
"654 0 LINE",
"542 660 LINE",
"262 660 LINE",
"-35 0 LINE"
);
},
{
closed = 1;
nodes = (
"510 78 LINE",
"535 255 LINE",
"158 255 LINE",
"133 78 LINE"
);
}
);
width = 689;
},
{
anchors = (
{
name = ogonek;
position = "{589, 0}";
},
{
name = top;
position = "{378, 660}";
}
);
layerId = "4A17B37A-CBFD-40E5-9E02-2080A0E1F76C";
name = "Regular Italic";
paths = (
{
closed = 1;
nodes = (
"331 852 OFFCURVE",
"273 804 OFFCURVE",
"263 734 CURVE SMOOTH",
"253 663 OFFCURVE",
"297 615 OFFCURVE",
"372 615 CURVE SMOOTH",
"447 615 OFFCURVE",
"504 663 OFFCURVE",
"514 734 CURVE SMOOTH",
"524 804 OFFCURVE",
"481 852 OFFCURVE",
"406 852 CURVE SMOOTH"
);
},
{
closed = 1;
nodes = (
"439 803 OFFCURVE",
"465 774 OFFCURVE",
"459 734 CURVE SMOOTH",
"453 694 OFFCURVE",
"419 665 OFFCURVE",
"378 665 CURVE SMOOTH",
"337 665 OFFCURVE",
"311 694 OFFCURVE",
"317 734 CURVE SMOOTH",
"323 774 OFFCURVE",
"357 803 OFFCURVE",
"398 803 CURVE SMOOTH"
);
},
{
closed = 1;
nodes = (
"65 0 LINE",
"323 495 LINE",
"365 584 LINE",
"367 584 LINE",
"385 492 LINE",
"504 0 LINE",
"589 0 LINE",
"426 660 LINE",
"331 660 LINE",
"-19 0 LINE"
);
},
{
closed = 1;
nodes = (
"506 155 LINE",
"516 230 LINE",
"117 230 LINE",
"107 155 LINE"
);
}
);
width = 640;
},
{
anchors = (
{
name = ogonek;
position = "{539, 0}";
},
{
name = top;
position = "{351, 660}";
}
);
layerId = "1C7CD022-87C7-4E11-B656-E47B18819458";
name = "Light Italic";
paths = (
{
closed = 1;
nodes = (
"325 786 OFFCURVE",
"292 758 OFFCURVE",
"286 716 CURVE SMOOTH",
"281 674 OFFCURVE",
"306 646 OFFCURVE",
"349 646 CURVE SMOOTH",
"392 646 OFFCURVE",
"425 674 OFFCURVE",
"430 716 CURVE SMOOTH",
"436 758 OFFCURVE",
"411 786 OFFCURVE",
"368 786 CURVE SMOOTH"
);
},
{
closed = 1;
nodes = (
"400 772 OFFCURVE",
"419 750 OFFCURVE",
"414 716 CURVE SMOOTH",
"410 682 OFFCURVE",
"385 660 OFFCURVE",
"351 660 CURVE SMOOTH",
"317 660 OFFCURVE",
"298 682 OFFCURVE",
"302 716 CURVE SMOOTH",
"307 750 OFFCURVE",
"332 772 OFFCURVE",
"366 772 CURVE SMOOTH"
);
},
{
closed = 1;
nodes = (
"-6 0 LINE",
"325 597 LINE",
"348 642 LINE",
"348 642 LINE",
"359 596 LINE",
"522 0 LINE",
"539 0 LINE",
"360 660 LINE",
"342 660 LINE",
"-23 0 LINE"
);
},
{
closed = 1;
nodes = (
"462 229 LINE",
"464 243 LINE",
"119 243 LINE",
"117 229 LINE"
);
}
);
width = 586;
}
);
leftKerningGroup = A;
leftMetricsKey = A;
rightKerningGroup = A;
rightMetricsKey = A;
unicode = 00C5;
},
{
color = 4;
glyphname = Atilde;
lastChange = "2016-04-09 01:28:01 +0000";
layers = (
{
anchors = (
{
name = ogonek;
position = "{589, 0}";
},
{
name = top;
position = "{378, 660}";
}
);
layerId = "4A17B37A-CBFD-40E5-9E02-2080A0E1F76C";
name = "Regular Italic";
paths = (
{
closed = 1;
nodes = (
"65 0 LINE",
"323 495 LINE",
"365 584 LINE",
"367 584 LINE",
"385 492 LINE",
"504 0 LINE",
"589 0 LINE",
"426 660 LINE",
"331 660 LINE",
"-19 0 LINE"
);
},
{
closed = 1;
nodes = (
"506 155 LINE",
"516 230 LINE",
"117 230 LINE",
"107 155 LINE"
);
},
{
closed = 1;
nodes = (
"525 877 LINE",
"512 834 OFFCURVE",
"495 808 OFFCURVE",
"465 808 CURVE SMOOTH",
"425 808 OFFCURVE",
"412 876 OFFCURVE",
"339 876 CURVE SMOOTH",
"268 876 OFFCURVE",
"227 830 OFFCURVE",
"207 742 CURVE",
"270 742 LINE",
"283 785 OFFCURVE",
"299 811 OFFCURVE",
"329 811 CURVE SMOOTH",
"372 811 OFFCURVE",
"382 743 OFFCURVE",
"457 743 CURVE SMOOTH",
"526 743 OFFCURVE",
"569 789 OFFCURVE",
"588 877 CURVE"
);
}
);
width = 640;
},
{
anchors = (
{
name = ogonek;
position = "{662, 0}";
},
{
name = top;
position = "{402, 660}";
}
);
layerId = "99EB5860-B45A-4B60-BB0B-F826C8F71D42";
name = "Bold Italic";
paths = (
{
closed = 1;
nodes = (
"187 0 LINE",
"333 379 LINE",
"375 491 LINE",
"378 491 LINE",
"389 379 LINE",
"426 0 LINE",
"654 0 LINE",
"542 660 LINE",
"262 660 LINE",
"-35 0 LINE"
);
},
{
closed = 1;
nodes = (
"510 78 LINE",
"535 255 LINE",
"158 255 LINE",
"133 78 LINE"
);
},
{
closed = 1;
nodes = (
"524 879 LINE",
"517 845 OFFCURVE",
"506 831 OFFCURVE",
"488 831 CURVE SMOOTH",
"451 831 OFFCURVE",
"448 881 OFFCURVE",
"369 881 CURVE SMOOTH",
"278 881 OFFCURVE",
"218 825 OFFCURVE",
"198 705 CURVE",
"316 705 LINE",
"324 739 OFFCURVE",
"336 753 OFFCURVE",
"353 753 CURVE SMOOTH",
"390 753 OFFCURVE",
"393 703 OFFCURVE",
"472 703 CURVE SMOOTH",
"563 703 OFFCURVE",
"623 759 OFFCURVE",
"642 879 CURVE"
);
}
);
width = 689;
},
{
anchors = (
{
name = ogonek;
position = "{539, 0}";
},
{
name = top;
position = "{351, 660}";
}
);
layerId = "1C7CD022-87C7-4E11-B656-E47B18819458";
name = "Light Italic";
paths = (
{
closed = 1;
nodes = (
"-6 0 LINE",
"325 597 LINE",
"348 642 LINE",
"348 642 LINE",
"359 596 LINE",
"522 0 LINE",
"539 0 LINE",
"360 660 LINE",
"342 660 LINE",
"-23 0 LINE"
);
},
{
closed = 1;
nodes = (
"462 229 LINE",
"464 243 LINE",
"119 243 LINE",
"117 229 LINE"
);
},
{
closed = 1;
nodes = (
"520 843 LINE",
"504 798 OFFCURVE",
"487 773 OFFCURVE",
"441 773 CURVE SMOOTH",
"373 773 OFFCURVE",
"382 842 OFFCURVE",
"304 842 CURVE SMOOTH",
"254 842 OFFCURVE",
"226 815 OFFCURVE",
"207 758 CURVE",
"222 758 LINE",
"239 803 OFFCURVE",
"255 828 OFFCURVE",
"301 828 CURVE SMOOTH",
"370 828 OFFCURVE",
"360 759 OFFCURVE",
"439 759 CURVE SMOOTH",
"489 759 OFFCURVE",
"516 786 OFFCURVE",
"535 843 CURVE"
);
}
);
width = 586;
}
);
leftKerningGroup = A;
rightKerningGroup = A;
unicode = 00C3;
},
{
color = 4;
glyphname = AE;
lastChange = "2016-04-09 01:28:02 +0000";
layers = (
{
layerId = "4A17B37A-CBFD-40E5-9E02-2080A0E1F76C";
name = "Regular Italic";
paths = (
{
closed = 1;
nodes = (
"440 660 LINE",
"-39 0 LINE",
"47 0 LINE",
"522 660 LINE"
);
},
{
closed = 1;
nodes = (
"211 288 LINE",
"161 213 LINE",
"476 213 LINE",
"486 288 LINE"
);
},
{
closed = 1;
nodes = (
"458 75 LINE",
"448 0 LINE",
"857 0 LINE",
"867 75 LINE"
);
},
{
closed = 1;
nodes = (
"499 660 LINE",
"406 0 LINE",
"486 0 LINE",
"579 660 LINE"
);
},
{
closed = 1;
nodes = (
"500 372 LINE",
"490 297 LINE",
"799 297 LINE",
"809 372 LINE"
);
},
{
closed = 1;
nodes = (
"477 660 LINE",
"426 585 LINE",
"525 585 LINE",
"541 585 LINE",
"924 585 LINE",
"935 660 LINE"
);
}
);
width = 934;
},
{
layerId = "99EB5860-B45A-4B60-BB0B-F826C8F71D42";
leftMetricsKey = "=A";
name = "Bold Italic";
paths = (
{
closed = 1;
nodes = (
"262 660 LINE",
"-45 0 LINE",
"185 0 LINE",
"441 660 LINE"
);
},
{
closed = 1;
nodes = (
"163 321 LINE",
"94 185 LINE",
"492 185 LINE",
"511 321 LINE"
);
},
{
closed = 1;
nodes = (
"476 161 LINE",
"454 0 LINE",
"853 0 LINE",
"875 161 LINE"
);
},
{
closed = 1;
nodes = (
"459 660 LINE",
"366 0 LINE",
"580 0 LINE",
"673 660 LINE"
);
},
{
closed = 1;
nodes = (
"511 403 LINE",
"490 254 LINE",
"816 254 LINE",
"837 403 LINE"
);
},
{
closed = 1;
nodes = (
"326 660 LINE",
"264 507 LINE",
"513 507 LINE",
"561 499 LINE",
"911 499 LINE",
"934 660 LINE"
);
}
);
width = 904;
},
{
layerId = "1C7CD022-87C7-4E11-B656-E47B18819458";
name = "Light Italic";
paths = (
{
closed = 1;
nodes = (
"470 660 LINE",
"-43 0 LINE",
"-20 0 LINE",
"487 660 LINE"
);
},
{
closed = 1;
nodes = (
"176 268 LINE",
"164 254 LINE",
"444 254 LINE",
"446 268 LINE"
);
},
{
closed = 1;
nodes = (
"414 14 LINE",
"412 0 LINE",
"820 0 LINE",
"822 14 LINE"
);
},
{
closed = 1;
nodes = (
"496 660 LINE",
"403 0 LINE",
"419 0 LINE",
"512 660 LINE"
);
},
{
closed = 1;
nodes = (
"460 342 LINE",
"458 328 LINE",
"773 328 LINE",
"775 342 LINE"
);
},
{
closed = 1;
nodes = (
"482 660 LINE",
"469 646 LINE",
"500 646 LINE",
"503 646 LINE",
"895 646 LINE",
"897 660 LINE"
);
}
);
width = 885;
}
);
rightKerningGroup = E;
rightMetricsKey = E;
unicode = 00C6;
},
{
color = 4;
glyphname = B;
lastChange = "2016-04-09 01:28:01 +0000";
layers = (
{
layerId = "4A17B37A-CBFD-40E5-9E02-2080A0E1F76C";
name = "Regular Italic";
paths = (
{
closed = 1;
nodes = (
"297 0 LINE SMOOTH",
"453 0 OFFCURVE",
"550 75 OFFCURVE",
"565 180 CURVE SMOOTH",
"576 257 OFFCURVE",
"539 318 OFFCURVE",
"459 335 CURVE",
"459 336 LINE",
"528 350 OFFCURVE",
"579 402 OFFCURVE",
"591 484 CURVE SMOOTH",
"605 587 OFFCURVE",
"547 660 OFFCURVE",
"391 660 CURVE SMOOTH",
"156 660 LINE",
"63 0 LINE"
);
},
{
closed = 1;
nodes = (
"184 295 LINE",
"357 295 LINE SMOOTH",
"451 295 OFFCURVE",
"492 255 OFFCURVE",
"482 185 CURVE SMOOTH",
"472 115 OFFCURVE",
"420 75 OFFCURVE",
"326 75 CURVE SMOOTH",
"153 75 LINE"
);
},
{
closed = 1;
nodes = (
"225 585 LINE",
"381 585 LINE SMOOTH",
"475 585 OFFCURVE",
"516 550 OFFCURVE",
"506 478 CURVE SMOOTH",
"496 405 OFFCURVE",
"445 370 OFFCURVE",
"351 370 CURVE SMOOTH",
"195 370 LINE"
);
}
);
width = 633;
},
{
layerId = "99EB5860-B45A-4B60-BB0B-F826C8F71D42";
name = "Bold Italic";
paths = (
{
closed = 1;
nodes = (
"419 0 LINE SMOOTH",
"581 0 OFFCURVE",
"665 60 OFFCURVE",
"681 171 CURVE SMOOTH",
"693 259 OFFCURVE",
"654 318 OFFCURVE",
"537 331 CURVE",
"538 332 LINE",
"638 346 OFFCURVE",
"696 400 OFFCURVE",
"708 487 CURVE SMOOTH",
"724 598 OFFCURVE",
"653 660 OFFCURVE",
"486 660 CURVE SMOOTH",
"108 660 LINE",
"15 0 LINE"
);
},
{
closed = 1;
nodes = (
"273 248 LINE",
"392 248 LINE SMOOTH",
"434 248 OFFCURVE",
"451 232 OFFCURVE",
"447 200 CURVE SMOOTH",
"442 168 OFFCURVE",
"420 152 OFFCURVE",
"378 152 CURVE SMOOTH",
"259 152 LINE"
);
},
{
closed = 1;
nodes = (
"308 500 LINE",
"410 500 LINE SMOOTH",
"452 500 OFFCURVE",
"470 484 OFFCURVE",
"465 452 CURVE SMOOTH",
"461 420 OFFCURVE",
"439 404 OFFCURVE",
"397 404 CURVE SMOOTH",
"295 404 LINE"
);
}
);
width = 704;
},
{
hints = (
{
horizontal = 1;
origin = "{0, 15}";
target = "{1, 8}";
type = Stem;
},
{
horizontal = 1;
origin = "{0, 14}";
target = "{2, 0}";
type = Stem;
},
{
place = "{99, 16}";
type = Stem;
},
{
horizontal = 1;
origin = "{1, 1}";
target = "{2, 7}";
type = Stem;
}
);
layerId = "1C7CD022-87C7-4E11-B656-E47B18819458";
name = "Light Italic";
paths = (
{
closed = 1;
nodes = (
"306 0 LINE SMOOTH",
"451 0 OFFCURVE",
"535 58 OFFCURVE",
"551 169 CURVE SMOOTH",
"564 263 OFFCURVE",
"516 320 OFFCURVE",
"423 333 CURVE",
"423 334 LINE",
"514 353 OFFCURVE",
"565 407 OFFCURVE",
"577 493 CURVE SMOOTH",
"593 603 OFFCURVE",
"532 660 OFFCURVE",
"399 660 CURVE SMOOTH",
"157 660 LINE",
"64 0 LINE"
);
},
{
closed = 1;
nodes = (
"126 326 LINE",
"352 326 LINE SMOOTH",
"487 326 OFFCURVE",
"549 274 OFFCURVE",
"535 170 CURVE SMOOTH",
"520 67 OFFCURVE",
"443 14 OFFCURVE",
"308 14 CURVE SMOOTH",
"82 14 LINE"
);
},
{
closed = 1;
nodes = (
"171 646 LINE",
"397 646 LINE SMOOTH",
"519 646 OFFCURVE",
"575 593 OFFCURVE",
"561 492 CURVE SMOOTH",
"547 391 OFFCURVE",
"476 340 OFFCURVE",
"354 340 CURVE SMOOTH",
"128 340 LINE"
);
}
);
width = 619;
}
);
leftKerningGroup = I;
unicode = 0042;
},
{
color = 4;
glyphname = C;
lastChange = "2016-04-09 01:28:01 +0000";
layers = (
{
anchors = (
{
name = bottomC;
position = "{325, 0}";
},
{
name = top;
position = "{417, 660}";
}
);
layerId = "4A17B37A-CBFD-40E5-9E02-2080A0E1F76C";
name = "Regular Italic";
paths = (
{
closed = 1;
nodes = (
"25 143 OFFCURVE",
"156 -9 OFFCURVE",
"341 -9 CURVE",
"446 -9 OFFCURVE",
"547 40 OFFCURVE",
"620 118 CURVE",
"566 168 LINE",
"510 108 OFFCURVE",
"433 70 OFFCURVE",
"352 70 CURVE",
"210 70 OFFCURVE",
"110 187 OFFCURVE",
"130 330 CURVE",
"150 474 OFFCURVE",
"283 590 OFFCURVE",
"425 590 CURVE",
"506 590 OFFCURVE",
"573 553 OFFCURVE",
"612 494 CURVE",
"679 544 LINE",
"628 620 OFFCURVE",
"541 669 OFFCURVE",
"436 669 CURVE",
"251 669 OFFCURVE",
"78 517 OFFCURVE",
"51 331 CURVE"
);
}
);
width = 679;
},
{
anchors = (
{
name = bottomC;
position = "{332, 0}";
},
{
name = top;
position = "{429, 660}";
}
);
layerId = "99EB5860-B45A-4B60-BB0B-F826C8F71D42";
leftMetricsKey = "=O";
name = "Bold Italic";
paths = (
{
closed = 1;
nodes = (
"13 138 OFFCURVE",
"145 -15 OFFCURVE",
"334 -15 CURVE",
"464 -15 OFFCURVE",
"587 57 OFFCURVE",
"660 162 CURVE",
"489 264 LINE",
"461 224 OFFCURVE",
"415 197 OFFCURVE",
"364 197 CURVE",
"292 197 OFFCURVE",
"242 257 OFFCURVE",
"252 328 CURVE",
"262 401 OFFCURVE",
"328 459 OFFCURVE",
"400 459 CURVE",
"450 459 OFFCURVE",
"490 433 OFFCURVE",
"507 393 CURVE",
"706 495 LINE",
"662 600 OFFCURVE",
"559 671 OFFCURVE",
"430 671 CURVE",
"241 671 OFFCURVE",
"67 518 OFFCURVE",
"40 328 CURVE"
);
}
);
width = 691;
},
{
anchors = (
{
name = bottomC;
position = "{301, 0}";
},
{
name = top;
position = "{397, 660}";
}
);
layerId = "1C7CD022-87C7-4E11-B656-E47B18819458";
name = "Light Italic";
paths = (
{
closed = 1;
nodes = (
"34 138 OFFCURVE",
"166 -17 OFFCURVE",
"359 -17 CURVE",
"467 -17 OFFCURVE",
"570 33 OFFCURVE",
"644 110 CURVE",
"633 121 LINE",
"561 47 OFFCURVE",
"464 0 OFFCURVE",
"361 0 CURVE",
"178 0 OFFCURVE",
"53 147 OFFCURVE",
"78 330 CURVE",
"104 513 OFFCURVE",
"271 660 OFFCURVE",
"454 660 CURVE",
"557 660 OFFCURVE",
"641 613 OFFCURVE",
"692 539 CURVE",
"706 550 LINE",
"654 627 OFFCURVE",
"564 677 OFFCURVE",
"456 677 CURVE",
"264 677 OFFCURVE",
"88 522 OFFCURVE",
"61 330 CURVE"
);
}
);
width = 742;
}
);
leftKerningGroup = O;
rightKerningGroup = C;
unicode = 0043;
},
{
color = 4;
glyphname = Cacute;
lastChange = "2016-04-09 01:28:03 +0000";
layers = (
{
anchors = (
{
name = bottomC;
position = "{325, 0}";
},
{
name = top;
position = "{417, 660}";
}
);
layerId = "4A17B37A-CBFD-40E5-9E02-2080A0E1F76C";
name = "Regular Italic";
paths = (
{
closed = 1;
nodes = (
"25 143 OFFCURVE",
"156 -9 OFFCURVE",
"341 -9 CURVE",
"446 -9 OFFCURVE",
"547 40 OFFCURVE",
"620 118 CURVE",
"566 168 LINE",
"510 108 OFFCURVE",
"433 70 OFFCURVE",
"352 70 CURVE",
"210 70 OFFCURVE",
"110 187 OFFCURVE",
"130 330 CURVE",
"150 474 OFFCURVE",
"283 590 OFFCURVE",
"425 590 CURVE",
"506 590 OFFCURVE",
"573 553 OFFCURVE",
"612 494 CURVE",
"679 544 LINE",
"628 620 OFFCURVE",
"541 669 OFFCURVE",
"436 669 CURVE",
"251 669 OFFCURVE",
"78 517 OFFCURVE",
"51 331 CURVE"
);
},
{
closed = 1;
nodes = (
"386 743 LINE",
"467 743 LINE",
"549 891 LINE",
"464 891 LINE"
);
}
);
width = 679;
},
{
anchors = (
{
name = bottomC;
position = "{332, 0}";
},
{
name = top;
position = "{429, 660}";
}
);
layerId = "99EB5860-B45A-4B60-BB0B-F826C8F71D42";
leftMetricsKey = "=O";
name = "Bold Italic";
paths = (
{
closed = 1;
nodes = (
"13 138 OFFCURVE",
"145 -15 OFFCURVE",
"334 -15 CURVE",
"464 -15 OFFCURVE",
"587 57 OFFCURVE",
"660 162 CURVE",
"489 264 LINE",
"461 224 OFFCURVE",
"415 197 OFFCURVE",
"364 197 CURVE",
"292 197 OFFCURVE",
"242 257 OFFCURVE",
"252 328 CURVE",
"262 401 OFFCURVE",
"328 459 OFFCURVE",
"400 459 CURVE",
"450 459 OFFCURVE",
"490 433 OFFCURVE",
"507 393 CURVE",
"706 495 LINE",
"662 600 OFFCURVE",
"559 671 OFFCURVE",
"430 671 CURVE",
"241 671 OFFCURVE",
"67 518 OFFCURVE",
"40 328 CURVE"
);
},
{
closed = 1;
nodes = (
"345 709 LINE",
"522 709 LINE",
"612 876 LINE",
"421 876 LINE"
);
}
);
width = 691;
},
{
anchors = (
{
name = bottomC;
position = "{301, 0}";
},
{
name = top;
position = "{397, 660}";
}
);
layerId = "1C7CD022-87C7-4E11-B656-E47B18819458";
name = "Light Italic";
paths = (
{
closed = 1;
nodes = (
"34 138 OFFCURVE",
"166 -17 OFFCURVE",
"359 -17 CURVE",
"467 -17 OFFCURVE",
"570 33 OFFCURVE",
"644 110 CURVE",
"633 121 LINE",
"561 47 OFFCURVE",
"464 0 OFFCURVE",
"361 0 CURVE",
"178 0 OFFCURVE",
"53 147 OFFCURVE",
"78 330 CURVE",
"104 513 OFFCURVE",
"271 660 OFFCURVE",
"454 660 CURVE",
"557 660 OFFCURVE",
"641 613 OFFCURVE",
"692 539 CURVE",
"706 550 LINE",
"654 627 OFFCURVE",
"564 677 OFFCURVE",
"456 677 CURVE",
"264 677 OFFCURVE",
"88 522 OFFCURVE",
"61 330 CURVE"
);
},
{
closed = 1;
nodes = (
"437 743 LINE",
"453 743 LINE",
"549 891 LINE",
"533 891 LINE"
);
}
);
width = 742;
}
);
leftKerningGroup = O;
rightKerningGroup = C;
unicode = 0106;
},
{
color = 4;
glyphname = Ccaron;
lastChange = "2016-04-09 01:28:02 +0000";
layers = (
{
anchors = (
{
name = bottomC;
position = "{325, 0}";
},
{
name = top;
position = "{417, 660}";
}
);
layerId = "4A17B37A-CBFD-40E5-9E02-2080A0E1F76C";
name = "Regular Italic";
paths = (
{
closed = 1;
nodes = (
"25 143 OFFCURVE",
"156 -9 OFFCURVE",
"341 -9 CURVE",
"446 -9 OFFCURVE",
"547 40 OFFCURVE",
"620 118 CURVE",
"566 168 LINE",
"510 108 OFFCURVE",
"433 70 OFFCURVE",
"352 70 CURVE",
"210 70 OFFCURVE",
"110 187 OFFCURVE",
"130 330 CURVE",
"150 474 OFFCURVE",
"283 590 OFFCURVE",
"425 590 CURVE",
"506 590 OFFCURVE",
"573 553 OFFCURVE",
"612 494 CURVE",
"679 544 LINE",
"628 620 OFFCURVE",
"541 669 OFFCURVE",
"436 669 CURVE",
"251 669 OFFCURVE",
"78 517 OFFCURVE",
"51 331 CURVE"
);
},
{
closed = 1;
nodes = (
"552 905 LINE",
"450 790 LINE",
"380 905 LINE",
"307 905 LINE",
"398 738 LINE",
"488 738 LINE",
"625 905 LINE"
);
}
);
width = 679;
},
{
anchors = (
{
name = bottomC;
position = "{332, 0}";
},
{
name = top;
position = "{429, 660}";
}
);
layerId = "99EB5860-B45A-4B60-BB0B-F826C8F71D42";
name = "Bold Italic";
paths = (
{
closed = 1;
nodes = (
"13 138 OFFCURVE",
"145 -15 OFFCURVE",
"334 -15 CURVE",
"464 -15 OFFCURVE",
"587 57 OFFCURVE",
"660 162 CURVE",
"489 264 LINE",
"461 224 OFFCURVE",
"415 197 OFFCURVE",
"364 197 CURVE",
"292 197 OFFCURVE",
"242 257 OFFCURVE",
"252 328 CURVE",
"262 401 OFFCURVE",
"328 459 OFFCURVE",
"400 459 CURVE",
"450 459 OFFCURVE",
"490 433 OFFCURVE",
"507 393 CURVE",
"706 495 LINE",
"662 600 OFFCURVE",
"559 671 OFFCURVE",
"430 671 CURVE",
"241 671 OFFCURVE",
"67 518 OFFCURVE",
"40 328 CURVE"
);
},
{
closed = 1;
nodes = (
"497 876 LINE",
"443 807 LINE",
"409 876 LINE",
"238 876 LINE",
"323 709 LINE",
"537 709 LINE",
"668 876 LINE"
);
}
);
width = 691;
},
{
anchors = (
{
name = bottomC;
position = "{301, 0}";
},
{
name = top;
position = "{397, 660}";
}
);
layerId = "1C7CD022-87C7-4E11-B656-E47B18819458";
name = "Light Italic";
paths = (
{
closed = 1;
nodes = (
"34 138 OFFCURVE",
"166 -17 OFFCURVE",
"359 -17 CURVE",
"467 -17 OFFCURVE",
"570 33 OFFCURVE",
"644 110 CURVE",
"633 121 LINE",
"561 47 OFFCURVE",
"464 0 OFFCURVE",
"361 0 CURVE",
"178 0 OFFCURVE",
"53 147 OFFCURVE",
"78 330 CURVE",
"104 513 OFFCURVE",
"271 660 OFFCURVE",
"454 660 CURVE",
"557 660 OFFCURVE",
"641 613 OFFCURVE",
"692 539 CURVE",
"706 550 LINE",
"654 627 OFFCURVE",
"564 677 OFFCURVE",
"456 677 CURVE",
"264 677 OFFCURVE",
"88 522 OFFCURVE",
"61 330 CURVE"
);
},
{
closed = 1;
nodes = (
"585 885 LINE",
"465 756 LINE",
"381 885 LINE",
"364 885 LINE",
"453 743 LINE",
"473 743 LINE",
"602 885 LINE"
);
}
);
width = 742;
}
);
leftKerningGroup = O;
rightKerningGroup = C;
unicode = 010C;
},
{
color = 4;
glyphname = Ccedilla;
lastChange = "2016-04-09 01:28:02 +0000";
layers = (
{
anchors = (
{
name = bottomC;
position = "{325, 0}";
},
{
name = top;
position = "{417, 660}";
}
);
layerId = "4A17B37A-CBFD-40E5-9E02-2080A0E1F76C";
name = "Regular Italic";
paths = (
{
closed = 1;
nodes = (
"25 143 OFFCURVE",
"156 -9 OFFCURVE",
"341 -9 CURVE",
"446 -9 OFFCURVE",
"547 40 OFFCURVE",
"620 118 CURVE",
"566 168 LINE",
"510 108 OFFCURVE",
"433 70 OFFCURVE",
"352 70 CURVE",
"210 70 OFFCURVE",
"110 187 OFFCURVE",
"130 330 CURVE",
"150 474 OFFCURVE",
"283 590 OFFCURVE",
"425 590 CURVE",
"506 590 OFFCURVE",
"573 553 OFFCURVE",
"612 494 CURVE",
"679 544 LINE",
"628 620 OFFCURVE",
"541 669 OFFCURVE",
"436 669 CURVE",
"251 669 OFFCURVE",
"78 517 OFFCURVE",
"51 331 CURVE"
);
},
{
closed = 1;
nodes = (
"341 -32 OFFCURVE",
"359 -55 OFFCURVE",
"353 -97 CURVE SMOOTH",
"348 -132 OFFCURVE",
"320 -155 OFFCURVE",
"288 -155 CURVE SMOOTH",
"260 -155 OFFCURVE",
"237 -142 OFFCURVE",
"223 -125 CURVE",
"186 -180 LINE",
"210 -205 OFFCURVE",
"244 -215 OFFCURVE",
"291 -215 CURVE SMOOTH",
"365 -215 OFFCURVE",
"414 -164 OFFCURVE",
"422 -108 CURVE SMOOTH",
"429 -54 OFFCURVE",
"395 4 OFFCURVE",
"316 29 CURVE",
"268 3 LINE"
);
}
);
width = 679;
},
{
anchors = (
{
name = bottomC;
position = "{332, 0}";
},
{
name = top;
position = "{429, 660}";
}
);
layerId = "99EB5860-B45A-4B60-BB0B-F826C8F71D42";
name = "Bold Italic";
paths = (
{
closed = 1;
nodes = (
"13 138 OFFCURVE",
"145 -15 OFFCURVE",
"334 -15 CURVE",
"464 -15 OFFCURVE",
"587 57 OFFCURVE",
"660 162 CURVE",
"489 264 LINE",
"461 224 OFFCURVE",
"415 197 OFFCURVE",
"364 197 CURVE",
"292 197 OFFCURVE",
"242 257 OFFCURVE",
"252 328 CURVE",
"262 401 OFFCURVE",
"328 459 OFFCURVE",
"400 459 CURVE",
"450 459 OFFCURVE",
"490 433 OFFCURVE",
"507 393 CURVE",
"706 495 LINE",
"662 600 OFFCURVE",
"559 671 OFFCURVE",
"430 671 CURVE",
"241 671 OFFCURVE",
"67 518 OFFCURVE",
"40 328 CURVE"
);
},
{
closed = 1;
nodes = (
"330 -9 OFFCURVE",
"349 -32 OFFCURVE",
"345 -60 CURVE SMOOTH",
"341 -89 OFFCURVE",
"317 -104 OFFCURVE",
"285 -104 CURVE SMOOTH",
"252 -104 OFFCURVE",
"229 -92 OFFCURVE",
"215 -76 CURVE",
"157 -171 LINE",
"178 -194 OFFCURVE",
"212 -215 OFFCURVE",
"285 -215 CURVE SMOOTH",
"373 -215 OFFCURVE",
"450 -184 OFFCURVE",
"463 -90 CURVE SMOOTH",
"473 -19 OFFCURVE",
"414 34 OFFCURVE",
"286 42 CURVE",
"240 2 LINE"
);
}
);
width = 691;
},
{
anchors = (
{
name = bottomC;
position = "{301, 0}";
},
{
name = top;
position = "{397, 660}";
}
);
layerId = "1C7CD022-87C7-4E11-B656-E47B18819458";
name = "Light Italic";
paths = (
{
closed = 1;
nodes = (
"34 138 OFFCURVE",
"166 -17 OFFCURVE",
"359 -17 CURVE",
"467 -17 OFFCURVE",
"570 33 OFFCURVE",
"644 110 CURVE",
"633 121 LINE",
"561 47 OFFCURVE",
"464 0 OFFCURVE",
"361 0 CURVE",
"178 0 OFFCURVE",
"53 147 OFFCURVE",
"78 330 CURVE",
"104 513 OFFCURVE",
"271 660 OFFCURVE",
"454 660 CURVE",
"557 660 OFFCURVE",
"641 613 OFFCURVE",
"692 539 CURVE",
"706 550 LINE",
"654 627 OFFCURVE",
"564 677 OFFCURVE",
"456 677 CURVE",
"264 677 OFFCURVE",
"88 522 OFFCURVE",
"61 330 CURVE"
);
},
{
closed = 1;
nodes = (
"393 -54 OFFCURVE",
"411 -86 OFFCURVE",
"405 -128 CURVE SMOOTH",
"399 -170 OFFCURVE",
"365 -198 OFFCURVE",
"322 -198 CURVE SMOOTH",
"288 -198 OFFCURVE",
"262 -189 OFFCURVE",
"242 -157 CURVE",
"232 -169 LINE",
"252 -201 OFFCURVE",
"280 -211 OFFCURVE",
"320 -211 CURVE SMOOTH",
"372 -211 OFFCURVE",
"413 -177 OFFCURVE",
"420 -127 CURVE SMOOTH",
"427 -80 OFFCURVE",
"408 -45 OFFCURVE",
"331 -6 CURVE",
"310 -6 LINE"
);
}
);
width = 742;
}
);
leftKerningGroup = O;
rightKerningGroup = C;
unicode = 00C7;
},
{
color = 4;
glyphname = D;
lastChange = "2016-04-09 01:28:02 +0000";
layers = (
{
anchors = (
{
name = center;
position = "{367, 330}";
},
{
name = top;
position = "{373, 660}";
}
);
layerId = "4A17B37A-CBFD-40E5-9E02-2080A0E1F76C";
name = "Regular Italic";
paths = (
{
closed = 1;
nodes = (
"196 660 LINE",
"185 585 LINE",
"397 585 LINE SMOOTH",
"548 585 OFFCURVE",
"624 490 OFFCURVE",
"601 330 CURVE SMOOTH",
"579 170 OFFCURVE",
"476 75 OFFCURVE",
"325 75 CURVE SMOOTH",
"113 75 LINE",
"103 0 LINE",
"307 0 LINE SMOOTH",
"514 0 OFFCURVE",
"655 118 OFFCURVE",
"685 330 CURVE SMOOTH",
"715 542 OFFCURVE",
"607 660 OFFCURVE",
"400 660 CURVE SMOOTH"
);
},
{
closed = 1;
nodes = (
"156 660 LINE",
"63 0 LINE",
"143 0 LINE",
"236 660 LINE"
);
}
);
width = 724;
},
{
anchors = (
{
name = center;
position = "{-18, 14}";
},
{
name = top;
position = "{389, 660}";
}
);
layerId = "99EB5860-B45A-4B60-BB0B-F826C8F71D42";
name = "Bold Italic";
paths = (
{
closed = 1;
nodes = (
"276 660 LINE",
"252 494 LINE",
"375 494 LINE SMOOTH",
"461 494 OFFCURVE",
"484 423 OFFCURVE",
"471 330 CURVE SMOOTH",
"458 237 OFFCURVE",
"415 166 OFFCURVE",
"329 166 CURVE SMOOTH",
"206 166 LINE",
"183 0 LINE",
"339 0 LINE SMOOTH",
"546 0 OFFCURVE",
"669 120 OFFCURVE",
"698 330 CURVE SMOOTH",
"728 540 OFFCURVE",
"639 660 OFFCURVE",
"432 660 CURVE SMOOTH"
);
},
{
closed = 1;
nodes = (
"108 660 LINE",
"15 0 LINE",
"248 0 LINE",
"341 660 LINE"
);
}
);
width = 716;
},
{
anchors = (
{
name = center;
position = "{387, 330}";
},
{
name = top;
position = "{388, 660}";
}
);
layerId = "1C7CD022-87C7-4E11-B656-E47B18819458";
name = "Light Italic";
paths = (
{
closed = 1;
nodes = (
"157 660 LINE",
"155 646 LINE",
"379 646 LINE SMOOTH",
"582 646 OFFCURVE",
"669 511 OFFCURVE",
"645 340 CURVE SMOOTH",
"619 156 OFFCURVE",
"493 14 OFFCURVE",
"290 14 CURVE SMOOTH",
"65 14 LINE",
"63 0 LINE",
"288 0 LINE SMOOTH",
"502 0 OFFCURVE",
"634 147 OFFCURVE",
"661 340 CURVE SMOOTH",
"686 520 OFFCURVE",
"595 660 OFFCURVE",
"381 660 CURVE SMOOTH"
);
},
{
closed = 1;
nodes = (
"148 660 LINE",
"55 0 LINE",
"71 0 LINE",
"164 660 LINE"
);
}
);
width = 693;
}
);
leftKerningGroup = I;
rightKerningGroup = O;
unicode = 0044;
},
{
color = 4;
glyphname = Eth;
lastChange = "2016-04-09 01:28:02 +0000";
layers = (
{
anchors = (
{
name = center;
position = "{383, 330}";
},
{
name = top;
position = "{389, 660}";
}
);
layerId = "4A17B37A-CBFD-40E5-9E02-2080A0E1F76C";
name = "Regular Italic";
paths = (
{
closed = 1;
nodes = (
"32 363 LINE",
"23 303 LINE",
"398 303 LINE",
"407 363 LINE"
);
},
{
closed = 1;
nodes = (
"212 660 LINE",
"201 585 LINE",
"413 585 LINE SMOOTH",
"564 585 OFFCURVE",
"640 490 OFFCURVE",
"617 330 CURVE SMOOTH",
"595 170 OFFCURVE",
"492 75 OFFCURVE",
"341 75 CURVE SMOOTH",
"129 75 LINE",
"119 0 LINE",
"323 0 LINE SMOOTH",
"530 0 OFFCURVE",
"671 118 OFFCURVE",
"701 330 CURVE SMOOTH",
"731 542 OFFCURVE",
"623 660 OFFCURVE",
"416 660 CURVE SMOOTH"
);
},
{
closed = 1;
nodes = (
"172 660 LINE",
"79 0 LINE",
"159 0 LINE",
"252 660 LINE"
);
}
);
width = 717;
},
{
anchors = (
{
name = center;
position = "{10, 14}";
},
{
name = top;
position = "{417, 660}";
}
);
layerId = "99EB5860-B45A-4B60-BB0B-F826C8F71D42";
name = "Bold Italic";
paths = (
{
closed = 1;
nodes = (
"26 403 LINE",
"4 253 LINE",
"397 253 LINE",
"419 403 LINE"
);
},
{
closed = 1;
nodes = (
"304 660 LINE",
"280 494 LINE",
"403 494 LINE SMOOTH",
"489 494 OFFCURVE",
"512 423 OFFCURVE",
"499 330 CURVE SMOOTH",
"486 237 OFFCURVE",
"443 166 OFFCURVE",
"357 166 CURVE SMOOTH",
"234 166 LINE",
"211 0 LINE",
"367 0 LINE SMOOTH",
"574 0 OFFCURVE",
"697 120 OFFCURVE",
"726 330 CURVE SMOOTH",
"756 540 OFFCURVE",
"667 660 OFFCURVE",
"460 660 CURVE SMOOTH"
);
},
{
closed = 1;
nodes = (
"136 660 LINE",
"43 0 LINE",
"276 0 LINE",
"369 660 LINE"
);
}
);
width = 744;
},
{
anchors = (
{
name = center;
position = "{395, 330}";
},
{
name = top;
position = "{396, 660}";
}
);
layerId = "1C7CD022-87C7-4E11-B656-E47B18819458";
name = "Light Italic";
paths = (
{
closed = 1;
nodes = (
"18 341 LINE",
"16 327 LINE",
"341 327 LINE",
"343 341 LINE"
);
},
{
closed = 1;
nodes = (
"165 660 LINE",
"163 646 LINE",
"387 646 LINE SMOOTH",
"590 646 OFFCURVE",
"677 511 OFFCURVE",
"653 340 CURVE SMOOTH",
"627 156 OFFCURVE",
"501 14 OFFCURVE",
"298 14 CURVE SMOOTH",
"73 14 LINE",
"71 0 LINE",
"296 0 LINE SMOOTH",
"510 0 OFFCURVE",
"642 147 OFFCURVE",
"669 340 CURVE SMOOTH",
"694 520 OFFCURVE",
"603 660 OFFCURVE",
"389 660 CURVE SMOOTH"
);
},
{
closed = 1;
nodes = (
"156 660 LINE",
"63 0 LINE",
"79 0 LINE",
"172 660 LINE"
);
}
);
width = 691;
}
);
leftKerningGroup = I;
rightKerningGroup = O;
unicode = 00D0;
},
{
color = 4;
glyphname = Dcaron;
lastChange = "2016-04-09 01:28:03 +0000";
layers = (
{
anchors = (
{
name = center;
position = "{367, 330}";
},
{
name = top;
position = "{373, 660}";
}
);
layerId = "4A17B37A-CBFD-40E5-9E02-2080A0E1F76C";
name = "Regular Italic";
paths = (
{
closed = 1;
nodes = (
"196 660 LINE",
"185 585 LINE",
"397 585 LINE SMOOTH",
"548 585 OFFCURVE",
"624 490 OFFCURVE",
"601 330 CURVE SMOOTH",
"579 170 OFFCURVE",
"476 75 OFFCURVE",
"325 75 CURVE SMOOTH",
"113 75 LINE",
"103 0 LINE",
"307 0 LINE SMOOTH",
"514 0 OFFCURVE",
"655 118 OFFCURVE",
"685 330 CURVE SMOOTH",
"715 542 OFFCURVE",
"607 660 OFFCURVE",
"400 660 CURVE SMOOTH"
);
},
{
closed = 1;
nodes = (
"156 660 LINE",
"63 0 LINE",
"143 0 LINE",
"236 660 LINE"
);
},
{
closed = 1;
nodes = (
"514 905 LINE",
"412 790 LINE",
"342 905 LINE",
"269 905 LINE",
"360 738 LINE",
"450 738 LINE",
"587 905 LINE"
);
}
);
width = 724;
},
{
anchors = (
{
name = center;
position = "{-18, 14}";
},
{
name = top;
position = "{389, 660}";
}
);
layerId = "99EB5860-B45A-4B60-BB0B-F826C8F71D42";
name = "Bold Italic";
paths = (
{
closed = 1;
nodes = (
"276 660 LINE",
"252 494 LINE",
"375 494 LINE SMOOTH",
"461 494 OFFCURVE",
"484 423 OFFCURVE",
"471 330 CURVE SMOOTH",
"458 237 OFFCURVE",
"415 166 OFFCURVE",
"329 166 CURVE SMOOTH",
"206 166 LINE",
"183 0 LINE",
"339 0 LINE SMOOTH",
"546 0 OFFCURVE",
"669 120 OFFCURVE",
"698 330 CURVE SMOOTH",
"728 540 OFFCURVE",
"639 660 OFFCURVE",
"432 660 CURVE SMOOTH"
);
},
{
closed = 1;
nodes = (
"108 660 LINE",
"15 0 LINE",
"248 0 LINE",
"341 660 LINE"
);
},
{
closed = 1;
nodes = (
"457 876 LINE",
"403 807 LINE",
"369 876 LINE",
"198 876 LINE",
"283 709 LINE",
"497 709 LINE",
"628 876 LINE"
);
}
);
width = 716;
},
{
anchors = (
{
name = center;
position = "{387, 330}";
},
{
name = top;
position = "{388, 660}";
}
);
layerId = "1C7CD022-87C7-4E11-B656-E47B18819458";
name = "Light Italic";
paths = (
{
closed = 1;
nodes = (
"157 660 LINE",
"155 646 LINE",
"379 646 LINE SMOOTH",
"582 646 OFFCURVE",
"669 511 OFFCURVE",
"645 340 CURVE SMOOTH",
"619 156 OFFCURVE",
"493 14 OFFCURVE",
"290 14 CURVE SMOOTH",
"65 14 LINE",
"63 0 LINE",
"288 0 LINE SMOOTH",
"502 0 OFFCURVE",
"634 147 OFFCURVE",
"661 340 CURVE SMOOTH",
"686 520 OFFCURVE",
"595 660 OFFCURVE",
"381 660 CURVE SMOOTH"
);
},
{
closed = 1;
nodes = (
"148 660 LINE",
"55 0 LINE",
"71 0 LINE",
"164 660 LINE"
);
},
{
closed = 1;
nodes = (
"535 885 LINE",
"415 756 LINE",
"331 885 LINE",
"314 885 LINE",
"403 743 LINE",
"423 743 LINE",
"552 885 LINE"
);
}
);
width = 693;
}
);
leftKerningGroup = I;
rightKerningGroup = O;
unicode = 010E;
},
{
color = 4;
glyphname = Dcroat;
lastChange = "2016-04-09 01:37:18 +0000";
layers = (
{
anchors = (
{
name = center;
position = "{383, 330}";
},
{
name = top;
position = "{389, 660}";
}
);
layerId = "4A17B37A-CBFD-40E5-9E02-2080A0E1F76C";
name = "Regular Italic";
paths = (
{
closed = 1;
nodes = (
"32 363 LINE",
"23 303 LINE",
"398 303 LINE",
"407 363 LINE"
);
},
{
closed = 1;
nodes = (
"212 660 LINE",
"201 585 LINE",
"413 585 LINE SMOOTH",
"564 585 OFFCURVE",
"640 490 OFFCURVE",
"617 330 CURVE SMOOTH",
"595 170 OFFCURVE",
"492 75 OFFCURVE",
"341 75 CURVE SMOOTH",
"129 75 LINE",
"119 0 LINE",
"323 0 LINE SMOOTH",
"530 0 OFFCURVE",
"671 118 OFFCURVE",
"701 330 CURVE SMOOTH",
"731 542 OFFCURVE",
"623 660 OFFCURVE",
"416 660 CURVE SMOOTH"
);
},
{
closed = 1;
nodes = (
"172 660 LINE",
"79 0 LINE",
"159 0 LINE",
"252 660 LINE"
);
}
);
width = 717;
},
{
associatedMasterId = "99EB5860-B45A-4B60-BB0B-F826C8F71D42";
background = {
components = (
{
name = D;
}
);
paths = (
{
closed = 1;
nodes = (
"10 383 LINE",
"10 323 LINE",
"385 323 LINE",
"385 383 LINE"
);
}
);
};
components = (
{
name = D;
transform = "{1, 0, 0, 1, -5, 0}";
}
);
layerId = "C1DD4913-182C-4664-AAE7-7B3AAF95996E";
name = "[201]";
paths = (
{
closed = 1;
nodes = (
"24 375 LINE",
"10 279 LINE",
"403 279 LINE",
"417 375 LINE"
);
}
);
width = 746;
},
{
anchors = (
{
name = center;
position = "{10, 14}";
},
{
name = top;
position = "{417, 660}";
}
);
layerId = "99EB5860-B45A-4B60-BB0B-F826C8F71D42";
name = "Bold Italic";
paths = (
{
closed = 1;
nodes = (
"26 403 LINE",
"4 253 LINE",
"397 253 LINE",
"419 403 LINE"
);
},
{
closed = 1;
nodes = (
"304 660 LINE",
"280 494 LINE",
"403 494 LINE SMOOTH",
"489 494 OFFCURVE",
"512 423 OFFCURVE",
"499 330 CURVE SMOOTH",
"486 237 OFFCURVE",
"443 166 OFFCURVE",
"357 166 CURVE SMOOTH",
"234 166 LINE",
"211 0 LINE",
"367 0 LINE SMOOTH",
"574 0 OFFCURVE",
"697 120 OFFCURVE",
"726 330 CURVE SMOOTH",
"756 540 OFFCURVE",
"667 660 OFFCURVE",
"460 660 CURVE SMOOTH"
);
},
{
closed = 1;
nodes = (
"136 660 LINE",
"43 0 LINE",
"276 0 LINE",
"369 660 LINE"
);
}
);
width = 744;
},
{
anchors = (
{
name = center;
position = "{395, 330}";
},
{
name = top;
position = "{396, 660}";
}
);
layerId = "1C7CD022-87C7-4E11-B656-E47B18819458";
name = "Light Italic";
paths = (
{
closed = 1;
nodes = (
"18 341 LINE",
"16 327 LINE",
"341 327 LINE",
"343 341 LINE"
);
},
{
closed = 1;
nodes = (
"165 660 LINE",
"163 646 LINE",
"387 646 LINE SMOOTH",
"590 646 OFFCURVE",
"677 511 OFFCURVE",
"653 340 CURVE SMOOTH",
"627 156 OFFCURVE",
"501 14 OFFCURVE",
"298 14 CURVE SMOOTH",
"73 14 LINE",
"71 0 LINE",
"296 0 LINE SMOOTH",
"510 0 OFFCURVE",
"642 147 OFFCURVE",
"669 340 CURVE SMOOTH",
"694 520 OFFCURVE",
"603 660 OFFCURVE",
"389 660 CURVE SMOOTH"
);
},
{
closed = 1;
nodes = (
"156 660 LINE",
"63 0 LINE",
"79 0 LINE",
"172 660 LINE"
);
}
);
width = 691;
}
);
leftKerningGroup = I;
rightKerningGroup = O;
unicode = 0110;
},
{
color = 4;
glyphname = E;
lastChange = "2016-04-09 01:28:01 +0000";
layers = (
{
anchors = (
{
name = bottom;
position = "{294, 0}";
},
{
name = ogonek;
position = "{541, 0}";
},
{
name = top;
position = "{387, 660}";
}
);
layerId = "4A17B37A-CBFD-40E5-9E02-2080A0E1F76C";
name = "Regular Italic";
paths = (
{
closed = 1;
nodes = (
"143 0 LINE",
"236 660 LINE",
"156 660 LINE",
"63 0 LINE"
);
},
{
closed = 1;
nodes = (
"541 0 LINE",
"551 75 LINE",
"115 75 LINE",
"105 0 LINE"
);
},
{
closed = 1;
nodes = (
"518 287 LINE",
"529 365 LINE",
"156 365 LINE",
"145 287 LINE"
);
},
{
closed = 1;
nodes = (
"608 585 LINE",
"619 660 LINE",
"198 660 LINE",
"187 585 LINE"
);
}
);
width = 618;
},
{
anchors = (
{
name = bottom;
position = "{294, 0}";
},
{
name = ogonek;
position = "{576, 0}";
},
{
name = top;
position = "{371, 660}";
}
);
layerId = "99EB5860-B45A-4B60-BB0B-F826C8F71D42";
leftMetricsKey = "=I";
name = "Bold Italic";
paths = (
{
closed = 1;
nodes = (
"248 0 LINE",
"341 660 LINE",
"108 660 LINE",
"15 0 LINE"
);
},
{
closed = 1;
nodes = (
"575 0 LINE",
"599 171 LINE",
"151 171 LINE",
"127 0 LINE"
);
},
{
closed = 1;
nodes = (
"557 249 LINE",
"579 407 LINE",
"184 407 LINE",
"162 249 LINE"
);
},
{
closed = 1;
nodes = (
"632 489 LINE",
"656 660 LINE",
"220 660 LINE",
"196 489 LINE"
);
}
);
width = 655;
},
{
anchors = (
{
name = bottom;
position = "{263, 0}";
},
{
name = ogonek;
position = "{499, 0}";
},
{
name = top;
position = "{356, 660}";
}
);
layerId = "1C7CD022-87C7-4E11-B656-E47B18819458";
name = "Light Italic";
paths = (
{
closed = 1;
nodes = (
"61 0 LINE",
"154 660 LINE",
"138 660 LINE",
"45 0 LINE"
);
},
{
closed = 1;
nodes = (
"499 0 LINE",
"501 14 LINE",
"53 14 LINE",
"51 0 LINE"
);
},
{
closed = 1;
nodes = (
"485 310 LINE",
"487 324 LINE",
"96 324 LINE",
"94 310 LINE"
);
},
{
closed = 1;
nodes = (
"573 646 LINE",
"575 660 LINE",
"144 660 LINE",
"142 646 LINE"
);
}
);
width = 584;
}
);
leftKerningGroup = I;
rightKerningGroup = E;
unicode = 0045;
},
{
color = 4;
glyphname = Eacute;
lastChange = "2016-04-09 01:28:02 +0000";
layers = (
{
anchors = (
{
name = bottom;
position = "{294, 0}";
},
{
name = ogonek;
position = "{541, 0}";
},
{
name = top;
position = "{387, 660}";
}
);
layerId = "4A17B37A-CBFD-40E5-9E02-2080A0E1F76C";
name = "Regular Italic";
paths = (
{
closed = 1;
nodes = (
"143 0 LINE",
"236 660 LINE",
"156 660 LINE",
"63 0 LINE"
);
},
{
closed = 1;
nodes = (
"541 0 LINE",
"551 75 LINE",
"115 75 LINE",
"105 0 LINE"
);
},
{
closed = 1;
nodes = (
"518 287 LINE",
"529 365 LINE",
"156 365 LINE",
"145 287 LINE"
);
},
{
closed = 1;
nodes = (
"608 585 LINE",
"619 660 LINE",
"198 660 LINE",
"187 585 LINE"
);
},
{
closed = 1;
nodes = (
"356 743 LINE",
"437 743 LINE",
"519 891 LINE",
"434 891 LINE"
);
}
);
width = 618;
},
{
anchors = (
{
name = bottom;
position = "{294, 0}";
},
{
name = ogonek;
position = "{576, 0}";
},
{
name = top;
position = "{371, 660}";
}
);
layerId = "99EB5860-B45A-4B60-BB0B-F826C8F71D42";
name = "Bold Italic";
paths = (
{
closed = 1;
nodes = (
"248 0 LINE",
"341 660 LINE",
"108 660 LINE",
"15 0 LINE"
);
},
{
closed = 1;
nodes = (
"575 0 LINE",
"599 171 LINE",
"151 171 LINE",
"127 0 LINE"
);
},
{
closed = 1;
nodes = (
"557 249 LINE",
"579 407 LINE",
"184 407 LINE",
"162 249 LINE"
);
},
{
closed = 1;
nodes = (
"632 489 LINE",
"656 660 LINE",
"220 660 LINE",
"196 489 LINE"
);
},
{
closed = 1;
nodes = (
"293 709 LINE",
"470 709 LINE",
"560 876 LINE",
"369 876 LINE"
);
}
);
width = 655;
},
{
anchors = (
{
name = bottom;
position = "{263, 0}";
},
{
name = ogonek;
position = "{499, 0}";
},
{
name = top;
position = "{356, 660}";
}
);
layerId = "1C7CD022-87C7-4E11-B656-E47B18819458";
name = "Light Italic";
paths = (
{
closed = 1;
nodes = (
"61 0 LINE",
"154 660 LINE",
"138 660 LINE",
"45 0 LINE"
);
},
{
closed = 1;
nodes = (
"499 0 LINE",
"501 14 LINE",
"53 14 LINE",
"51 0 LINE"
);
},
{
closed = 1;
nodes = (
"485 310 LINE",
"487 324 LINE",
"96 324 LINE",
"94 310 LINE"
);
},
{
closed = 1;
nodes = (
"573 646 LINE",
"575 660 LINE",
"144 660 LINE",
"142 646 LINE"
);
},
{
closed = 1;
nodes = (
"375 743 LINE",
"391 743 LINE",
"487 891 LINE",
"471 891 LINE"
);
}
);
width = 584;
}
);
leftKerningGroup = I;
rightKerningGroup = E;
unicode = 00C9;
},
{
color = 4;
glyphname = Ecaron;
lastChange = "2016-04-09 01:28:01 +0000";
layers = (
{
anchors = (
{
name = bottom;
position = "{294, 0}";
},
{
name = ogonek;
position = "{541, 0}";
},
{
name = top;
position = "{387, 660}";
}
);
layerId = "4A17B37A-CBFD-40E5-9E02-2080A0E1F76C";
name = "Regular Italic";
paths = (
{
closed = 1;
nodes = (
"143 0 LINE",
"236 660 LINE",
"156 660 LINE",
"63 0 LINE"
);
},
{
closed = 1;
nodes = (
"541 0 LINE",
"551 75 LINE",
"115 75 LINE",
"105 0 LINE"
);
},
{
closed = 1;
nodes = (
"518 287 LINE",
"529 365 LINE",
"156 365 LINE",
"145 287 LINE"
);
},
{
closed = 1;
nodes = (
"608 585 LINE",
"619 660 LINE",
"198 660 LINE",
"187 585 LINE"
);
},
{
closed = 1;
nodes = (
"507 905 LINE",
"405 790 LINE",
"335 905 LINE",
"262 905 LINE",
"353 738 LINE",
"443 738 LINE",
"580 905 LINE"
);
}
);
width = 618;
},
{
anchors = (
{
name = bottom;
position = "{294, 0}";
},
{
name = ogonek;
position = "{576, 0}";
},
{
name = top;
position = "{371, 660}";
}
);
layerId = "99EB5860-B45A-4B60-BB0B-F826C8F71D42";
name = "Bold Italic";
paths = (
{
closed = 1;
nodes = (
"248 0 LINE",
"341 660 LINE",
"108 660 LINE",
"15 0 LINE"
);
},
{
closed = 1;
nodes = (
"575 0 LINE",
"599 171 LINE",
"151 171 LINE",
"127 0 LINE"
);
},
{
closed = 1;
nodes = (
"557 249 LINE",
"579 407 LINE",
"184 407 LINE",
"162 249 LINE"
);
},
{
closed = 1;
nodes = (
"632 489 LINE",
"656 660 LINE",
"220 660 LINE",
"196 489 LINE"
);
},
{
closed = 1;
nodes = (
"451 876 LINE",
"397 807 LINE",
"363 876 LINE",
"192 876 LINE",
"277 709 LINE",
"491 709 LINE",
"622 876 LINE"
);
}
);
width = 655;
},
{
anchors = (
{
name = bottom;
position = "{263, 0}";
},
{
name = ogonek;
position = "{499, 0}";
},
{
name = top;
position = "{356, 660}";
}
);
layerId = "1C7CD022-87C7-4E11-B656-E47B18819458";
name = "Light Italic";
paths = (
{
closed = 1;
nodes = (
"61 0 LINE",
"154 660 LINE",
"138 660 LINE",
"45 0 LINE"
);
},
{
closed = 1;
nodes = (
"499 0 LINE",
"501 14 LINE",
"53 14 LINE",
"51 0 LINE"
);
},
{
closed = 1;
nodes = (
"485 310 LINE",
"487 324 LINE",
"96 324 LINE",
"94 310 LINE"
);
},
{
closed = 1;
nodes = (
"573 646 LINE",
"575 660 LINE",
"144 660 LINE",
"142 646 LINE"
);
},
{
closed = 1;
nodes = (
"489 885 LINE",
"369 756 LINE",
"285 885 LINE",
"268 885 LINE",
"357 743 LINE",
"377 743 LINE",
"506 885 LINE"
);
}
);
width = 584;
}
);
leftKerningGroup = I;
rightKerningGroup = E;
unicode = 011A;
},
{
color = 4;
glyphname = Ecircumflex;
lastChange = "2016-04-09 01:28:01 +0000";
layers = (
{
anchors = (
{
name = bottom;
position = "{294, 0}";
},
{
name = ogonek;
position = "{541, 0}";
},
{
name = top;
position = "{387, 660}";
}
);
layerId = "4A17B37A-CBFD-40E5-9E02-2080A0E1F76C";
name = "Regular Italic";
paths = (
{
closed = 1;
nodes = (
"143 0 LINE",
"236 660 LINE",
"156 660 LINE",
"63 0 LINE"
);
},
{
closed = 1;
nodes = (
"541 0 LINE",
"551 75 LINE",
"115 75 LINE",
"105 0 LINE"
);
},
{
closed = 1;
nodes = (
"518 287 LINE",
"529 365 LINE",
"156 365 LINE",
"145 287 LINE"
);
},
{
closed = 1;
nodes = (
"608 585 LINE",
"619 660 LINE",
"198 660 LINE",
"187 585 LINE"
);
},
{
closed = 1;
nodes = (
"466 903 LINE",
"376 903 LINE",
"238 736 LINE",
"311 736 LINE",
"413 851 LINE",
"483 736 LINE",
"556 736 LINE"
);
}
);
width = 618;
},
{
anchors = (
{
name = bottom;
position = "{294, 0}";
},
{
name = ogonek;
position = "{576, 0}";
},
{
name = top;
position = "{371, 660}";
}
);
layerId = "99EB5860-B45A-4B60-BB0B-F826C8F71D42";
name = "Bold Italic";
paths = (
{
closed = 1;
nodes = (
"248 0 LINE",
"341 660 LINE",
"108 660 LINE",
"15 0 LINE"
);
},
{
closed = 1;
nodes = (
"575 0 LINE",
"599 171 LINE",
"151 171 LINE",
"127 0 LINE"
);
},
{
closed = 1;
nodes = (
"557 249 LINE",
"579 407 LINE",
"184 407 LINE",
"162 249 LINE"
);
},
{
closed = 1;
nodes = (
"632 489 LINE",
"656 660 LINE",
"220 660 LINE",
"196 489 LINE"
);
},
{
closed = 1;
nodes = (
"508 876 LINE",
"294 876 LINE",
"163 709 LINE",
"334 709 LINE",
"387 778 LINE",
"422 709 LINE",
"593 709 LINE"
);
}
);
width = 655;
},
{
anchors = (
{
name = bottom;
position = "{263, 0}";
},
{
name = ogonek;
position = "{499, 0}";
},
{
name = top;
position = "{356, 660}";
}
);
layerId = "1C7CD022-87C7-4E11-B656-E47B18819458";
name = "Light Italic";
paths = (
{
closed = 1;
nodes = (
"61 0 LINE",
"154 660 LINE",
"138 660 LINE",
"45 0 LINE"
);
},
{
closed = 1;
nodes = (
"499 0 LINE",
"501 14 LINE",
"53 14 LINE",
"51 0 LINE"
);
},
{
closed = 1;
nodes = (
"485 310 LINE",
"487 324 LINE",
"96 324 LINE",
"94 310 LINE"
);
},
{
closed = 1;
nodes = (
"573 646 LINE",
"575 660 LINE",
"144 660 LINE",
"142 646 LINE"
);
},
{
closed = 1;
nodes = (
"397 885 LINE",
"377 885 LINE",
"248 743 LINE",
"265 743 LINE",
"385 872 LINE",
"469 743 LINE",
"486 743 LINE"
);
}
);
width = 584;
}
);
leftKerningGroup = I;
rightKerningGroup = E;
unicode = 00CA;
},
{
color = 4;
glyphname = Edieresis;
lastChange = "2016-04-09 01:28:01 +0000";
layers = (
{
anchors = (
{
name = bottom;
position = "{294, 0}";
},
{
name = ogonek;
position = "{541, 0}";
},
{
name = top;
position = "{387, 660}";
}
);
layerId = "4A17B37A-CBFD-40E5-9E02-2080A0E1F76C";
name = "Regular Italic";
paths = (
{
closed = 1;
nodes = (
"143 0 LINE",
"236 660 LINE",
"156 660 LINE",
"63 0 LINE"
);
},
{
closed = 1;
nodes = (
"541 0 LINE",
"551 75 LINE",
"115 75 LINE",
"105 0 LINE"
);
},
{
closed = 1;
nodes = (
"518 287 LINE",
"529 365 LINE",
"156 365 LINE",
"145 287 LINE"
);
},
{
closed = 1;
nodes = (
"608 585 LINE",
"619 660 LINE",
"198 660 LINE",
"187 585 LINE"
);
},
{
closed = 1;
nodes = (
"526 742 OFFCURVE",
"556 768 OFFCURVE",
"560 799 CURVE SMOOTH",
"565 830 OFFCURVE",
"542 856 OFFCURVE",
"511 856 CURVE SMOOTH",
"479 856 OFFCURVE",
"451 830 OFFCURVE",
"446 799 CURVE SMOOTH",
"442 768 OFFCURVE",
"463 742 OFFCURVE",
"495 742 CURVE SMOOTH"
);
},
{
closed = 1;
nodes = (
"332 742 OFFCURVE",
"362 768 OFFCURVE",
"366 799 CURVE SMOOTH",
"371 830 OFFCURVE",
"348 856 OFFCURVE",
"317 856 CURVE SMOOTH",
"285 856 OFFCURVE",
"257 830 OFFCURVE",
"252 799 CURVE SMOOTH",
"248 768 OFFCURVE",
"269 742 OFFCURVE",
"301 742 CURVE SMOOTH"
);
}
);
width = 618;
},
{
anchors = (
{
name = bottom;
position = "{294, 0}";
},
{
name = ogonek;
position = "{576, 0}";
},
{
name = top;
position = "{371, 660}";
}
);
layerId = "99EB5860-B45A-4B60-BB0B-F826C8F71D42";
name = "Bold Italic";
paths = (
{
closed = 1;
nodes = (
"248 0 LINE",
"341 660 LINE",
"108 660 LINE",
"15 0 LINE"
);
},
{
closed = 1;
nodes = (
"575 0 LINE",
"599 171 LINE",
"151 171 LINE",
"127 0 LINE"
);
},
{
closed = 1;
nodes = (
"557 249 LINE",
"579 407 LINE",
"184 407 LINE",
"162 249 LINE"
);
},
{
closed = 1;
nodes = (
"632 489 LINE",
"656 660 LINE",
"220 660 LINE",
"196 489 LINE"
);
},
{
closed = 1;
nodes = (
"550 697 OFFCURVE",
"602 743 OFFCURVE",
"610 799 CURVE SMOOTH",
"618 856 OFFCURVE",
"579 902 OFFCURVE",
"522 902 CURVE SMOOTH",
"466 902 OFFCURVE",
"413 856 OFFCURVE",
"405 799 CURVE SMOOTH",
"397 743 OFFCURVE",
"437 697 OFFCURVE",
"493 697 CURVE SMOOTH"
);
},
{
closed = 1;
nodes = (
"315 697 OFFCURVE",
"367 743 OFFCURVE",
"375 799 CURVE SMOOTH",
"383 856 OFFCURVE",
"344 902 OFFCURVE",
"287 902 CURVE SMOOTH",
"231 902 OFFCURVE",
"178 856 OFFCURVE",
"170 799 CURVE SMOOTH",
"162 743 OFFCURVE",
"202 697 OFFCURVE",
"258 697 CURVE SMOOTH"
);
}
);
width = 655;
},
{
anchors = (
{
name = bottom;
position = "{263, 0}";
},
{
name = ogonek;
position = "{499, 0}";
},
{
name = top;
position = "{356, 660}";
}
);
layerId = "1C7CD022-87C7-4E11-B656-E47B18819458";
name = "Light Italic";
paths = (
{
closed = 1;
nodes = (
"61 0 LINE",
"154 660 LINE",
"138 660 LINE",
"45 0 LINE"
);
},
{
closed = 1;
nodes = (
"499 0 LINE",
"501 14 LINE",
"53 14 LINE",
"51 0 LINE"
);
},
{
closed = 1;
nodes = (
"485 310 LINE",
"487 324 LINE",
"96 324 LINE",
"94 310 LINE"
);
},
{
closed = 1;
nodes = (
"573 646 LINE",
"575 660 LINE",
"144 660 LINE",
"142 646 LINE"
);
},
{
closed = 1;
nodes = (
"477 758 OFFCURVE",
"489 767 OFFCURVE",
"490 780 CURVE SMOOTH",
"492 792 OFFCURVE",
"483 801 OFFCURVE",
"472 801 CURVE SMOOTH",
"459 801 OFFCURVE",
"448 792 OFFCURVE",
"446 780 CURVE SMOOTH",
"445 767 OFFCURVE",
"453 758 OFFCURVE",
"466 758 CURVE SMOOTH"
);
},
{
closed = 1;
nodes = (
"293 758 OFFCURVE",
"305 767 OFFCURVE",
"306 780 CURVE SMOOTH",
"308 792 OFFCURVE",
"299 801 OFFCURVE",
"288 801 CURVE SMOOTH",
"275 801 OFFCURVE",
"264 792 OFFCURVE",
"262 780 CURVE SMOOTH",
"261 767 OFFCURVE",
"269 758 OFFCURVE",
"282 758 CURVE SMOOTH"
);
}
);
width = 584;
}
);
leftKerningGroup = I;
rightKerningGroup = E;
unicode = 00CB;
},
{
color = 4;
glyphname = Edotaccent;
lastChange = "2016-04-09 01:28:01 +0000";
layers = (
{
anchors = (
{
name = bottom;
position = "{294, 0}";
},
{
name = ogonek;
position = "{541, 0}";
},
{
name = top;
position = "{387, 660}";
}
);
layerId = "4A17B37A-CBFD-40E5-9E02-2080A0E1F76C";
name = "Regular Italic";
paths = (
{
closed = 1;
nodes = (
"143 0 LINE",
"236 660 LINE",
"156 660 LINE",
"63 0 LINE"
);
},
{
closed = 1;
nodes = (
"541 0 LINE",
"551 75 LINE",
"115 75 LINE",
"105 0 LINE"
);
},
{
closed = 1;
nodes = (
"518 287 LINE",
"529 365 LINE",
"156 365 LINE",
"145 287 LINE"
);
},
{
closed = 1;
nodes = (
"608 585 LINE",
"619 660 LINE",
"198 660 LINE",
"187 585 LINE"
);
},
{
closed = 1;
nodes = (
"433 756 OFFCURVE",
"464 783 OFFCURVE",
"469 816 CURVE SMOOTH",
"473 848 OFFCURVE",
"450 875 OFFCURVE",
"418 875 CURVE SMOOTH",
"385 875 OFFCURVE",
"354 848 OFFCURVE",
"350 816 CURVE SMOOTH",
"345 783 OFFCURVE",
"368 756 OFFCURVE",
"401 756 CURVE SMOOTH"
);
}
);
width = 618;
},
{
anchors = (
{
name = bottom;
position = "{294, 0}";
},
{
name = ogonek;
position = "{576, 0}";
},
{
name = top;
position = "{371, 660}";
}
);
layerId = "99EB5860-B45A-4B60-BB0B-F826C8F71D42";
name = "Bold Italic";
paths = (
{
closed = 1;
nodes = (
"248 0 LINE",
"341 660 LINE",
"108 660 LINE",
"15 0 LINE"
);
},
{
closed = 1;
nodes = (
"575 0 LINE",
"599 171 LINE",
"151 171 LINE",
"127 0 LINE"
);
},
{
closed = 1;
nodes = (
"557 249 LINE",
"579 407 LINE",
"184 407 LINE",
"162 249 LINE"
);
},
{
closed = 1;
nodes = (
"632 489 LINE",
"656 660 LINE",
"220 660 LINE",
"196 489 LINE"
);
},
{
closed = 1;
nodes = (
"440 697 OFFCURVE",
"498 748 OFFCURVE",
"507 811 CURVE SMOOTH",
"516 874 OFFCURVE",
"472 925 OFFCURVE",
"409 925 CURVE SMOOTH",
"346 925 OFFCURVE",
"288 874 OFFCURVE",
"279 811 CURVE SMOOTH",
"270 748 OFFCURVE",
"314 697 OFFCURVE",
"377 697 CURVE SMOOTH"
);
}
);
width = 655;
},
{
anchors = (
{
name = bottom;
position = "{263, 0}";
},
{
name = ogonek;
position = "{499, 0}";
},
{
name = top;
position = "{356, 660}";
}
);
layerId = "1C7CD022-87C7-4E11-B656-E47B18819458";
name = "Light Italic";
paths = (
{
closed = 1;
nodes = (
"61 0 LINE",
"154 660 LINE",
"138 660 LINE",
"45 0 LINE"
);
},
{
closed = 1;
nodes = (
"499 0 LINE",
"501 14 LINE",
"53 14 LINE",
"51 0 LINE"
);
},
{
closed = 1;
nodes = (
"485 310 LINE",
"487 324 LINE",
"96 324 LINE",
"94 310 LINE"
);
},
{
closed = 1;
nodes = (
"573 646 LINE",
"575 660 LINE",
"144 660 LINE",
"142 646 LINE"
);
},
{
closed = 1;
nodes = (
"381 758 OFFCURVE",
"393 767 OFFCURVE",
"394 780 CURVE SMOOTH",
"396 792 OFFCURVE",
"387 801 OFFCURVE",
"376 801 CURVE SMOOTH",
"363 801 OFFCURVE",
"352 792 OFFCURVE",
"350 780 CURVE SMOOTH",
"349 767 OFFCURVE",
"357 758 OFFCURVE",
"370 758 CURVE SMOOTH"
);
}
);
width = 584;
}
);
leftKerningGroup = I;
rightKerningGroup = E;
unicode = 0116;
},
{
color = 4;
glyphname = Egrave;
lastChange = "2016-04-09 01:28:02 +0000";
layers = (
{
anchors = (
{
name = bottom;
position = "{294, 0}";
},
{
name = ogonek;
position = "{541, 0}";
},
{
name = top;
position = "{387, 660}";
}
);
layerId = "4A17B37A-CBFD-40E5-9E02-2080A0E1F76C";
name = "Regular Italic";
paths = (
{
closed = 1;
nodes = (
"143 0 LINE",
"236 660 LINE",
"156 660 LINE",
"63 0 LINE"
);
},
{
closed = 1;
nodes = (
"541 0 LINE",
"551 75 LINE",
"115 75 LINE",
"105 0 LINE"
);
},
{
closed = 1;
nodes = (
"518 287 LINE",
"529 365 LINE",
"156 365 LINE",
"145 287 LINE"
);
},
{
closed = 1;
nodes = (
"608 585 LINE",
"619 660 LINE",
"198 660 LINE",
"187 585 LINE"
);
},
{
closed = 1;
nodes = (
"325 891 LINE",
"365 743 LINE",
"446 743 LINE",
"410 891 LINE"
);
}
);
width = 618;
},
{
anchors = (
{
name = bottom;
position = "{294, 0}";
},
{
name = ogonek;
position = "{576, 0}";
},
{
name = top;
position = "{371, 660}";
}
);
layerId = "99EB5860-B45A-4B60-BB0B-F826C8F71D42";
name = "Bold Italic";
paths = (
{
closed = 1;
nodes = (
"248 0 LINE",
"341 660 LINE",
"108 660 LINE",
"15 0 LINE"
);
},
{
closed = 1;
nodes = (
"575 0 LINE",
"599 171 LINE",
"151 171 LINE",
"127 0 LINE"
);
},
{
closed = 1;
nodes = (
"557 249 LINE",
"579 407 LINE",
"184 407 LINE",
"162 249 LINE"
);
},
{
closed = 1;
nodes = (
"632 489 LINE",
"656 660 LINE",
"220 660 LINE",
"196 489 LINE"
);
},
{
closed = 1;
nodes = (
"258 876 LINE",
"302 709 LINE",
"479 709 LINE",
"449 876 LINE"
);
}
);
width = 655;
},
{
anchors = (
{
name = bottom;
position = "{263, 0}";
},
{
name = ogonek;
position = "{499, 0}";
},
{
name = top;
position = "{356, 660}";
}
);
layerId = "1C7CD022-87C7-4E11-B656-E47B18819458";
name = "Light Italic";
paths = (
{
closed = 1;
nodes = (
"61 0 LINE",
"154 660 LINE",
"138 660 LINE",
"45 0 LINE"
);
},
{
closed = 1;
nodes = (
"499 0 LINE",
"501 14 LINE",
"53 14 LINE",
"51 0 LINE"
);
},
{
closed = 1;
nodes = (
"485 310 LINE",
"487 324 LINE",
"96 324 LINE",
"94 310 LINE"
);
},
{
closed = 1;
nodes = (
"573 646 LINE",
"575 660 LINE",
"144 660 LINE",
"142 646 LINE"
);
},
{
closed = 1;
nodes = (
"334 891 LINE",
"388 743 LINE",
"404 743 LINE",
"350 891 LINE"
);
}
);
width = 584;
}
);
leftKerningGroup = I;
rightKerningGroup = E;
unicode = 00C8;
},
{
color = 4;
glyphname = Emacron;
lastChange = "2016-04-09 01:28:01 +0000";
layers = (
{
anchors = (
{
name = bottom;
position = "{294, 0}";
},
{
name = ogonek;
position = "{541, 0}";
},
{
name = top;
position = "{387, 660}";
}
);
layerId = "4A17B37A-CBFD-40E5-9E02-2080A0E1F76C";
name = "Regular Italic";
paths = (
{
closed = 1;
nodes = (
"143 0 LINE",
"236 660 LINE",
"156 660 LINE",
"63 0 LINE"
);
},
{
closed = 1;
nodes = (
"541 0 LINE",
"551 75 LINE",
"115 75 LINE",
"105 0 LINE"
);
},
{
closed = 1;
nodes = (
"518 287 LINE",
"529 365 LINE",
"156 365 LINE",
"145 287 LINE"
);
},
{
closed = 1;
nodes = (
"608 585 LINE",
"619 660 LINE",
"198 660 LINE",
"187 585 LINE"
);
},
{
closed = 1;
nodes = (
"236 823 LINE",
"226 756 LINE",
"574 756 LINE",
"584 823 LINE"
);
}
);
width = 618;
},
{
anchors = (
{
name = bottom;
position = "{294, 0}";
},
{
name = ogonek;
position = "{576, 0}";
},
{
name = top;
position = "{371, 660}";
}
);
layerId = "99EB5860-B45A-4B60-BB0B-F826C8F71D42";
name = "Bold Italic";
paths = (
{
closed = 1;
nodes = (
"248 0 LINE",
"341 660 LINE",
"108 660 LINE",
"15 0 LINE"
);
},
{
closed = 1;
nodes = (
"575 0 LINE",
"599 171 LINE",
"151 171 LINE",
"127 0 LINE"
);
},
{
closed = 1;
nodes = (
"557 249 LINE",
"579 407 LINE",
"184 407 LINE",
"162 249 LINE"
);
},
{
closed = 1;
nodes = (
"632 489 LINE",
"656 660 LINE",
"220 660 LINE",
"196 489 LINE"
);
},
{
closed = 1;
nodes = (
"202 841 LINE",
"184 711 LINE",
"572 711 LINE",
"590 841 LINE"
);
}
);
width = 655;
},
{
anchors = (
{
name = bottom;
position = "{263, 0}";
},
{
name = ogonek;
position = "{499, 0}";
},
{
name = top;
position = "{356, 660}";
}
);
layerId = "1C7CD022-87C7-4E11-B656-E47B18819458";
name = "Light Italic";
paths = (
{
closed = 1;
nodes = (
"61 0 LINE",
"154 660 LINE",
"138 660 LINE",
"45 0 LINE"
);
},
{
closed = 1;
nodes = (
"499 0 LINE",
"501 14 LINE",
"53 14 LINE",
"51 0 LINE"
);
},
{
closed = 1;
nodes = (
"485 310 LINE",
"487 324 LINE",
"96 324 LINE",
"94 310 LINE"
);
},
{
closed = 1;
nodes = (
"573 646 LINE",
"575 660 LINE",
"144 660 LINE",
"142 646 LINE"
);
},
{
closed = 1;
nodes = (
"228 779 LINE",
"226 765 LINE",
"514 765 LINE",
"516 779 LINE"
);
}
);
width = 584;
}
);
leftKerningGroup = I;
rightKerningGroup = E;
unicode = 0112;
},
{
color = 4;
glyphname = Eogonek;
lastChange = "2016-04-09 01:28:01 +0000";
layers = (
{
anchors = (
{
name = bottom;
position = "{294, 0}";
},
{
name = ogonek;
position = "{541, 0}";
},
{
name = top;
position = "{387, 660}";
}
);
layerId = "4A17B37A-CBFD-40E5-9E02-2080A0E1F76C";
name = "Regular Italic";
paths = (
{
closed = 1;
nodes = (
"143 0 LINE",
"236 660 LINE",
"156 660 LINE",
"63 0 LINE"
);
},
{
closed = 1;
nodes = (
"541 0 LINE",
"551 75 LINE",
"115 75 LINE",
"105 0 LINE"
);
},
{
closed = 1;
nodes = (
"518 287 LINE",
"529 365 LINE",
"156 365 LINE",
"145 287 LINE"
);
},
{
closed = 1;
nodes = (
"608 585 LINE",
"619 660 LINE",
"198 660 LINE",
"187 585 LINE"
);
},
{
closed = 1;
nodes = (
"510 22 LINE",
"405 -3 OFFCURVE",
"346 -41 OFFCURVE",
"335 -117 CURVE SMOOTH",
"327 -177 OFFCURVE",
"369 -215 OFFCURVE",
"441 -215 CURVE SMOOTH",
"470 -215 OFFCURVE",
"504 -209 OFFCURVE",
"525 -196 CURVE",
"516 -145 LINE",
"499 -156 OFFCURVE",
"476 -158 OFFCURVE",
"459 -158 CURVE SMOOTH",
"420 -158 OFFCURVE",
"397 -139 OFFCURVE",
"402 -106 CURVE SMOOTH",
"407 -68 OFFCURVE",
"435 -34 OFFCURVE",
"541 0 CURVE"
);
}
);
width = 618;
},
{
anchors = (
{
name = bottom;
position = "{294, 0}";
},
{
name = ogonek;
position = "{576, 0}";
},
{
name = top;
position = "{371, 660}";
}
);
layerId = "99EB5860-B45A-4B60-BB0B-F826C8F71D42";
leftMetricsKey = "=I";
name = "Bold Italic";
paths = (
{
closed = 1;
nodes = (
"248 0 LINE",
"341 660 LINE",
"108 660 LINE",
"15 0 LINE"
);
},
{
closed = 1;
nodes = (
"575 0 LINE",
"599 171 LINE",
"151 171 LINE",
"127 0 LINE"
);
},
{
closed = 1;
nodes = (
"557 249 LINE",
"579 407 LINE",
"184 407 LINE",
"162 249 LINE"
);
},
{
closed = 1;
nodes = (
"632 489 LINE",
"656 660 LINE",
"220 660 LINE",
"196 489 LINE"
);
},
{
closed = 1;
nodes = (
"528 32 LINE",
"402 26 OFFCURVE",
"306 -17 OFFCURVE",
"295 -96 CURVE SMOOTH",
"284 -180 OFFCURVE",
"348 -215 OFFCURVE",
"431 -215 CURVE SMOOTH",
"481 -215 OFFCURVE",
"517 -209 OFFCURVE",
"552 -189 CURVE",
"540 -86 LINE",
"529 -92 OFFCURVE",
"514 -94 OFFCURVE",
"499 -94 CURVE SMOOTH",
"468 -94 OFFCURVE",
"452 -80 OFFCURVE",
"455 -56 CURVE SMOOTH",
"459 -25 OFFCURVE",
"490 -5 OFFCURVE",
"576 0 CURVE"
);
}
);
width = 655;
},
{
anchors = (
{
name = bottom;
position = "{263, 0}";
},
{
name = ogonek;
position = "{499, 0}";
},
{
name = top;
position = "{356, 660}";
}
);
layerId = "1C7CD022-87C7-4E11-B656-E47B18819458";
name = "Light Italic";
paths = (
{
closed = 1;
nodes = (
"61 0 LINE",
"154 660 LINE",
"138 660 LINE",
"45 0 LINE"
);
},
{
closed = 1;
nodes = (
"499 0 LINE",
"501 14 LINE",
"53 14 LINE",
"51 0 LINE"
);
},
{
closed = 1;
nodes = (
"485 310 LINE",
"487 324 LINE",
"96 324 LINE",
"94 310 LINE"
);
},
{
closed = 1;
nodes = (
"573 646 LINE",
"575 660 LINE",
"144 660 LINE",
"142 646 LINE"
);
},
{
closed = 1;
nodes = (
"491 8 LINE",
"379 -30 OFFCURVE",
"342 -72 OFFCURVE",
"334 -124 CURVE SMOOTH",
"327 -176 OFFCURVE",
"363 -202 OFFCURVE",
"411 -202 CURVE SMOOTH",
"448 -202 OFFCURVE",
"469 -192 OFFCURVE",
"486 -181 CURVE",
"482 -168 LINE",
"467 -179 OFFCURVE",
"447 -188 OFFCURVE",
"413 -188 CURVE SMOOTH",
"373 -188 OFFCURVE",
"343 -167 OFFCURVE",
"349 -124 CURVE SMOOTH",
"356 -75 OFFCURVE",
"395 -38 OFFCURVE",
"499 0 CURVE"
);
}
);
width = 584;
}
);
leftKerningGroup = I;
rightKerningGroup = E;
unicode = 0118;
},
{
color = 4;
glyphname = F;
lastChange = "2016-04-09 01:28:02 +0000";
layers = (
{
layerId = "4A17B37A-CBFD-40E5-9E02-2080A0E1F76C";
name = "Regular Italic";
paths = (
{
closed = 1;
nodes = (
"135 0 LINE",
"228 660 LINE",
"148 660 LINE",
"55 0 LINE"
);
},
{
closed = 1;
nodes = (
"510 287 LINE",
"521 365 LINE",
"148 365 LINE",
"137 287 LINE"
);
},
{
closed = 1;
nodes = (
"599 585 LINE",
"610 660 LINE",
"190 660 LINE",
"179 585 LINE"
);
}
);
width = 582;
},
{
layerId = "99EB5860-B45A-4B60-BB0B-F826C8F71D42";
leftMetricsKey = "=I";
name = "Bold Italic";
paths = (
{
closed = 1;
nodes = (
"248 0 LINE",
"341 660 LINE",
"108 660 LINE",
"15 0 LINE"
);
},
{
closed = 1;
nodes = (
"542 160 LINE",
"570 355 LINE",
"177 355 LINE",
"149 160 LINE"
);
},
{
closed = 1;
nodes = (
"627 463 LINE",
"655 660 LINE",
"220 660 LINE",
"192 463 LINE"
);
}
);
width = 614;
},
{
layerId = "1C7CD022-87C7-4E11-B656-E47B18819458";
name = "Light Italic";
paths = (
{
closed = 1;
nodes = (
"80 0 LINE",
"173 660 LINE",
"157 660 LINE",
"64 0 LINE"
);
},
{
closed = 1;
nodes = (
"502 310 LINE",
"504 324 LINE",
"115 324 LINE",
"113 310 LINE"
);
},
{
closed = 1;
nodes = (
"591 646 LINE",
"593 660 LINE",
"163 660 LINE",
"161 646 LINE"
);
}
);
width = 565;
}
);
leftKerningGroup = I;
unicode = 0046;
},
{
color = 4;
glyphname = G;
lastChange = "2016-04-09 01:28:01 +0000";
layers = (
{
anchors = (
{
name = bottom;
position = "{338, 0}";
},
{
name = top;
position = "{431, 660}";
}
);
layerId = "4A17B37A-CBFD-40E5-9E02-2080A0E1F76C";
name = "Regular Italic";
paths = (
{
closed = 1;
nodes = (
"20 140 OFFCURVE",
"148 -10 OFFCURVE",
"336 -10 CURVE",
"515 -10 OFFCURVE",
"685 126 OFFCURVE",
"723 305 CURVE",
"642 305 LINE",
"610 172 OFFCURVE",
"484 69 OFFCURVE",
"348 69 CURVE",
"204 69 OFFCURVE",
"108 185 OFFCURVE",
"128 330 CURVE",
"149 476 OFFCURVE",
"277 592 OFFCURVE",
"421 592 CURVE",
"505 592 OFFCURVE",
"576 550 OFFCURVE",
"614 486 CURVE",
"686 535 LINE",
"635 617 OFFCURVE",
"543 671 OFFCURVE",
"432 671 CURVE",
"244 671 OFFCURVE",
"73 520 OFFCURVE",
"46 331 CURVE"
);
},
{
closed = 1;
nodes = (
"411 222 LINE",
"661 222 LINE",
"723 305 LINE",
"723 305 LINE",
"423 305 LINE"
);
}
);
width = 745;
},
{
anchors = (
{
name = bottom;
position = "{346, 0}";
},
{
name = top;
position = "{428, 660}";
}
);
layerId = "99EB5860-B45A-4B60-BB0B-F826C8F71D42";
leftMetricsKey = "=O";
name = "Bold Italic";
paths = (
{
closed = 1;
nodes = (
"13 138 OFFCURVE",
"144 -15 OFFCURVE",
"334 -15 CURVE",
"524 -15 OFFCURVE",
"699 138 OFFCURVE",
"726 328 CURVE",
"514 328 LINE",
"504 257 OFFCURVE",
"438 197 OFFCURVE",
"364 197 CURVE",
"292 197 OFFCURVE",
"242 257 OFFCURVE",
"252 328 CURVE",
"262 401 OFFCURVE",
"328 459 OFFCURVE",
"400 459 CURVE",
"435 459 OFFCURVE",
"465 447 OFFCURVE",
"485 425 CURVE",
"677 547 LINE",
"624 623 OFFCURVE",
"536 671 OFFCURVE",
"430 671 CURVE",
"240 671 OFFCURVE",
"67 518 OFFCURVE",
"40 328 CURVE"
);
},
{
closed = 1;
nodes = (
"395 252 LINE",
"659 252 LINE",
"726 328 LINE",
"737 407 LINE",
"417 407 LINE"
);
}
);
width = 737;
},
{
anchors = (
{
name = bottom;
position = "{354, 4}";
},
{
name = top;
position = "{446, 656}";
}
);
layerId = "1C7CD022-87C7-4E11-B656-E47B18819458";
name = "Light Italic";
paths = (
{
closed = 1;
nodes = (
"34 142 OFFCURVE",
"164 -10 OFFCURVE",
"352 -10 CURVE",
"510 -10 OFFCURVE",
"657 97 OFFCURVE",
"717 243 CURVE",
"699 243 LINE",
"642 105 OFFCURVE",
"505 7 OFFCURVE",
"355 7 CURVE",
"175 7 OFFCURVE",
"52 150 OFFCURVE",
"77 330 CURVE",
"103 510 OFFCURVE",
"266 653 OFFCURVE",
"446 653 CURVE",
"564 653 OFFCURVE",
"656 593 OFFCURVE",
"700 499 CURVE",
"715 506 LINE",
"670 608 OFFCURVE",
"574 670 OFFCURVE",
"448 670 CURVE",
"260 670 OFFCURVE",
"87 518 OFFCURVE",
"60 330 CURVE"
);
},
{
closed = 1;
nodes = (
"462 227 LINE",
"708 227 LINE",
"717 243 LINE",
"717 243 LINE",
"464 243 LINE"
);
}
);
width = 763;
}
);
leftKerningGroup = O;
leftMetricsKey = O;
rightKerningGroup = G;
unicode = 0047;
},
{
color = 4;
glyphname = Gbreve;
lastChange = "2016-04-09 01:28:02 +0000";
layers = (
{
anchors = (
{
name = bottom;
position = "{338, 0}";
},
{
name = top;
position = "{431, 660}";
}
);
layerId = "4A17B37A-CBFD-40E5-9E02-2080A0E1F76C";
name = "Regular Italic";
paths = (
{
closed = 1;
nodes = (
"20 140 OFFCURVE",
"148 -10 OFFCURVE",
"336 -10 CURVE",
"515 -10 OFFCURVE",
"685 126 OFFCURVE",
"723 305 CURVE",
"642 305 LINE",
"610 172 OFFCURVE",
"484 69 OFFCURVE",
"348 69 CURVE",
"204 69 OFFCURVE",
"108 185 OFFCURVE",
"128 330 CURVE",
"149 476 OFFCURVE",
"277 592 OFFCURVE",
"421 592 CURVE",
"505 592 OFFCURVE",
"576 550 OFFCURVE",
"614 486 CURVE",
"686 535 LINE",
"635 617 OFFCURVE",
"543 671 OFFCURVE",
"432 671 CURVE",
"244 671 OFFCURVE",
"73 520 OFFCURVE",
"46 331 CURVE"
);
},
{
closed = 1;
nodes = (
"411 222 LINE",
"661 222 LINE",
"723 305 LINE",
"723 305 LINE",
"423 305 LINE"
);
},
{
closed = 1;
nodes = (
"544 885 LINE",
"538 838 OFFCURVE",
"497 797 OFFCURVE",
"450 797 CURVE SMOOTH",
"403 797 OFFCURVE",
"374 838 OFFCURVE",
"380 885 CURVE",
"314 885 LINE",
"302 797 OFFCURVE",
"353 737 OFFCURVE",
"441 737 CURVE SMOOTH",
"529 737 OFFCURVE",
"598 797 OFFCURVE",
"610 885 CURVE"
);
}
);
width = 745;
},
{
anchors = (
{
name = bottom;
position = "{346, 0}";
},
{
name = top;
position = "{428, 660}";
}
);
layerId = "99EB5860-B45A-4B60-BB0B-F826C8F71D42";
name = "Bold Italic";
paths = (
{
closed = 1;
nodes = (
"13 138 OFFCURVE",
"144 -15 OFFCURVE",
"334 -15 CURVE",
"524 -15 OFFCURVE",
"699 138 OFFCURVE",
"726 328 CURVE",
"514 328 LINE",
"504 257 OFFCURVE",
"438 197 OFFCURVE",
"364 197 CURVE",
"292 197 OFFCURVE",
"242 257 OFFCURVE",
"252 328 CURVE",
"262 401 OFFCURVE",
"328 459 OFFCURVE",
"400 459 CURVE",
"435 459 OFFCURVE",
"465 447 OFFCURVE",
"485 425 CURVE",
"677 547 LINE",
"624 623 OFFCURVE",
"536 671 OFFCURVE",
"430 671 CURVE",
"240 671 OFFCURVE",
"67 518 OFFCURVE",
"40 328 CURVE"
);
},
{
closed = 1;
nodes = (
"395 252 LINE",
"659 252 LINE",
"726 328 LINE",
"737 407 LINE",
"417 407 LINE"
);
},
{
closed = 1;
nodes = (
"502 873 LINE",
"496 837 OFFCURVE",
"480 818 OFFCURVE",
"450 818 CURVE SMOOTH",
"420 818 OFFCURVE",
"408 837 OFFCURVE",
"414 873 CURVE",
"275 873 LINE",
"259 763 OFFCURVE",
"317 700 OFFCURVE",
"433 700 CURVE SMOOTH",
"549 700 OFFCURVE",
"625 763 OFFCURVE",
"641 873 CURVE"
);
}
);
width = 737;
},
{
anchors = (
{
name = bottom;
position = "{354, 4}";
},
{
name = top;
position = "{446, 656}";
}
);
layerId = "1C7CD022-87C7-4E11-B656-E47B18819458";
name = "Light Italic";
paths = (
{
closed = 1;
nodes = (
"34 142 OFFCURVE",
"164 -10 OFFCURVE",
"352 -10 CURVE",
"510 -10 OFFCURVE",
"657 97 OFFCURVE",
"717 243 CURVE",
"699 243 LINE",
"642 105 OFFCURVE",
"505 7 OFFCURVE",
"355 7 CURVE",
"175 7 OFFCURVE",
"52 150 OFFCURVE",
"77 330 CURVE",
"103 510 OFFCURVE",
"266 653 OFFCURVE",
"446 653 CURVE",
"564 653 OFFCURVE",
"656 593 OFFCURVE",
"700 499 CURVE",
"715 506 LINE",
"670 608 OFFCURVE",
"574 670 OFFCURVE",
"448 670 CURVE",
"260 670 OFFCURVE",
"87 518 OFFCURVE",
"60 330 CURVE"
);
},
{
closed = 1;
nodes = (
"462 227 LINE",
"708 227 LINE",
"717 243 LINE",
"717 243 LINE",
"464 243 LINE"
);
},
{
closed = 1;
nodes = (
"581 857 LINE",
"572 792 OFFCURVE",
"525 750 OFFCURVE",
"459 750 CURVE SMOOTH",
"393 750 OFFCURVE",
"358 792 OFFCURVE",
"367 857 CURVE",
"353 857 LINE",
"343 781 OFFCURVE",
"381 736 OFFCURVE",
"457 736 CURVE SMOOTH",
"533 736 OFFCURVE",
"585 781 OFFCURVE",
"595 857 CURVE"
);
}
);
width = 763;
}
);
leftKerningGroup = O;
rightKerningGroup = G;
unicode = 011E;
},
{
color = 4;
glyphname = H;
lastChange = "2016-04-09 01:28:02 +0000";
layers = (
{
layerId = "4A17B37A-CBFD-40E5-9E02-2080A0E1F76C";
name = "Regular Italic";
paths = (
{
closed = 1;
nodes = (
"594 660 LINE",
"501 0 LINE",
"581 0 LINE",
"674 660 LINE"
);
},
{
closed = 1;
nodes = (
"156 660 LINE",
"63 0 LINE",
"143 0 LINE",
"236 660 LINE"
);
},
{
closed = 1;
nodes = (
"156 365 LINE",
"145 287 LINE",
"578 287 LINE",
"589 365 LINE"
);
}
);
width = 714;
},
{
layerId = "99EB5860-B45A-4B60-BB0B-F826C8F71D42";
name = "Bold Italic";
paths = (
{
closed = 1;
nodes = (
"512 660 LINE",
"419 0 LINE",
"652 0 LINE",
"745 660 LINE"
);
},
{
closed = 1;
nodes = (
"118 660 LINE",
"25 0 LINE",
"258 0 LINE",
"351 660 LINE"
);
},
{
closed = 1;
nodes = (
"186 422 LINE",
"157 211 LINE",
"588 211 LINE",
"617 422 LINE"
);
}
);
width = 747;
},
{
layerId = "1C7CD022-87C7-4E11-B656-E47B18819458";
name = "Light Italic";
paths = (
{
closed = 1;
nodes = (
"639 660 LINE",
"546 0 LINE",
"562 0 LINE",
"655 660 LINE"
);
},
{
closed = 1;
nodes = (
"157 660 LINE",
"64 0 LINE",
"80 0 LINE",
"173 660 LINE"
);
},
{
closed = 1;
nodes = (
"117 324 LINE",
"115 310 LINE",
"598 310 LINE",
"600 324 LINE"
);
}
);
width = 696;
}
);
leftKerningGroup = I;
rightKerningGroup = I;
unicode = 0048;
},
{
color = 4;
glyphname = I;
lastChange = "2016-04-09 01:28:02 +0000";
layers = (
{
anchors = (
{
name = ogonek;
position = "{143, 0}";
},
{
name = top;
position = "{196, 660}";
}
);
layerId = "4A17B37A-CBFD-40E5-9E02-2080A0E1F76C";
name = "Regular Italic";
paths = (
{
closed = 1;
nodes = (
"154 660 LINE",
"61 0 LINE",
"145 0 LINE",
"238 660 LINE"
);
}
);
width = 276;
},
{
anchors = (
{
name = ogonek;
position = "{248, 0}";
},
{
name = top;
position = "{224, 660}";
}
);
layerId = "99EB5860-B45A-4B60-BB0B-F826C8F71D42";
name = "Bold Italic";
paths = (
{
closed = 1;
nodes = (
"108 660 LINE",
"15 0 LINE",
"248 0 LINE",
"341 660 LINE"
);
}
);
width = 333;
},
{
anchors = (
{
name = ogonek;
position = "{91, 0}";
},
{
name = top;
position = "{176, 660}";
}
);
layerId = "1C7CD022-87C7-4E11-B656-E47B18819458";
name = "Light Italic";
paths = (
{
closed = 1;
nodes = (
"168 660 LINE",
"75 0 LINE",
"91 0 LINE",
"184 660 LINE"
);
}
);
width = 236;
}
);
leftKerningGroup = I;
rightKerningGroup = I;
unicode = 0049;
},
{
color = 4;
glyphname = IJ;
lastChange = "2016-04-09 01:28:03 +0000";
layers = (
{
anchors = (
{
name = ogonek;
position = "{91, 0}";
},
{
name = top;
position = "{176, 660}";
}
);
layerId = "1C7CD022-87C7-4E11-B656-E47B18819458";
name = "Light Italic";
paths = (
{
closed = 1;
nodes = (
"168 660 LINE",
"75 0 LINE",
"91 0 LINE",
"184 660 LINE"
);
},
{
closed = 1;
nodes = (
"684 660 LINE",
"621 215 LINE SMOOTH",
"620 207 OFFCURVE",
"619 199 OFFCURVE",
"617 191 CURVE SMOOTH",
"593 71 OFFCURVE",
"524 4 OFFCURVE",
"413 4 CURVE SMOOTH",
"300 4 OFFCURVE",
"266 77 OFFCURVE",
"275 187 CURVE SMOOTH",
"276 194 OFFCURVE",
"277 201 OFFCURVE",
"278 208 CURVE",
"262 208 LINE",
"261 199 OFFCURVE",
"259 189 OFFCURVE",
"259 180 CURVE SMOOTH",
"251 70 OFFCURVE",
"289 -10 OFFCURVE",
"411 -10 CURVE SMOOTH",
"539 -10 OFFCURVE",
"617 71 OFFCURVE",
"637 215 CURVE SMOOTH",
"700 660 LINE"
);
}
);
width = 734;
},
{
anchors = (
{
name = ogonek;
position = "{143, 0}";
},
{
name = top;
position = "{196, 660}";
}
);
layerId = "4A17B37A-CBFD-40E5-9E02-2080A0E1F76C";
name = "Regular Italic";
paths = (
{
closed = 1;
nodes = (
"154 660 LINE",
"61 0 LINE",
"145 0 LINE",
"238 660 LINE"
);
},
{
closed = 1;
nodes = (
"709 660 LINE",
"650 246 LINE SMOOTH",
"647 225 OFFCURVE",
"644 206 OFFCURVE",
"638 189 CURVE SMOOTH",
"614 108 OFFCURVE",
"564 65 OFFCURVE",
"483 65 CURVE SMOOTH",
"416 65 OFFCURVE",
"380 113 OFFCURVE",
"381 196 CURVE SMOOTH",
"382 208 OFFCURVE",
"383 220 OFFCURVE",
"385 233 CURVE",
"308 234 LINE",
"306 223 OFFCURVE",
"305 212 OFFCURVE",
"304 202 CURVE SMOOTH",
"296 66 OFFCURVE",
"361 -10 OFFCURVE",
"475 -10 CURVE SMOOTH",
"600 -10 OFFCURVE",
"707 78 OFFCURVE",
"728 226 CURVE SMOOTH",
"789 660 LINE"
);
}
);
width = 806;
},
{
anchors = (
{
name = ogonek;
position = "{248, 0}";
},
{
name = top;
position = "{224, 660}";
}
);
layerId = "99EB5860-B45A-4B60-BB0B-F826C8F71D42";
name = "Bold Italic";
paths = (
{
closed = 1;
nodes = (
"108 660 LINE",
"15 0 LINE",
"248 0 LINE",
"341 660 LINE"
);
},
{
closed = 1;
nodes = (
"780 660 LINE",
"733 327 LINE SMOOTH",
"729 301 OFFCURVE",
"724 268 OFFCURVE",
"719 237 CURVE SMOOTH",
"713 192 OFFCURVE",
"675 165 OFFCURVE",
"642 165 CURVE SMOOTH",
"609 165 OFFCURVE",
"576 190 OFFCURVE",
"582 239 CURVE SMOOTH",
"587 270 OFFCURVE",
"592 302 OFFCURVE",
"596 329 CURVE",
"367 329 LINE",
"362 296 OFFCURVE",
"361 285 OFFCURVE",
"357 256 CURVE SMOOTH",
"333 88 OFFCURVE",
"420 -10 OFFCURVE",
"614 -10 CURVE SMOOTH",
"815 -10 OFFCURVE",
"931 77 OFFCURVE",
"956 259 CURVE SMOOTH",
"1013 660 LINE"
);
}
);
width = 990;
}
);
leftKerningGroup = I;
rightKerningGroup = I;
unicode = 0132;
},
{
color = 4;
glyphname = Iacute;
lastChange = "2016-04-09 01:28:02 +0000";
layers = (
{
anchors = (
{
name = ogonek;
position = "{143, 0}";
},
{
name = top;
position = "{196, 660}";
}
);
layerId = "4A17B37A-CBFD-40E5-9E02-2080A0E1F76C";
name = "Regular Italic";
paths = (
{
closed = 1;
nodes = (
"154 660 LINE",
"61 0 LINE",
"145 0 LINE",
"238 660 LINE"
);
},
{
closed = 1;
nodes = (
"177 743 LINE",
"258 743 LINE",
"340 891 LINE",
"255 891 LINE"
);
}
);
width = 276;
},
{
anchors = (
{
name = ogonek;
position = "{248, 0}";
},
{
name = top;
position = "{224, 660}";
}
);
layerId = "99EB5860-B45A-4B60-BB0B-F826C8F71D42";
name = "Bold Italic";
paths = (
{
closed = 1;
nodes = (
"108 660 LINE",
"15 0 LINE",
"248 0 LINE",
"341 660 LINE"
);
},
{
closed = 1;
nodes = (
"140 709 LINE",
"317 709 LINE",
"407 876 LINE",
"216 876 LINE"
);
}
);
width = 333;
},
{
anchors = (
{
name = ogonek;
position = "{91, 0}";
},
{
name = top;
position = "{176, 660}";
}
);
layerId = "1C7CD022-87C7-4E11-B656-E47B18819458";
name = "Light Italic";
paths = (
{
closed = 1;
nodes = (
"168 660 LINE",
"75 0 LINE",
"91 0 LINE",
"184 660 LINE"
);
},
{
closed = 1;
nodes = (
"186 743 LINE",
"202 743 LINE",
"298 891 LINE",
"282 891 LINE"
);
}
);
width = 236;
}
);
leftKerningGroup = I;
rightKerningGroup = I;
unicode = 00CD;
},
{
color = 4;
glyphname = Icircumflex;
lastChange = "2016-04-09 01:28:01 +0000";
layers = (
{
anchors = (
{
name = ogonek;
position = "{143, 0}";
},
{
name = top;
position = "{196, 660}";
}
);
layerId = "4A17B37A-CBFD-40E5-9E02-2080A0E1F76C";
name = "Regular Italic";
paths = (
{
closed = 1;
nodes = (
"154 660 LINE",
"61 0 LINE",
"145 0 LINE",
"238 660 LINE"
);
},
{
closed = 1;
nodes = (
"275 903 LINE",
"185 903 LINE",
"47 736 LINE",
"120 736 LINE",
"222 851 LINE",
"292 736 LINE",
"365 736 LINE"
);
}
);
width = 276;
},
{
anchors = (
{
name = ogonek;
position = "{248, 0}";
},
{
name = top;
position = "{224, 660}";
}
);
layerId = "99EB5860-B45A-4B60-BB0B-F826C8F71D42";
name = "Bold Italic";
paths = (
{
closed = 1;
nodes = (
"108 660 LINE",
"15 0 LINE",
"248 0 LINE",
"341 660 LINE"
);
},
{
closed = 1;
nodes = (
"361 876 LINE",
"147 876 LINE",
"16 709 LINE",
"187 709 LINE",
"240 778 LINE",
"275 709 LINE",
"446 709 LINE"
);
}
);
width = 333;
},
{
anchors = (
{
name = ogonek;
position = "{91, 0}";
},
{
name = top;
position = "{176, 660}";
}
);
layerId = "1C7CD022-87C7-4E11-B656-E47B18819458";
name = "Light Italic";
paths = (
{
closed = 1;
nodes = (
"168 660 LINE",
"75 0 LINE",
"91 0 LINE",
"184 660 LINE"
);
},
{
closed = 1;
nodes = (
"217 885 LINE",
"197 885 LINE",
"68 743 LINE",
"85 743 LINE",
"205 872 LINE",
"289 743 LINE",
"306 743 LINE"
);
}
);
width = 236;
}
);
leftKerningGroup = I;
rightKerningGroup = I;
unicode = 00CE;
},
{
color = 4;
glyphname = Idieresis;
lastChange = "2016-04-09 01:28:02 +0000";
layers = (
{
anchors = (
{
name = ogonek;
position = "{143, 0}";
},
{
name = top;
position = "{196, 660}";
}
);
hints = (
{
horizontal = 1;
origin = "{1, 5}";
target = "{1, 11}";
type = Stem;
}
);
layerId = "4A17B37A-CBFD-40E5-9E02-2080A0E1F76C";
name = "Regular Italic";
paths = (
{
closed = 1;
nodes = (
"103 856 OFFCURVE",
"77 833 OFFCURVE",
"72 799 CURVE SMOOTH",
"67 765 OFFCURVE",
"87 742 OFFCURVE",
"121 742 CURVE SMOOTH",
"155 742 OFFCURVE",
"181 765 OFFCURVE",
"186 799 CURVE SMOOTH",
"191 833 OFFCURVE",
"171 856 OFFCURVE",
"137 856 CURVE SMOOTH"
);
},
{
closed = 1;
nodes = (
"275 856 OFFCURVE",
"249 833 OFFCURVE",
"244 799 CURVE SMOOTH",
"239 765 OFFCURVE",
"259 742 OFFCURVE",
"293 742 CURVE SMOOTH",
"327 742 OFFCURVE",
"353 765 OFFCURVE",
"358 799 CURVE SMOOTH",
"363 833 OFFCURVE",
"343 856 OFFCURVE",
"309 856 CURVE SMOOTH"
);
},
{
closed = 1;
nodes = (
"154 660 LINE",
"61 0 LINE",
"145 0 LINE",
"238 660 LINE"
);
}
);
width = 276;
},
{
anchors = (
{
name = ogonek;
position = "{248, 0}";
},
{
name = top;
position = "{224, 660}";
}
);
layerId = "99EB5860-B45A-4B60-BB0B-F826C8F71D42";
name = "Bold Italic";
paths = (
{
closed = 1;
nodes = (
"79 880 OFFCURVE",
"38 847 OFFCURVE",
"30 789 CURVE SMOOTH",
"22 731 OFFCURVE",
"53 698 OFFCURVE",
"115 698 CURVE SMOOTH",
"179 698 OFFCURVE",
"222 731 OFFCURVE",
"230 789 CURVE SMOOTH",
"238 847 OFFCURVE",
"205 880 OFFCURVE",
"141 880 CURVE SMOOTH"
);
},
{
closed = 1;
nodes = (
"304 880 OFFCURVE",
"263 847 OFFCURVE",
"255 789 CURVE SMOOTH",
"247 731 OFFCURVE",
"278 698 OFFCURVE",
"340 698 CURVE SMOOTH",
"404 698 OFFCURVE",
"447 731 OFFCURVE",
"455 789 CURVE SMOOTH",
"463 847 OFFCURVE",
"430 880 OFFCURVE",
"366 880 CURVE SMOOTH"
);
},
{
closed = 1;
nodes = (
"108 660 LINE",
"15 0 LINE",
"248 0 LINE",
"341 660 LINE"
);
}
);
width = 333;
},
{
anchors = (
{
name = ogonek;
position = "{91, 0}";
},
{
name = top;
position = "{176, 660}";
}
);
layerId = "1C7CD022-87C7-4E11-B656-E47B18819458";
name = "Light Italic";
paths = (
{
closed = 1;
nodes = (
"113 802 OFFCURVE",
"102 793 OFFCURVE",
"100 780 CURVE SMOOTH",
"99 767 OFFCURVE",
"106 758 OFFCURVE",
"119 758 CURVE SMOOTH",
"132 758 OFFCURVE",
"143 767 OFFCURVE",
"144 780 CURVE SMOOTH",
"146 793 OFFCURVE",
"139 802 OFFCURVE",
"126 802 CURVE SMOOTH"
);
},
{
closed = 1;
nodes = (
"231 802 OFFCURVE",
"220 793 OFFCURVE",
"218 780 CURVE SMOOTH",
"217 767 OFFCURVE",
"224 758 OFFCURVE",
"237 758 CURVE SMOOTH",
"250 758 OFFCURVE",
"261 767 OFFCURVE",
"262 780 CURVE SMOOTH",
"264 793 OFFCURVE",
"257 802 OFFCURVE",
"244 802 CURVE SMOOTH"
);
},
{
closed = 1;
nodes = (
"168 660 LINE",
"75 0 LINE",
"91 0 LINE",
"184 660 LINE"
);
}
);
width = 214;
}
);
leftKerningGroup = I;
rightKerningGroup = I;
unicode = 00CF;
},
{
color = 4;
glyphname = Idotaccent;
lastChange = "2016-04-09 01:28:03 +0000";
layers = (
{
anchors = (
{
name = ogonek;
position = "{143, 0}";
},
{
name = top;
position = "{196, 660}";
}
);
layerId = "4A17B37A-CBFD-40E5-9E02-2080A0E1F76C";
name = "Regular Italic";
paths = (
{
closed = 1;
nodes = (
"154 660 LINE",
"61 0 LINE",
"145 0 LINE",
"238 660 LINE"
);
},
{
closed = 1;
nodes = (
"242 756 OFFCURVE",
"273 783 OFFCURVE",
"278 816 CURVE SMOOTH",
"282 848 OFFCURVE",
"259 875 OFFCURVE",
"227 875 CURVE SMOOTH",
"194 875 OFFCURVE",
"163 848 OFFCURVE",
"159 816 CURVE SMOOTH",
"154 783 OFFCURVE",
"177 756 OFFCURVE",
"210 756 CURVE SMOOTH"
);
}
);
width = 276;
},
{
anchors = (
{
name = ogonek;
position = "{248, 0}";
},
{
name = top;
position = "{224, 660}";
}
);
layerId = "99EB5860-B45A-4B60-BB0B-F826C8F71D42";
name = "Bold Italic";
paths = (
{
closed = 1;
nodes = (
"108 660 LINE",
"15 0 LINE",
"248 0 LINE",
"341 660 LINE"
);
},
{
closed = 1;
nodes = (
"293 697 OFFCURVE",
"351 748 OFFCURVE",
"360 811 CURVE SMOOTH",
"369 874 OFFCURVE",
"325 925 OFFCURVE",
"262 925 CURVE SMOOTH",
"199 925 OFFCURVE",
"141 874 OFFCURVE",
"132 811 CURVE SMOOTH",
"123 748 OFFCURVE",
"167 697 OFFCURVE",
"230 697 CURVE SMOOTH"
);
}
);
width = 333;
},
{
anchors = (
{
name = ogonek;
position = "{91, 0}";
},
{
name = top;
position = "{176, 660}";
}
);
layerId = "1C7CD022-87C7-4E11-B656-E47B18819458";
name = "Light Italic";
paths = (
{
closed = 1;
nodes = (
"168 660 LINE",
"75 0 LINE",
"91 0 LINE",
"184 660 LINE"
);
},
{
closed = 1;
nodes = (
"201 758 OFFCURVE",
"213 767 OFFCURVE",
"214 780 CURVE SMOOTH",
"216 792 OFFCURVE",
"207 801 OFFCURVE",
"196 801 CURVE SMOOTH",
"183 801 OFFCURVE",
"172 792 OFFCURVE",
"170 780 CURVE SMOOTH",
"169 767 OFFCURVE",
"177 758 OFFCURVE",
"190 758 CURVE SMOOTH"
);
}
);
width = 236;
}
);
leftKerningGroup = I;
rightKerningGroup = I;
unicode = 0130;
},
{
color = 4;
glyphname = Igrave;
lastChange = "2016-04-09 01:28:03 +0000";
layers = (
{
anchors = (
{
name = ogonek;
position = "{143, 0}";
},
{
name = top;
position = "{196, 660}";
}
);
layerId = "4A17B37A-CBFD-40E5-9E02-2080A0E1F76C";
name = "Regular Italic";
paths = (
{
closed = 1;
nodes = (
"154 660 LINE",
"61 0 LINE",
"145 0 LINE",
"238 660 LINE"
);
},
{
closed = 1;
nodes = (
"119 891 LINE",
"159 743 LINE",
"240 743 LINE",
"204 891 LINE"
);
}
);
width = 276;
},
{
anchors = (
{
name = ogonek;
position = "{248, 0}";
},
{
name = top;
position = "{224, 660}";
}
);
layerId = "99EB5860-B45A-4B60-BB0B-F826C8F71D42";
name = "Bold Italic";
paths = (
{
closed = 1;
nodes = (
"108 660 LINE",
"15 0 LINE",
"248 0 LINE",
"341 660 LINE"
);
},
{
closed = 1;
nodes = (
"81 876 LINE",
"125 709 LINE",
"302 709 LINE",
"272 876 LINE"
);
}
);
width = 333;
},
{
anchors = (
{
name = ogonek;
position = "{91, 0}";
},
{
name = top;
position = "{176, 660}";
}
);
layerId = "1C7CD022-87C7-4E11-B656-E47B18819458";
name = "Light Italic";
paths = (
{
closed = 1;
nodes = (
"168 660 LINE",
"75 0 LINE",
"91 0 LINE",
"184 660 LINE"
);
},
{
closed = 1;
nodes = (
"115 891 LINE",
"169 743 LINE",
"185 743 LINE",
"131 891 LINE"
);
}
);
width = 236;
}
);
leftKerningGroup = I;
rightKerningGroup = I;
unicode = 00CC;
},
{
color = 4;
glyphname = Imacron;
lastChange = "2016-04-09 01:28:01 +0000";
layers = (
{
anchors = (
{
name = ogonek;
position = "{143, 0}";
},
{
name = top;
position = "{196, 660}";
}
);
layerId = "4A17B37A-CBFD-40E5-9E02-2080A0E1F76C";
name = "Regular Italic";
paths = (
{
closed = 1;
nodes = (
"111 823 LINE",
"101 756 LINE",
"317 756 LINE",
"327 823 LINE"
);
},
{
closed = 1;
nodes = (
"154 660 LINE",
"61 0 LINE",
"145 0 LINE",
"238 660 LINE"
);
}
);
width = 276;
},
{
anchors = (
{
name = ogonek;
position = "{248, 0}";
},
{
name = top;
position = "{224, 660}";
}
);
layerId = "99EB5860-B45A-4B60-BB0B-F826C8F71D42";
name = "Bold Italic";
paths = (
{
closed = 1;
nodes = (
"84 841 LINE",
"66 711 LINE",
"395 711 LINE",
"413 841 LINE"
);
},
{
closed = 1;
nodes = (
"108 660 LINE",
"15 0 LINE",
"248 0 LINE",
"341 660 LINE"
);
}
);
width = 333;
},
{
anchors = (
{
name = ogonek;
position = "{91, 0}";
},
{
name = top;
position = "{176, 660}";
}
);
hints = (
{
horizontal = 1;
origin = "{0, 1}";
target = "{0, 0}";
type = Stem;
}
);
layerId = "1C7CD022-87C7-4E11-B656-E47B18819458";
name = "Light Italic";
paths = (
{
closed = 1;
nodes = (
"72 779 LINE",
"70 765 LINE",
"288 765 LINE",
"290 779 LINE"
);
},
{
closed = 1;
nodes = (
"168 660 LINE",
"75 0 LINE",
"91 0 LINE",
"184 660 LINE"
);
}
);
width = 214;
}
);
leftKerningGroup = I;
rightKerningGroup = I;
unicode = 012A;
},
{
color = 4;
glyphname = Iogonek;
lastChange = "2016-04-09 01:28:02 +0000";
layers = (
{
anchors = (
{
name = ogonek;
position = "{143, 0}";
},
{
name = top;
position = "{196, 660}";
}
);
layerId = "4A17B37A-CBFD-40E5-9E02-2080A0E1F76C";
name = "Regular Italic";
paths = (
{
closed = 1;
nodes = (
"154 660 LINE",
"61 0 LINE",
"145 0 LINE",
"238 660 LINE"
);
},
{
closed = 1;
nodes = (
"100 21 LINE",
"10 -8 OFFCURVE",
"-37 -60 OFFCURVE",
"-45 -117 CURVE SMOOTH",
"-53 -177 OFFCURVE",
"-13 -215 OFFCURVE",
"58 -215 CURVE SMOOTH",
"95 -215 OFFCURVE",
"122 -208 OFFCURVE",
"146 -193 CURVE",
"134 -142 LINE",
"116 -153 OFFCURVE",
"98 -157 OFFCURVE",
"73 -157 CURVE SMOOTH",
"34 -157 OFFCURVE",
"16 -138 OFFCURVE",
"21 -103 CURVE SMOOTH",
"25 -74 OFFCURVE",
"50 -40 OFFCURVE",
"143 0 CURVE"
);
}
);
width = 276;
},
{
anchors = (
{
name = ogonek;
position = "{248, 0}";
},
{
name = top;
position = "{224, 660}";
}
);
layerId = "99EB5860-B45A-4B60-BB0B-F826C8F71D42";
name = "Bold Italic";
paths = (
{
closed = 1;
nodes = (
"108 660 LINE",
"15 0 LINE",
"248 0 LINE",
"341 660 LINE"
);
},
{
closed = 1;
nodes = (
"160 32 LINE",
"58 26 OFFCURVE",
"-22 -17 OFFCURVE",
"-33 -96 CURVE SMOOTH",
"-44 -180 OFFCURVE",
"20 -215 OFFCURVE",
"103 -215 CURVE SMOOTH",
"153 -215 OFFCURVE",
"189 -209 OFFCURVE",
"224 -189 CURVE",
"212 -86 LINE",
"201 -92 OFFCURVE",
"186 -94 OFFCURVE",
"171 -94 CURVE SMOOTH",
"140 -94 OFFCURVE",
"124 -80 OFFCURVE",
"127 -56 CURVE SMOOTH",
"131 -25 OFFCURVE",
"162 -5 OFFCURVE",
"248 0 CURVE"
);
}
);
width = 333;
},
{
anchors = (
{
name = ogonek;
position = "{91, 0}";
},
{
name = top;
position = "{176, 660}";
}
);
hints = (
{
horizontal = 1;
origin = "{1, 6}";
target = "{1, 13}";
type = Stem;
}
);
layerId = "1C7CD022-87C7-4E11-B656-E47B18819458";
name = "Light Italic";
paths = (
{
closed = 1;
nodes = (
"168 660 LINE",
"75 0 LINE",
"91 0 LINE",
"184 660 LINE"
);
},
{
closed = 1;
nodes = (
"80 7 LINE",
"-1 -43 OFFCURVE",
"-33 -74 OFFCURVE",
"-39 -120 CURVE SMOOTH",
"-46 -172 OFFCURVE",
"-10 -202 OFFCURVE",
"34 -202 CURVE SMOOTH",
"61 -202 OFFCURVE",
"78 -195 OFFCURVE",
"102 -180 CURVE",
"97 -167 LINE",
"77 -182 OFFCURVE",
"62 -188 OFFCURVE",
"36 -188 CURVE SMOOTH",
"0 -188 OFFCURVE",
"-30 -163 OFFCURVE",
"-24 -120 CURVE SMOOTH",
"-18 -77 OFFCURVE",
"12 -50 OFFCURVE",
"91 0 CURVE"
);
}
);
width = 236;
}
);
leftKerningGroup = I;
rightKerningGroup = I;
unicode = 012E;
},
{
color = 4;
glyphname = J;
lastChange = "2016-04-09 01:28:01 +0000";
layers = (
{
layerId = "4A17B37A-CBFD-40E5-9E02-2080A0E1F76C";
name = "Regular Italic";
paths = (
{
closed = 1;
nodes = (
"433 660 LINE",
"374 246 LINE SMOOTH",
"371 225 OFFCURVE",
"368 206 OFFCURVE",
"362 189 CURVE SMOOTH",
"338 108 OFFCURVE",
"288 65 OFFCURVE",
"207 65 CURVE SMOOTH",
"140 65 OFFCURVE",
"104 113 OFFCURVE",
"105 196 CURVE SMOOTH",
"106 208 OFFCURVE",
"107 220 OFFCURVE",
"109 233 CURVE",
"32 234 LINE",
"30 223 OFFCURVE",
"29 212 OFFCURVE",
"28 202 CURVE SMOOTH",
"20 66 OFFCURVE",
"85 -10 OFFCURVE",
"199 -10 CURVE SMOOTH",
"324 -10 OFFCURVE",
"431 78 OFFCURVE",
"452 226 CURVE SMOOTH",
"513 660 LINE"
);
}
);
width = 530;
},
{
layerId = "99EB5860-B45A-4B60-BB0B-F826C8F71D42";
name = "Bold Italic";
paths = (
{
closed = 1;
nodes = (
"447 660 LINE",
"400 327 LINE SMOOTH",
"396 301 OFFCURVE",
"391 268 OFFCURVE",
"386 237 CURVE SMOOTH",
"380 192 OFFCURVE",
"342 165 OFFCURVE",
"309 165 CURVE SMOOTH",
"276 165 OFFCURVE",
"243 190 OFFCURVE",
"249 239 CURVE SMOOTH",
"254 270 OFFCURVE",
"259 302 OFFCURVE",
"263 329 CURVE",
"34 329 LINE",
"29 296 OFFCURVE",
"28 285 OFFCURVE",
"24 256 CURVE SMOOTH",
"0 88 OFFCURVE",
"87 -10 OFFCURVE",
"281 -10 CURVE SMOOTH",
"482 -10 OFFCURVE",
"598 77 OFFCURVE",
"623 259 CURVE SMOOTH",
"680 660 LINE"
);
}
);
width = 657;
},
{
layerId = "1C7CD022-87C7-4E11-B656-E47B18819458";
name = "Light Italic";
paths = (
{
closed = 1;
nodes = (
"448 660 LINE",
"385 215 LINE SMOOTH",
"384 207 OFFCURVE",
"383 199 OFFCURVE",
"381 191 CURVE SMOOTH",
"357 71 OFFCURVE",
"288 4 OFFCURVE",
"177 4 CURVE SMOOTH",
"64 4 OFFCURVE",
"30 77 OFFCURVE",
"39 187 CURVE SMOOTH",
"40 194 OFFCURVE",
"41 201 OFFCURVE",
"42 208 CURVE",
"26 208 LINE",
"25 199 OFFCURVE",
"23 189 OFFCURVE",
"23 180 CURVE SMOOTH",
"15 70 OFFCURVE",
"53 -10 OFFCURVE",
"175 -10 CURVE SMOOTH",
"303 -10 OFFCURVE",
"381 71 OFFCURVE",
"401 215 CURVE SMOOTH",
"464 660 LINE"
);
}
);
width = 498;
}
);
rightKerningGroup = I;
unicode = 004A;
},
{
color = 4;
glyphname = K;
lastChange = "2016-04-09 01:28:02 +0000";
layers = (
{
anchors = (
{
name = bottom;
position = "{328, 0}";
},
{
name = top;
position = "{401, 660}";
}
);
layerId = "4A17B37A-CBFD-40E5-9E02-2080A0E1F76C";
name = "Regular Italic";
paths = (
{
closed = 1;
nodes = (
"568 660 LINE",
"142 279 LINE",
"127 171 LINE",
"329 352 LINE",
"343 365 LINE",
"673 660 LINE"
);
},
{
closed = 1;
nodes = (
"156 660 LINE",
"63 0 LINE",
"143 0 LINE",
"236 660 LINE"
);
},
{
closed = 1;
nodes = (
"286 371 LINE",
"487 0 LINE",
"583 0 LINE",
"358 416 LINE"
);
}
);
width = 636;
},
{
anchors = (
{
name = bottom;
position = "{321, 0}";
},
{
name = top;
position = "{417, 660}";
}
);
layerId = "99EB5860-B45A-4B60-BB0B-F826C8F71D42";
name = "Bold Italic";
paths = (
{
closed = 1;
nodes = (
"513 660 LINE",
"170 253 LINE",
"202 92 LINE",
"375 290 LINE",
"377 239 LINE",
"761 660 LINE"
);
},
{
closed = 1;
nodes = (
"108 660 LINE",
"15 0 LINE",
"248 0 LINE",
"341 660 LINE"
);
},
{
closed = 1;
nodes = (
"307 330 LINE",
"425 0 LINE",
"686 0 LINE",
"496 459 LINE"
);
}
);
width = 731;
},
{
anchors = (
{
name = bottom;
position = "{284, 0}";
},
{
name = top;
position = "{377, 660}";
}
);
layerId = "1C7CD022-87C7-4E11-B656-E47B18819458";
name = "Light Italic";
paths = (
{
closed = 1;
nodes = (
"569 660 LINE",
"106 248 LINE",
"102 225 LINE",
"288 389 LINE",
"290 391 LINE",
"592 660 LINE"
);
},
{
closed = 1;
nodes = (
"157 660 LINE",
"64 0 LINE",
"80 0 LINE",
"173 660 LINE"
);
},
{
closed = 1;
nodes = (
"279 390 LINE",
"488 0 LINE",
"509 0 LINE",
"292 404 LINE"
);
}
);
width = 569;
}
);
leftKerningGroup = I;
rightKerningGroup = K;
unicode = 004B;
},
{
color = 4;
glyphname = L;
lastChange = "2016-04-09 01:28:02 +0000";
layers = (
{
anchors = (
{
name = bottom;
position = "{309, 0}";
},
{
name = center;
position = "{459, 342}";
},
{
name = top;
position = "{188, 660}";
},
{
name = topright;
position = "{345, 700}";
}
);
layerId = "4A17B37A-CBFD-40E5-9E02-2080A0E1F76C";
name = "Regular Italic";
paths = (
{
closed = 1;
nodes = (
"148 660 LINE",
"55 0 LINE",
"135 0 LINE",
"228 660 LINE"
);
},
{
closed = 1;
nodes = (
"107 75 LINE",
"97 0 LINE",
"513 0 LINE",
"523 75 LINE"
);
}
);
width = 570;
},
{
anchors = (
{
name = bottom;
position = "{283, 0}";
},
{
name = center;
position = "{421, 364}";
},
{
name = top;
position = "{224, 660}";
},
{
name = topright;
position = "{451, 701}";
}
);
layerId = "99EB5860-B45A-4B60-BB0B-F826C8F71D42";
name = "Bold Italic";
paths = (
{
closed = 1;
nodes = (
"108 660 LINE",
"15 0 LINE",
"248 0 LINE",
"341 660 LINE"
);
},
{
closed = 1;
nodes = (
"153 183 LINE",
"127 0 LINE",
"547 0 LINE",
"573 183 LINE"
);
}
);
width = 605;
},
{
anchors = (
{
name = bottom;
position = "{296, 0}";
},
{
name = center;
position = "{477, 335}";
},
{
name = top;
position = "{165, 660}";
},
{
name = topright;
position = "{324, 700}";
}
);
layerId = "1C7CD022-87C7-4E11-B656-E47B18819458";
name = "Light Italic";
paths = (
{
closed = 1;
nodes = (
"157 660 LINE",
"64 0 LINE",
"80 0 LINE",
"173 660 LINE"
);
},
{
closed = 1;
nodes = (
"72 14 LINE",
"70 0 LINE",
"496 0 LINE",
"498 14 LINE"
);
}
);
width = 551;
}
);
leftKerningGroup = I;
rightKerningGroup = L;
unicode = 004C;
},
{
color = 4;
glyphname = Lacute;
lastChange = "2016-04-09 01:28:03 +0000";
layers = (
{
anchors = (
{
name = bottom;
position = "{309, 0}";
},
{
name = center;
position = "{459, 342}";
},
{
name = top;
position = "{188, 660}";
},
{
name = topright;
position = "{345, 700}";
}
);
layerId = "4A17B37A-CBFD-40E5-9E02-2080A0E1F76C";
name = "Regular Italic";
paths = (
{
closed = 1;
nodes = (
"148 660 LINE",
"55 0 LINE",
"135 0 LINE",
"228 660 LINE"
);
},
{
closed = 1;
nodes = (
"107 75 LINE",
"97 0 LINE",
"513 0 LINE",
"523 75 LINE"
);
},
{
closed = 1;
nodes = (
"157 743 LINE",
"238 743 LINE",
"320 891 LINE",
"235 891 LINE"
);
}
);
width = 570;
},
{
anchors = (
{
name = bottom;
position = "{283, 0}";
},
{
name = center;
position = "{421, 364}";
},
{
name = top;
position = "{224, 660}";
},
{
name = topright;
position = "{451, 701}";
}
);
layerId = "99EB5860-B45A-4B60-BB0B-F826C8F71D42";
name = "Bold Italic";
paths = (
{
closed = 1;
nodes = (
"108 660 LINE",
"15 0 LINE",
"248 0 LINE",
"341 660 LINE"
);
},
{
closed = 1;
nodes = (
"153 183 LINE",
"127 0 LINE",
"547 0 LINE",
"573 183 LINE"
);
},
{
closed = 1;
nodes = (
"140 709 LINE",
"317 709 LINE",
"407 876 LINE",
"216 876 LINE"
);
}
);
width = 605;
},
{
anchors = (
{
name = bottom;
position = "{296, 0}";
},
{
name = center;
position = "{477, 335}";
},
{
name = top;
position = "{165, 660}";
},
{
name = topright;
position = "{324, 700}";
}
);
layerId = "1C7CD022-87C7-4E11-B656-E47B18819458";
name = "Light Italic";
paths = (
{
closed = 1;
nodes = (
"157 660 LINE",
"64 0 LINE",
"80 0 LINE",
"173 660 LINE"
);
},
{
closed = 1;
nodes = (
"72 14 LINE",
"70 0 LINE",
"496 0 LINE",
"498 14 LINE"
);
},
{
closed = 1;
nodes = (
"175 743 LINE",
"191 743 LINE",
"287 891 LINE",
"271 891 LINE"
);
}
);
width = 551;
}
);
leftKerningGroup = I;
rightKerningGroup = L;
unicode = 0139;
},
{
color = 4;
glyphname = Lcaron;
lastChange = "2016-04-09 01:28:01 +0000";
layers = (
{
anchors = (
{
name = bottom;
position = "{309, 0}";
},
{
name = center;
position = "{459, 342}";
},
{
name = top;
position = "{188, 660}";
},
{
name = topright;
position = "{345, 700}";
}
);
layerId = "4A17B37A-CBFD-40E5-9E02-2080A0E1F76C";
name = "Regular Italic";
paths = (
{
closed = 1;
nodes = (
"148 660 LINE",
"55 0 LINE",
"135 0 LINE",
"228 660 LINE"
);
},
{
closed = 1;
nodes = (
"107 75 LINE",
"97 0 LINE",
"513 0 LINE",
"523 75 LINE"
);
},
{
closed = 1;
nodes = (
"350 700 LINE",
"283 503 LINE",
"358 503 LINE",
"426 700 LINE"
);
}
);
width = 570;
},
{
anchors = (
{
name = bottom;
position = "{283, 0}";
},
{
name = center;
position = "{421, 364}";
},
{
name = top;
position = "{224, 660}";
},
{
name = topright;
position = "{451, 701}";
}
);
layerId = "99EB5860-B45A-4B60-BB0B-F826C8F71D42";
leftMetricsKey = "=L";
rightMetricsKey = "=L";
name = "Bold Italic";
paths = (
{
closed = 1;
nodes = (
"108 660 LINE",
"15 0 LINE",
"248 0 LINE",
"341 660 LINE"
);
},
{
closed = 1;
nodes = (
"153 183 LINE",
"127 0 LINE",
"547 0 LINE",
"573 183 LINE"
);
},
{
closed = 1;
nodes = (
"475 701 LINE",
"376 434 LINE",
"549 434 LINE",
"649 701 LINE"
);
}
);
width = 605;
},
{
anchors = (
{
name = bottom;
position = "{296, 0}";
},
{
name = center;
position = "{477, 335}";
},
{
name = top;
position = "{165, 660}";
},
{
name = topright;
position = "{324, 700}";
}
);
layerId = "1C7CD022-87C7-4E11-B656-E47B18819458";
name = "Light Italic";
paths = (
{
closed = 1;
nodes = (
"157 660 LINE",
"64 0 LINE",
"80 0 LINE",
"173 660 LINE"
);
},
{
closed = 1;
nodes = (
"72 14 LINE",
"70 0 LINE",
"496 0 LINE",
"498 14 LINE"
);
},
{
closed = 1;
nodes = (
"324 700 LINE",
"261 503 LINE",
"276 503 LINE",
"339 700 LINE"
);
}
);
width = 551;
}
);
leftKerningGroup = I;
rightKerningGroup = L;
unicode = 013D;
},
{
color = 4;
glyphname = Ldot;
lastChange = "2016-04-09 01:28:03 +0000";
layers = (
{
anchors = (
{
name = bottom;
position = "{296, 0}";
},
{
name = center;
position = "{477, 335}";
},
{
name = top;
position = "{165, 660}";
},
{
name = topright;
position = "{324, 700}";
}
);
hints = (
{
horizontal = 1;
origin = "{2, 11}";
target = "{2, 4}";
type = Stem;
}
);
layerId = "1C7CD022-87C7-4E11-B656-E47B18819458";
name = "Light Italic";
paths = (
{
closed = 1;
nodes = (
"157 660 LINE",
"64 0 LINE",
"80 0 LINE",
"173 660 LINE"
);
},
{
closed = 1;
nodes = (
"72 14 LINE",
"70 0 LINE",
"496 0 LINE",
"498 14 LINE"
);
},
{
closed = 1;
nodes = (
"489 307 OFFCURVE",
"503 319 OFFCURVE",
"505 335 CURVE SMOOTH",
"507 351 OFFCURVE",
"497 363 OFFCURVE",
"481 363 CURVE SMOOTH",
"465 363 OFFCURVE",
"451 351 OFFCURVE",
"449 335 CURVE SMOOTH",
"447 319 OFFCURVE",
"457 307 OFFCURVE",
"473 307 CURVE SMOOTH"
);
}
);
width = 563;
},
{
anchors = (
{
name = bottom;
position = "{309, 0}";
},
{
name = center;
position = "{459, 342}";
},
{
name = top;
position = "{188, 660}";
},
{
name = topright;
position = "{345, 700}";
}
);
layerId = "4A17B37A-CBFD-40E5-9E02-2080A0E1F76C";
name = "Regular Italic";
paths = (
{
closed = 1;
nodes = (
"148 660 LINE",
"55 0 LINE",
"135 0 LINE",
"228 660 LINE"
);
},
{
closed = 1;
nodes = (
"107 75 LINE",
"97 0 LINE",
"513 0 LINE",
"523 75 LINE"
);
},
{
closed = 1;
nodes = (
"551 277 OFFCURVE",
"585 306 OFFCURVE",
"590 343 CURVE SMOOTH",
"595 379 OFFCURVE",
"569 408 OFFCURVE",
"533 408 CURVE SMOOTH",
"497 408 OFFCURVE",
"463 379 OFFCURVE",
"458 343 CURVE SMOOTH",
"453 306 OFFCURVE",
"479 277 OFFCURVE",
"515 277 CURVE SMOOTH"
);
}
);
width = 598;
},
{
anchors = (
{
name = bottom;
position = "{283, 0}";
},
{
name = center;
position = "{421, 364}";
},
{
name = top;
position = "{224, 660}";
},
{
name = topright;
position = "{451, 701}";
}
);
layerId = "99EB5860-B45A-4B60-BB0B-F826C8F71D42";
name = "Bold Italic";
paths = (
{
closed = 1;
nodes = (
"108 660 LINE",
"15 0 LINE",
"248 0 LINE",
"341 660 LINE"
);
},
{
closed = 1;
nodes = (
"153 183 LINE",
"127 0 LINE",
"547 0 LINE",
"573 183 LINE"
);
},
{
closed = 1;
nodes = (
"588 252 OFFCURVE",
"645 302 OFFCURVE",
"654 364 CURVE SMOOTH",
"663 426 OFFCURVE",
"620 476 OFFCURVE",
"558 476 CURVE SMOOTH",
"496 476 OFFCURVE",
"439 426 OFFCURVE",
"430 364 CURVE SMOOTH",
"421 302 OFFCURVE",
"464 252 OFFCURVE",
"526 252 CURVE SMOOTH"
);
}
);
width = 661;
}
);
leftKerningGroup = I;
leftMetricsKey = L;
unicode = 013F;
},
{
color = 4;
glyphname = Lslash;
lastChange = "2016-04-09 01:28:02 +0000";
layers = (
{
anchors = (
{
name = bottom;
position = "{339, 0}";
},
{
name = center;
position = "{489, 342}";
},
{
name = top;
position = "{218, 660}";
},
{
name = topright;
position = "{375, 700}";
}
);
layerId = "4A17B37A-CBFD-40E5-9E02-2080A0E1F76C";
name = "Regular Italic";
paths = (
{
closed = 1;
nodes = (
"27 279 LINE",
"15 196 LINE",
"406 398 LINE",
"417 481 LINE"
);
},
{
closed = 1;
nodes = (
"178 660 LINE",
"85 0 LINE",
"165 0 LINE",
"258 660 LINE"
);
},
{
closed = 1;
nodes = (
"137 75 LINE",
"127 0 LINE",
"543 0 LINE",
"553 75 LINE"
);
}
);
width = 608;
},
{
anchors = (
{
name = bottom;
position = "{333, 0}";
},
{
name = center;
position = "{471, 364}";
},
{
name = top;
position = "{274, 660}";
},
{
name = topright;
position = "{501, 701}";
}
);
layerId = "99EB5860-B45A-4B60-BB0B-F826C8F71D42";
name = "Bold Italic";
paths = (
{
closed = 1;
nodes = (
"-7 299 LINE",
"-29 146 LINE",
"516 372 LINE",
"538 525 LINE"
);
},
{
closed = 1;
nodes = (
"158 660 LINE",
"65 0 LINE",
"298 0 LINE",
"391 660 LINE"
);
},
{
closed = 1;
nodes = (
"203 183 LINE",
"177 0 LINE",
"597 0 LINE",
"623 183 LINE"
);
}
);
width = 655;
},
{
anchors = (
{
name = bottom;
position = "{307, 0}";
},
{
name = center;
position = "{488, 335}";
},
{
name = top;
position = "{176, 660}";
},
{
name = topright;
position = "{335, 700}";
}
);
layerId = "1C7CD022-87C7-4E11-B656-E47B18819458";
name = "Light Italic";
paths = (
{
closed = 1;
nodes = (
"6 232 LINE",
"4 212 LINE",
"358 419 LINE",
"361 439 LINE"
);
},
{
closed = 1;
nodes = (
"168 660 LINE",
"75 0 LINE",
"91 0 LINE",
"184 660 LINE"
);
},
{
closed = 1;
nodes = (
"83 14 LINE",
"81 0 LINE",
"507 0 LINE",
"509 14 LINE"
);
}
);
width = 554;
}
);
leftKerningGroup = I;
rightKerningGroup = L;
unicode = 0141;
},
{
color = 4;
glyphname = M;
lastChange = "2016-04-09 01:28:03 +0000";
layers = (
{
layerId = "4A17B37A-CBFD-40E5-9E02-2080A0E1F76C";
name = "Regular Italic";
paths = (
{
closed = 1;
nodes = (
"658 660 LINE",
"457 258 LINE",
"383 94 LINE",
"381 94 LINE",
"354 259 LINE",
"266 660 LINE",
"143 660 LINE",
"50 0 LINE",
"126 0 LINE",
"184 415 LINE",
"200 589 LINE",
"201 589 LINE",
"335 0 LINE",
"403 0 LINE",
"703 589 LINE",
"704 589 LINE",
"670 415 LINE",
"612 0 LINE",
"688 0 LINE",
"781 660 LINE"
);
}
);
width = 808;
},
{
layerId = "99EB5860-B45A-4B60-BB0B-F826C8F71D42";
leftMetricsKey = "=I";
rightMetricsKey = "=I";
name = "Bold Italic";
paths = (
{
closed = 1;
nodes = (
"645 660 LINE",
"527 367 LINE",
"481 244 LINE",
"479 244 LINE",
"467 367 LINE",
"433 660 LINE",
"108 660 LINE",
"15 0 LINE",
"218 0 LINE",
"250 229 LINE",
"273 411 LINE",
"277 411 LINE",
"345 0 LINE",
"531 0 LINE",
"717 411 LINE",
"720 411 LINE",
"691 229 LINE",
"659 0 LINE",
"862 0 LINE",
"955 660 LINE"
);
}
);
width = 947;
},
{
layerId = "1C7CD022-87C7-4E11-B656-E47B18819458";
name = "Light Italic";
paths = (
{
closed = 1;
nodes = (
"724 660 LINE",
"376 47 LINE",
"361 19 LINE",
"361 19 LINE",
"353 48 LINE",
"178 660 LINE",
"157 660 LINE",
"64 0 LINE",
"80 0 LINE",
"161 580 LINE",
"168 637 LINE",
"168 637 LINE",
"348 0 LINE",
"368 0 LINE",
"726 637 LINE",
"726 637 LINE",
"717 580 LINE",
"636 0 LINE",
"652 0 LINE",
"745 660 LINE"
);
}
);
width = 786;
}
);
leftKerningGroup = I;
rightKerningGroup = I;
unicode = 004D;
},
{
color = 4;
glyphname = N;
lastChange = "2016-04-09 01:28:01 +0000";
layers = (
{
anchors = (
{
name = bottom;
position = "{352, 0}";
},
{
name = top;
position = "{419, 660}";
}
);
layerId = "4A17B37A-CBFD-40E5-9E02-2080A0E1F76C";
name = "Regular Italic";
paths = (
{
closed = 1;
nodes = (
"598 660 LINE",
"532 194 LINE",
"521 88 LINE",
"520 88 LINE",
"468 220 LINE",
"255 660 LINE",
"156 660 LINE",
"63 0 LINE",
"139 0 LINE",
"204 466 LINE",
"215 572 LINE",
"216 572 LINE",
"268 442 LINE",
"482 0 LINE",
"581 0 LINE",
"674 660 LINE"
);
}
);
width = 714;
},
{
anchors = (
{
name = bottom;
position = "{339, 0}";
},
{
name = top;
position = "{431, 660}";
}
);
layerId = "99EB5860-B45A-4B60-BB0B-F826C8F71D42";
name = "Bold Italic";
paths = (
{
closed = 1;
nodes = (
"552 660 LINE",
"519 425 LINE",
"505 301 LINE",
"503 301 LINE",
"477 369 LINE",
"360 660 LINE",
"108 660 LINE",
"15 0 LINE",
"217 0 LINE",
"250 235 LINE",
"264 364 LINE",
"266 364 LINE",
"292 290 LINE",
"409 0 LINE",
"661 0 LINE",
"754 660 LINE"
);
}
);
width = 746;
},
{
anchors = (
{
name = bottom;
position = "{293, 0}";
},
{
name = top;
position = "{392, 660}";
}
);
layerId = "1C7CD022-87C7-4E11-B656-E47B18819458";
name = "Light Italic";
paths = (
{
closed = 1;
nodes = (
"618 660 LINE",
"535 73 LINE",
"528 16 LINE",
"528 16 LINE",
"508 55 LINE",
"160 660 LINE",
"138 660 LINE",
"45 0 LINE",
"61 0 LINE",
"143 587 LINE",
"150 644 LINE",
"150 644 LINE",
"171 605 LINE",
"519 0 LINE",
"541 0 LINE",
"634 660 LINE"
);
}
);
width = 656;
}
);
leftKerningGroup = I;
rightKerningGroup = I;
unicode = 004E;
},
{
color = 4;
glyphname = Nacute;
lastChange = "2016-04-09 01:28:02 +0000";
layers = (
{
anchors = (
{
name = bottom;
position = "{352, 0}";
},
{
name = top;
position = "{419, 660}";
}
);
layerId = "4A17B37A-CBFD-40E5-9E02-2080A0E1F76C";
name = "Regular Italic";
paths = (
{
closed = 1;
nodes = (
"598 660 LINE",
"532 194 LINE",
"521 88 LINE",
"520 88 LINE",
"468 220 LINE",
"255 660 LINE",
"156 660 LINE",
"63 0 LINE",
"139 0 LINE",
"204 466 LINE",
"215 572 LINE",
"216 572 LINE",
"268 442 LINE",
"482 0 LINE",
"581 0 LINE",
"674 660 LINE"
);
},
{
closed = 1;
nodes = (
"388 743 LINE",
"469 743 LINE",
"551 891 LINE",
"466 891 LINE"
);
}
);
width = 714;
},
{
anchors = (
{
name = bottom;
position = "{339, 0}";
},
{
name = top;
position = "{431, 660}";
}
);
layerId = "99EB5860-B45A-4B60-BB0B-F826C8F71D42";
name = "Bold Italic";
paths = (
{
closed = 1;
nodes = (
"552 660 LINE",
"519 425 LINE",
"505 301 LINE",
"503 301 LINE",
"477 369 LINE",
"360 660 LINE",
"108 660 LINE",
"15 0 LINE",
"217 0 LINE",
"250 235 LINE",
"264 364 LINE",
"266 364 LINE",
"292 290 LINE",
"409 0 LINE",
"661 0 LINE",
"754 660 LINE"
);
},
{
closed = 1;
nodes = (
"347 709 LINE",
"524 709 LINE",
"614 876 LINE",
"423 876 LINE"
);
}
);
width = 746;
},
{
anchors = (
{
name = bottom;
position = "{293, 0}";
},
{
name = top;
position = "{392, 660}";
}
);
layerId = "1C7CD022-87C7-4E11-B656-E47B18819458";
name = "Light Italic";
paths = (
{
closed = 1;
nodes = (
"618 660 LINE",
"535 73 LINE",
"528 16 LINE",
"528 16 LINE",
"508 55 LINE",
"160 660 LINE",
"138 660 LINE",
"45 0 LINE",
"61 0 LINE",
"143 587 LINE",
"150 644 LINE",
"150 644 LINE",
"171 605 LINE",
"519 0 LINE",
"541 0 LINE",
"634 660 LINE"
);
},
{
closed = 1;
nodes = (
"402 743 LINE",
"418 743 LINE",
"514 891 LINE",
"498 891 LINE"
);
}
);
width = 656;
}
);
leftKerningGroup = I;
rightKerningGroup = I;
unicode = 0143;
},
{
color = 4;
glyphname = Ncaron;
lastChange = "2016-04-09 01:28:01 +0000";
layers = (
{
anchors = (
{
name = bottom;
position = "{352, 0}";
},
{
name = top;
position = "{419, 660}";
}
);
layerId = "4A17B37A-CBFD-40E5-9E02-2080A0E1F76C";
name = "Regular Italic";
paths = (
{
closed = 1;
nodes = (
"598 660 LINE",
"532 194 LINE",
"521 88 LINE",
"520 88 LINE",
"468 220 LINE",
"255 660 LINE",
"156 660 LINE",
"63 0 LINE",
"139 0 LINE",
"204 466 LINE",
"215 572 LINE",
"216 572 LINE",
"268 442 LINE",
"482 0 LINE",
"581 0 LINE",
"674 660 LINE"
);
},
{
closed = 1;
nodes = (
"539 905 LINE",
"437 790 LINE",
"367 905 LINE",
"294 905 LINE",
"385 738 LINE",
"475 738 LINE",
"612 905 LINE"
);
}
);
width = 714;
},
{
anchors = (
{
name = bottom;
position = "{339, 0}";
},
{
name = top;
position = "{431, 660}";
}
);
layerId = "99EB5860-B45A-4B60-BB0B-F826C8F71D42";
name = "Bold Italic";
paths = (
{
closed = 1;
nodes = (
"552 660 LINE",
"519 425 LINE",
"505 301 LINE",
"503 301 LINE",
"477 369 LINE",
"360 660 LINE",
"108 660 LINE",
"15 0 LINE",
"217 0 LINE",
"250 235 LINE",
"264 364 LINE",
"266 364 LINE",
"292 290 LINE",
"409 0 LINE",
"661 0 LINE",
"754 660 LINE"
);
},
{
closed = 1;
nodes = (
"499 876 LINE",
"445 807 LINE",
"411 876 LINE",
"240 876 LINE",
"325 709 LINE",
"539 709 LINE",
"670 876 LINE"
);
}
);
width = 746;
},
{
anchors = (
{
name = bottom;
position = "{293, 0}";
},
{
name = top;
position = "{392, 660}";
}
);
layerId = "1C7CD022-87C7-4E11-B656-E47B18819458";
name = "Light Italic";
paths = (
{
closed = 1;
nodes = (
"618 660 LINE",
"535 73 LINE",
"528 16 LINE",
"528 16 LINE",
"508 55 LINE",
"160 660 LINE",
"138 660 LINE",
"45 0 LINE",
"61 0 LINE",
"143 587 LINE",
"150 644 LINE",
"150 644 LINE",
"171 605 LINE",
"519 0 LINE",
"541 0 LINE",
"634 660 LINE"
);
},
{
closed = 1;
nodes = (
"525 885 LINE",
"405 756 LINE",
"321 885 LINE",
"304 885 LINE",
"393 743 LINE",
"413 743 LINE",
"542 885 LINE"
);
}
);
width = 656;
}
);
leftKerningGroup = I;
rightKerningGroup = I;
unicode = 0147;
},
{
color = 4;
glyphname = Ntilde;
lastChange = "2016-04-09 01:28:03 +0000";
layers = (
{
anchors = (
{
name = bottom;
position = "{352, 0}";
},
{
name = top;
position = "{419, 660}";
}
);
layerId = "4A17B37A-CBFD-40E5-9E02-2080A0E1F76C";
name = "Regular Italic";
paths = (
{
closed = 1;
nodes = (
"598 660 LINE",
"532 194 LINE",
"521 88 LINE",
"520 88 LINE",
"468 220 LINE",
"255 660 LINE",
"156 660 LINE",
"63 0 LINE",
"139 0 LINE",
"204 466 LINE",
"215 572 LINE",
"216 572 LINE",
"268 442 LINE",
"482 0 LINE",
"581 0 LINE",
"674 660 LINE"
);
},
{
closed = 1;
nodes = (
"566 877 LINE",
"553 834 OFFCURVE",
"536 808 OFFCURVE",
"506 808 CURVE SMOOTH",
"466 808 OFFCURVE",
"453 876 OFFCURVE",
"380 876 CURVE SMOOTH",
"309 876 OFFCURVE",
"268 830 OFFCURVE",
"248 742 CURVE",
"311 742 LINE",
"324 785 OFFCURVE",
"340 811 OFFCURVE",
"370 811 CURVE SMOOTH",
"413 811 OFFCURVE",
"423 743 OFFCURVE",
"498 743 CURVE SMOOTH",
"567 743 OFFCURVE",
"610 789 OFFCURVE",
"629 877 CURVE"
);
}
);
width = 714;
},
{
anchors = (
{
name = bottom;
position = "{339, 0}";
},
{
name = top;
position = "{431, 660}";
}
);
layerId = "99EB5860-B45A-4B60-BB0B-F826C8F71D42";
name = "Bold Italic";
paths = (
{
closed = 1;
nodes = (
"552 660 LINE",
"519 425 LINE",
"505 301 LINE",
"503 301 LINE",
"477 369 LINE",
"360 660 LINE",
"108 660 LINE",
"15 0 LINE",
"217 0 LINE",
"250 235 LINE",
"264 364 LINE",
"266 364 LINE",
"292 290 LINE",
"409 0 LINE",
"661 0 LINE",
"754 660 LINE"
);
},
{
closed = 1;
nodes = (
"553 879 LINE",
"546 845 OFFCURVE",
"535 831 OFFCURVE",
"517 831 CURVE SMOOTH",
"480 831 OFFCURVE",
"477 881 OFFCURVE",
"398 881 CURVE SMOOTH",
"307 881 OFFCURVE",
"247 825 OFFCURVE",
"227 705 CURVE",
"345 705 LINE",
"353 739 OFFCURVE",
"365 753 OFFCURVE",
"382 753 CURVE SMOOTH",
"419 753 OFFCURVE",
"422 703 OFFCURVE",
"501 703 CURVE SMOOTH",
"592 703 OFFCURVE",
"652 759 OFFCURVE",
"671 879 CURVE"
);
}
);
width = 746;
},
{
anchors = (
{
name = bottom;
position = "{293, 0}";
},
{
name = top;
position = "{392, 660}";
}
);
layerId = "1C7CD022-87C7-4E11-B656-E47B18819458";
name = "Light Italic";
paths = (
{
closed = 1;
nodes = (
"618 660 LINE",
"535 73 LINE",
"528 16 LINE",
"528 16 LINE",
"508 55 LINE",
"160 660 LINE",
"138 660 LINE",
"45 0 LINE",
"61 0 LINE",
"143 587 LINE",
"150 644 LINE",
"150 644 LINE",
"171 605 LINE",
"519 0 LINE",
"541 0 LINE",
"634 660 LINE"
);
},
{
closed = 1;
nodes = (
"561 843 LINE",
"545 798 OFFCURVE",
"528 773 OFFCURVE",
"482 773 CURVE SMOOTH",
"414 773 OFFCURVE",
"423 842 OFFCURVE",
"345 842 CURVE SMOOTH",
"295 842 OFFCURVE",
"267 815 OFFCURVE",
"248 758 CURVE",
"263 758 LINE",
"280 803 OFFCURVE",
"296 828 OFFCURVE",
"342 828 CURVE SMOOTH",
"411 828 OFFCURVE",
"401 759 OFFCURVE",
"480 759 CURVE SMOOTH",
"530 759 OFFCURVE",
"557 786 OFFCURVE",
"576 843 CURVE"
);
}
);
width = 656;
}
);
leftKerningGroup = I;
rightKerningGroup = I;
unicode = 00D1;
},
{
color = 4;
glyphname = O;
lastChange = "2016-04-09 01:28:01 +0000";
layers = (
{
anchors = (
{
name = top;
position = "{432, 660}";
}
);
layerId = "4A17B37A-CBFD-40E5-9E02-2080A0E1F76C";
name = "Regular Italic";
paths = (
{
closed = 1;
nodes = (
"20 143 OFFCURVE",
"151 -9 OFFCURVE",
"337 -9 CURVE",
"523 -9 OFFCURVE",
"696 143 OFFCURVE",
"722 331 CURVE",
"749 517 OFFCURVE",
"618 669 OFFCURVE",
"432 669 CURVE",
"246 669 OFFCURVE",
"73 517 OFFCURVE",
"46 331 CURVE"
);
},
{
closed = 1;
nodes = (
"143 474 OFFCURVE",
"278 592 OFFCURVE",
"421 592 CURVE",
"564 592 OFFCURVE",
"664 474 OFFCURVE",
"644 330 CURVE",
"624 187 OFFCURVE",
"491 69 OFFCURVE",
"348 69 CURVE",
"205 69 OFFCURVE",
"103 187 OFFCURVE",
"123 330 CURVE"
);
}
);
width = 746;
},
{
anchors = (
{
name = top;
position = "{429, 660}";
}
);
layerId = "99EB5860-B45A-4B60-BB0B-F826C8F71D42";
name = "Bold Italic";
paths = (
{
closed = 1;
nodes = (
"13 138 OFFCURVE",
"145 -15 OFFCURVE",
"335 -15 CURVE",
"525 -15 OFFCURVE",
"699 138 OFFCURVE",
"726 328 CURVE",
"753 518 OFFCURVE",
"621 671 OFFCURVE",
"431 671 CURVE",
"241 671 OFFCURVE",
"67 518 OFFCURVE",
"40 328 CURVE"
);
},
{
closed = 1;
nodes = (
"263 400 OFFCURVE",
"329 459 OFFCURVE",
"401 459 CURVE",
"475 459 OFFCURVE",
"525 400 OFFCURVE",
"515 328 CURVE",
"505 257 OFFCURVE",
"439 197 OFFCURVE",
"365 197 CURVE",
"293 197 OFFCURVE",
"243 257 OFFCURVE",
"253 328 CURVE"
);
}
);
width = 745;
},
{
anchors = (
{
name = top;
position = "{452, 660}";
}
);
layerId = "1C7CD022-87C7-4E11-B656-E47B18819458";
name = "Light Italic";
paths = (
{
closed = 1;
nodes = (
"34 138 OFFCURVE",
"166 -17 OFFCURVE",
"359 -17 CURVE SMOOTH",
"550 -17 OFFCURVE",
"727 138 OFFCURVE",
"754 330 CURVE SMOOTH",
"781 522 OFFCURVE",
"648 677 OFFCURVE",
"456 677 CURVE SMOOTH",
"264 677 OFFCURVE",
"88 522 OFFCURVE",
"61 330 CURVE SMOOTH"
);
},
{
closed = 1;
nodes = (
"103 512 OFFCURVE",
"272 660 OFFCURVE",
"454 660 CURVE SMOOTH",
"636 660 OFFCURVE",
"763 512 OFFCURVE",
"737 330 CURVE SMOOTH",
"712 148 OFFCURVE",
"543 0 OFFCURVE",
"361 0 CURVE SMOOTH",
"179 0 OFFCURVE",
"52 148 OFFCURVE",
"77 330 CURVE SMOOTH"
);
}
);
width = 792;
}
);
leftKerningGroup = O;
rightKerningGroup = O;
unicode = 004F;
},
{
color = 4;
glyphname = Oacute;
lastChange = "2016-04-09 01:28:02 +0000";
layers = (
{
anchors = (
{
name = top;
position = "{432, 660}";
}
);
layerId = "4A17B37A-CBFD-40E5-9E02-2080A0E1F76C";
name = "Regular Italic";
paths = (
{
closed = 1;
nodes = (
"20 143 OFFCURVE",
"151 -9 OFFCURVE",
"337 -9 CURVE",
"523 -9 OFFCURVE",
"696 143 OFFCURVE",
"722 331 CURVE",
"749 517 OFFCURVE",
"618 669 OFFCURVE",
"432 669 CURVE",
"246 669 OFFCURVE",
"73 517 OFFCURVE",
"46 331 CURVE"
);
},
{
closed = 1;
nodes = (
"143 474 OFFCURVE",
"278 592 OFFCURVE",
"421 592 CURVE",
"564 592 OFFCURVE",
"664 474 OFFCURVE",
"644 330 CURVE",
"624 187 OFFCURVE",
"491 69 OFFCURVE",
"348 69 CURVE",
"205 69 OFFCURVE",
"103 187 OFFCURVE",
"123 330 CURVE"
);
},
{
closed = 1;
nodes = (
"401 743 LINE",
"482 743 LINE",
"564 891 LINE",
"479 891 LINE"
);
}
);
width = 746;
},
{
anchors = (
{
name = top;
position = "{429, 660}";
}
);
layerId = "99EB5860-B45A-4B60-BB0B-F826C8F71D42";
name = "Bold Italic";
paths = (
{
closed = 1;
nodes = (
"13 138 OFFCURVE",
"145 -15 OFFCURVE",
"335 -15 CURVE",
"525 -15 OFFCURVE",
"699 138 OFFCURVE",
"726 328 CURVE",
"753 518 OFFCURVE",
"621 671 OFFCURVE",
"431 671 CURVE",
"241 671 OFFCURVE",
"67 518 OFFCURVE",
"40 328 CURVE"
);
},
{
closed = 1;
nodes = (
"263 400 OFFCURVE",
"329 459 OFFCURVE",
"401 459 CURVE",
"475 459 OFFCURVE",
"525 400 OFFCURVE",
"515 328 CURVE",
"505 257 OFFCURVE",
"439 197 OFFCURVE",
"365 197 CURVE",
"293 197 OFFCURVE",
"243 257 OFFCURVE",
"253 328 CURVE"
);
},
{
closed = 1;
nodes = (
"345 709 LINE",
"522 709 LINE",
"612 876 LINE",
"421 876 LINE"
);
}
);
width = 745;
},
{
anchors = (
{
name = top;
position = "{452, 660}";
}
);
layerId = "1C7CD022-87C7-4E11-B656-E47B18819458";
name = "Light Italic";
paths = (
{
closed = 1;
nodes = (
"34 138 OFFCURVE",
"166 -17 OFFCURVE",
"359 -17 CURVE SMOOTH",
"550 -17 OFFCURVE",
"727 138 OFFCURVE",
"754 330 CURVE SMOOTH",
"781 522 OFFCURVE",
"648 677 OFFCURVE",
"456 677 CURVE SMOOTH",
"264 677 OFFCURVE",
"88 522 OFFCURVE",
"61 330 CURVE SMOOTH"
);
},
{
closed = 1;
nodes = (
"103 512 OFFCURVE",
"272 660 OFFCURVE",
"454 660 CURVE SMOOTH",
"636 660 OFFCURVE",
"763 512 OFFCURVE",
"737 330 CURVE SMOOTH",
"712 148 OFFCURVE",
"543 0 OFFCURVE",
"361 0 CURVE SMOOTH",
"179 0 OFFCURVE",
"52 148 OFFCURVE",
"77 330 CURVE SMOOTH"
);
},
{
closed = 1;
nodes = (
"462 743 LINE",
"478 743 LINE",
"574 891 LINE",
"558 891 LINE"
);
}
);
width = 792;
}
);
leftKerningGroup = O;
rightKerningGroup = O;
unicode = 00D3;
},
{
color = 4;
glyphname = Ocircumflex;
lastChange = "2016-04-09 01:28:01 +0000";
layers = (
{
anchors = (
{
name = top;
position = "{432, 660}";
}
);
layerId = "4A17B37A-CBFD-40E5-9E02-2080A0E1F76C";
name = "Regular Italic";
paths = (
{
closed = 1;
nodes = (
"20 143 OFFCURVE",
"151 -9 OFFCURVE",
"337 -9 CURVE",
"523 -9 OFFCURVE",
"696 143 OFFCURVE",
"722 331 CURVE",
"749 517 OFFCURVE",
"618 669 OFFCURVE",
"432 669 CURVE",
"246 669 OFFCURVE",
"73 517 OFFCURVE",
"46 331 CURVE"
);
},
{
closed = 1;
nodes = (
"143 474 OFFCURVE",
"278 592 OFFCURVE",
"421 592 CURVE",
"564 592 OFFCURVE",
"664 474 OFFCURVE",
"644 330 CURVE",
"624 187 OFFCURVE",
"491 69 OFFCURVE",
"348 69 CURVE",
"205 69 OFFCURVE",
"103 187 OFFCURVE",
"123 330 CURVE"
);
},
{
closed = 1;
nodes = (
"511 903 LINE",
"421 903 LINE",
"283 736 LINE",
"356 736 LINE",
"458 851 LINE",
"528 736 LINE",
"601 736 LINE"
);
}
);
width = 746;
},
{
anchors = (
{
name = top;
position = "{429, 660}";
}
);
layerId = "99EB5860-B45A-4B60-BB0B-F826C8F71D42";
name = "Bold Italic";
paths = (
{
closed = 1;
nodes = (
"13 138 OFFCURVE",
"145 -15 OFFCURVE",
"335 -15 CURVE",
"525 -15 OFFCURVE",
"699 138 OFFCURVE",
"726 328 CURVE",
"753 518 OFFCURVE",
"621 671 OFFCURVE",
"431 671 CURVE",
"241 671 OFFCURVE",
"67 518 OFFCURVE",
"40 328 CURVE"
);
},
{
closed = 1;
nodes = (
"263 400 OFFCURVE",
"329 459 OFFCURVE",
"401 459 CURVE",
"475 459 OFFCURVE",
"525 400 OFFCURVE",
"515 328 CURVE",
"505 257 OFFCURVE",
"439 197 OFFCURVE",
"365 197 CURVE",
"293 197 OFFCURVE",
"243 257 OFFCURVE",
"253 328 CURVE"
);
},
{
closed = 1;
nodes = (
"566 876 LINE",
"352 876 LINE",
"221 709 LINE",
"392 709 LINE",
"445 778 LINE",
"480 709 LINE",
"651 709 LINE"
);
}
);
width = 745;
},
{
anchors = (
{
name = top;
position = "{452, 660}";
}
);
layerId = "1C7CD022-87C7-4E11-B656-E47B18819458";
name = "Light Italic";
paths = (
{
closed = 1;
nodes = (
"34 138 OFFCURVE",
"166 -17 OFFCURVE",
"359 -17 CURVE SMOOTH",
"550 -17 OFFCURVE",
"727 138 OFFCURVE",
"754 330 CURVE SMOOTH",
"781 522 OFFCURVE",
"648 677 OFFCURVE",
"456 677 CURVE SMOOTH",
"264 677 OFFCURVE",
"88 522 OFFCURVE",
"61 330 CURVE SMOOTH"
);
},
{
closed = 1;
nodes = (
"103 512 OFFCURVE",
"272 660 OFFCURVE",
"454 660 CURVE SMOOTH",
"636 660 OFFCURVE",
"763 512 OFFCURVE",
"737 330 CURVE SMOOTH",
"712 148 OFFCURVE",
"543 0 OFFCURVE",
"361 0 CURVE SMOOTH",
"179 0 OFFCURVE",
"52 148 OFFCURVE",
"77 330 CURVE SMOOTH"
);
},
{
closed = 1;
nodes = (
"493 885 LINE",
"473 885 LINE",
"344 743 LINE",
"361 743 LINE",
"481 872 LINE",
"565 743 LINE",
"582 743 LINE"
);
}
);
width = 792;
}
);
leftKerningGroup = O;
rightKerningGroup = O;
unicode = 00D4;
},
{
color = 4;
glyphname = Odieresis;
lastChange = "2016-04-09 01:28:01 +0000";
layers = (
{
anchors = (
{
name = top;
position = "{432, 660}";
}
);
layerId = "4A17B37A-CBFD-40E5-9E02-2080A0E1F76C";
name = "Regular Italic";
paths = (
{
closed = 1;
nodes = (
"20 143 OFFCURVE",
"151 -9 OFFCURVE",
"337 -9 CURVE",
"523 -9 OFFCURVE",
"696 143 OFFCURVE",
"722 331 CURVE",
"749 517 OFFCURVE",
"618 669 OFFCURVE",
"432 669 CURVE",
"246 669 OFFCURVE",
"73 517 OFFCURVE",
"46 331 CURVE"
);
},
{
closed = 1;
nodes = (
"143 474 OFFCURVE",
"278 592 OFFCURVE",
"421 592 CURVE",
"564 592 OFFCURVE",
"664 474 OFFCURVE",
"644 330 CURVE",
"624 187 OFFCURVE",
"491 69 OFFCURVE",
"348 69 CURVE",
"205 69 OFFCURVE",
"103 187 OFFCURVE",
"123 330 CURVE"
);
},
{
closed = 1;
nodes = (
"571 742 OFFCURVE",
"601 768 OFFCURVE",
"605 799 CURVE SMOOTH",
"610 830 OFFCURVE",
"587 856 OFFCURVE",
"556 856 CURVE SMOOTH",
"524 856 OFFCURVE",
"496 830 OFFCURVE",
"491 799 CURVE SMOOTH",
"487 768 OFFCURVE",
"508 742 OFFCURVE",
"540 742 CURVE SMOOTH"
);
},
{
closed = 1;
nodes = (
"377 742 OFFCURVE",
"407 768 OFFCURVE",
"411 799 CURVE SMOOTH",
"416 830 OFFCURVE",
"393 856 OFFCURVE",
"362 856 CURVE SMOOTH",
"330 856 OFFCURVE",
"302 830 OFFCURVE",
"297 799 CURVE SMOOTH",
"293 768 OFFCURVE",
"314 742 OFFCURVE",
"346 742 CURVE SMOOTH"
);
}
);
width = 746;
},
{
anchors = (
{
name = top;
position = "{429, 660}";
}
);
layerId = "99EB5860-B45A-4B60-BB0B-F826C8F71D42";
name = "Bold Italic";
paths = (
{
closed = 1;
nodes = (
"13 138 OFFCURVE",
"145 -15 OFFCURVE",
"335 -15 CURVE",
"525 -15 OFFCURVE",
"699 138 OFFCURVE",
"726 328 CURVE",
"753 518 OFFCURVE",
"621 671 OFFCURVE",
"431 671 CURVE",
"241 671 OFFCURVE",
"67 518 OFFCURVE",
"40 328 CURVE"
);
},
{
closed = 1;
nodes = (
"263 400 OFFCURVE",
"329 459 OFFCURVE",
"401 459 CURVE",
"475 459 OFFCURVE",
"525 400 OFFCURVE",
"515 328 CURVE",
"505 257 OFFCURVE",
"439 197 OFFCURVE",
"365 197 CURVE",
"293 197 OFFCURVE",
"243 257 OFFCURVE",
"253 328 CURVE"
);
},
{
closed = 1;
nodes = (
"608 697 OFFCURVE",
"660 743 OFFCURVE",
"668 799 CURVE SMOOTH",
"676 856 OFFCURVE",
"637 902 OFFCURVE",
"580 902 CURVE SMOOTH",
"524 902 OFFCURVE",
"471 856 OFFCURVE",
"463 799 CURVE SMOOTH",
"455 743 OFFCURVE",
"495 697 OFFCURVE",
"551 697 CURVE SMOOTH"
);
},
{
closed = 1;
nodes = (
"373 697 OFFCURVE",
"425 743 OFFCURVE",
"433 799 CURVE SMOOTH",
"441 856 OFFCURVE",
"402 902 OFFCURVE",
"345 902 CURVE SMOOTH",
"289 902 OFFCURVE",
"236 856 OFFCURVE",
"228 799 CURVE SMOOTH",
"220 743 OFFCURVE",
"260 697 OFFCURVE",
"316 697 CURVE SMOOTH"
);
}
);
width = 745;
},
{
anchors = (
{
name = top;
position = "{452, 660}";
}
);
layerId = "1C7CD022-87C7-4E11-B656-E47B18819458";
name = "Light Italic";
paths = (
{
closed = 1;
nodes = (
"34 138 OFFCURVE",
"166 -17 OFFCURVE",
"359 -17 CURVE SMOOTH",
"550 -17 OFFCURVE",
"727 138 OFFCURVE",
"754 330 CURVE SMOOTH",
"781 522 OFFCURVE",
"648 677 OFFCURVE",
"456 677 CURVE SMOOTH",
"264 677 OFFCURVE",
"88 522 OFFCURVE",
"61 330 CURVE SMOOTH"
);
},
{
closed = 1;
nodes = (
"103 512 OFFCURVE",
"272 660 OFFCURVE",
"454 660 CURVE SMOOTH",
"636 660 OFFCURVE",
"763 512 OFFCURVE",
"737 330 CURVE SMOOTH",
"712 148 OFFCURVE",
"543 0 OFFCURVE",
"361 0 CURVE SMOOTH",
"179 0 OFFCURVE",
"52 148 OFFCURVE",
"77 330 CURVE SMOOTH"
);
},
{
closed = 1;
nodes = (
"573 758 OFFCURVE",
"585 767 OFFCURVE",
"586 780 CURVE SMOOTH",
"588 792 OFFCURVE",
"579 801 OFFCURVE",
"568 801 CURVE SMOOTH",
"555 801 OFFCURVE",
"544 792 OFFCURVE",
"542 780 CURVE SMOOTH",
"541 767 OFFCURVE",
"549 758 OFFCURVE",
"562 758 CURVE SMOOTH"
);
},
{
closed = 1;
nodes = (
"389 758 OFFCURVE",
"401 767 OFFCURVE",
"402 780 CURVE SMOOTH",
"404 792 OFFCURVE",
"395 801 OFFCURVE",
"384 801 CURVE SMOOTH",
"371 801 OFFCURVE",
"360 792 OFFCURVE",
"358 780 CURVE SMOOTH",
"357 767 OFFCURVE",
"365 758 OFFCURVE",
"378 758 CURVE SMOOTH"
);
}
);
width = 792;
}
);
leftKerningGroup = O;
rightKerningGroup = O;
unicode = 00D6;
},
{
color = 4;
glyphname = Ograve;
lastChange = "2016-04-09 01:28:03 +0000";
layers = (
{
anchors = (
{
name = top;
position = "{432, 660}";
}
);
layerId = "4A17B37A-CBFD-40E5-9E02-2080A0E1F76C";
name = "Regular Italic";
paths = (
{
closed = 1;
nodes = (
"20 143 OFFCURVE",
"151 -9 OFFCURVE",
"337 -9 CURVE",
"523 -9 OFFCURVE",
"696 143 OFFCURVE",
"722 331 CURVE",
"749 517 OFFCURVE",
"618 669 OFFCURVE",
"432 669 CURVE",
"246 669 OFFCURVE",
"73 517 OFFCURVE",
"46 331 CURVE"
);
},
{
closed = 1;
nodes = (
"143 474 OFFCURVE",
"278 592 OFFCURVE",
"421 592 CURVE",
"564 592 OFFCURVE",
"664 474 OFFCURVE",
"644 330 CURVE",
"624 187 OFFCURVE",
"491 69 OFFCURVE",
"348 69 CURVE",
"205 69 OFFCURVE",
"103 187 OFFCURVE",
"123 330 CURVE"
);
},
{
closed = 1;
nodes = (
"355 891 LINE",
"395 743 LINE",
"476 743 LINE",
"440 891 LINE"
);
}
);
width = 746;
},
{
anchors = (
{
name = top;
position = "{429, 660}";
}
);
layerId = "99EB5860-B45A-4B60-BB0B-F826C8F71D42";
name = "Bold Italic";
paths = (
{
closed = 1;
nodes = (
"13 138 OFFCURVE",
"145 -15 OFFCURVE",
"335 -15 CURVE",
"525 -15 OFFCURVE",
"699 138 OFFCURVE",
"726 328 CURVE",
"753 518 OFFCURVE",
"621 671 OFFCURVE",
"431 671 CURVE",
"241 671 OFFCURVE",
"67 518 OFFCURVE",
"40 328 CURVE"
);
},
{
closed = 1;
nodes = (
"263 400 OFFCURVE",
"329 459 OFFCURVE",
"401 459 CURVE",
"475 459 OFFCURVE",
"525 400 OFFCURVE",
"515 328 CURVE",
"505 257 OFFCURVE",
"439 197 OFFCURVE",
"365 197 CURVE",
"293 197 OFFCURVE",
"243 257 OFFCURVE",
"253 328 CURVE"
);
},
{
closed = 1;
nodes = (
"299 876 LINE",
"343 709 LINE",
"520 709 LINE",
"490 876 LINE"
);
}
);
width = 745;
},
{
anchors = (
{
name = top;
position = "{452, 660}";
}
);
layerId = "1C7CD022-87C7-4E11-B656-E47B18819458";
name = "Light Italic";
paths = (
{
closed = 1;
nodes = (
"34 138 OFFCURVE",
"166 -17 OFFCURVE",
"359 -17 CURVE SMOOTH",
"550 -17 OFFCURVE",
"727 138 OFFCURVE",
"754 330 CURVE SMOOTH",
"781 522 OFFCURVE",
"648 677 OFFCURVE",
"456 677 CURVE SMOOTH",
"264 677 OFFCURVE",
"88 522 OFFCURVE",
"61 330 CURVE SMOOTH"
);
},
{
closed = 1;
nodes = (
"103 512 OFFCURVE",
"272 660 OFFCURVE",
"454 660 CURVE SMOOTH",
"636 660 OFFCURVE",
"763 512 OFFCURVE",
"737 330 CURVE SMOOTH",
"712 148 OFFCURVE",
"543 0 OFFCURVE",
"361 0 CURVE SMOOTH",
"179 0 OFFCURVE",
"52 148 OFFCURVE",
"77 330 CURVE SMOOTH"
);
},
{
closed = 1;
nodes = (
"421 891 LINE",
"475 743 LINE",
"491 743 LINE",
"437 891 LINE"
);
}
);
width = 792;
}
);
leftKerningGroup = O;
rightKerningGroup = O;
unicode = 00D2;
},
{
color = 4;
glyphname = Ohungarumlaut;
lastChange = "2016-04-09 01:28:03 +0000";
layers = (
{
anchors = (
{
name = top;
position = "{432, 660}";
}
);
layerId = "4A17B37A-CBFD-40E5-9E02-2080A0E1F76C";
name = "Regular Italic";
paths = (
{
closed = 1;
nodes = (
"20 143 OFFCURVE",
"151 -9 OFFCURVE",
"337 -9 CURVE",
"523 -9 OFFCURVE",
"696 143 OFFCURVE",
"722 331 CURVE",
"749 517 OFFCURVE",
"618 669 OFFCURVE",
"432 669 CURVE",
"246 669 OFFCURVE",
"73 517 OFFCURVE",
"46 331 CURVE"
);
},
{
closed = 1;
nodes = (
"143 474 OFFCURVE",
"278 592 OFFCURVE",
"421 592 CURVE",
"564 592 OFFCURVE",
"664 474 OFFCURVE",
"644 330 CURVE",
"624 187 OFFCURVE",
"491 69 OFFCURVE",
"348 69 CURVE",
"205 69 OFFCURVE",
"103 187 OFFCURVE",
"123 330 CURVE"
);
},
{
closed = 1;
nodes = (
"491 743 LINE",
"572 743 LINE",
"654 891 LINE",
"569 891 LINE"
);
},
{
closed = 1;
nodes = (
"314 743 LINE",
"395 743 LINE",
"477 891 LINE",
"392 891 LINE"
);
}
);
width = 746;
},
{
anchors = (
{
name = top;
position = "{429, 660}";
}
);
layerId = "99EB5860-B45A-4B60-BB0B-F826C8F71D42";
name = "Bold Italic";
paths = (
{
closed = 1;
nodes = (
"13 138 OFFCURVE",
"145 -15 OFFCURVE",
"335 -15 CURVE",
"525 -15 OFFCURVE",
"699 138 OFFCURVE",
"726 328 CURVE",
"753 518 OFFCURVE",
"621 671 OFFCURVE",
"431 671 CURVE",
"241 671 OFFCURVE",
"67 518 OFFCURVE",
"40 328 CURVE"
);
},
{
closed = 1;
nodes = (
"263 400 OFFCURVE",
"329 459 OFFCURVE",
"401 459 CURVE",
"475 459 OFFCURVE",
"525 400 OFFCURVE",
"515 328 CURVE",
"505 257 OFFCURVE",
"439 197 OFFCURVE",
"365 197 CURVE",
"293 197 OFFCURVE",
"243 257 OFFCURVE",
"253 328 CURVE"
);
},
{
closed = 1;
nodes = (
"467 709 LINE",
"644 709 LINE",
"734 876 LINE",
"543 876 LINE"
);
},
{
closed = 1;
nodes = (
"212 709 LINE",
"389 709 LINE",
"479 876 LINE",
"288 876 LINE"
);
}
);
width = 745;
},
{
anchors = (
{
name = top;
position = "{452, 660}";
}
);
layerId = "1C7CD022-87C7-4E11-B656-E47B18819458";
name = "Light Italic";
paths = (
{
closed = 1;
nodes = (
"34 138 OFFCURVE",
"166 -17 OFFCURVE",
"359 -17 CURVE SMOOTH",
"550 -17 OFFCURVE",
"727 138 OFFCURVE",
"754 330 CURVE SMOOTH",
"781 522 OFFCURVE",
"648 677 OFFCURVE",
"456 677 CURVE SMOOTH",
"264 677 OFFCURVE",
"88 522 OFFCURVE",
"61 330 CURVE SMOOTH"
);
},
{
closed = 1;
nodes = (
"103 512 OFFCURVE",
"272 660 OFFCURVE",
"454 660 CURVE SMOOTH",
"636 660 OFFCURVE",
"763 512 OFFCURVE",
"737 330 CURVE SMOOTH",
"712 148 OFFCURVE",
"543 0 OFFCURVE",
"361 0 CURVE SMOOTH",
"179 0 OFFCURVE",
"52 148 OFFCURVE",
"77 330 CURVE SMOOTH"
);
},
{
closed = 1;
nodes = (
"507 743 LINE",
"523 743 LINE",
"619 891 LINE",
"603 891 LINE"
);
},
{
closed = 1;
nodes = (
"389 743 LINE",
"405 743 LINE",
"501 891 LINE",
"485 891 LINE"
);
}
);
width = 792;
}
);
leftKerningGroup = O;
leftMetricsKey = O;
rightKerningGroup = O;
rightMetricsKey = O;
unicode = 0150;
},
{
color = 4;
glyphname = Omacron;
lastChange = "2016-04-09 01:28:03 +0000";
layers = (
{
anchors = (
{
name = top;
position = "{432, 660}";
}
);
layerId = "4A17B37A-CBFD-40E5-9E02-2080A0E1F76C";
name = "Regular Italic";
paths = (
{
closed = 1;
nodes = (
"20 143 OFFCURVE",
"151 -9 OFFCURVE",
"337 -9 CURVE",
"523 -9 OFFCURVE",
"696 143 OFFCURVE",
"722 331 CURVE",
"749 517 OFFCURVE",
"618 669 OFFCURVE",
"432 669 CURVE",
"246 669 OFFCURVE",
"73 517 OFFCURVE",
"46 331 CURVE"
);
},
{
closed = 1;
nodes = (
"143 474 OFFCURVE",
"278 592 OFFCURVE",
"421 592 CURVE",
"564 592 OFFCURVE",
"664 474 OFFCURVE",
"644 330 CURVE",
"624 187 OFFCURVE",
"491 69 OFFCURVE",
"348 69 CURVE",
"205 69 OFFCURVE",
"103 187 OFFCURVE",
"123 330 CURVE"
);
},
{
closed = 1;
nodes = (
"281 823 LINE",
"271 756 LINE",
"619 756 LINE",
"629 823 LINE"
);
}
);
width = 746;
},
{
anchors = (
{
name = top;
position = "{429, 660}";
}
);
layerId = "99EB5860-B45A-4B60-BB0B-F826C8F71D42";
name = "Bold Italic";
paths = (
{
closed = 1;
nodes = (
"13 138 OFFCURVE",
"145 -15 OFFCURVE",
"335 -15 CURVE",
"525 -15 OFFCURVE",
"699 138 OFFCURVE",
"726 328 CURVE",
"753 518 OFFCURVE",
"621 671 OFFCURVE",
"431 671 CURVE",
"241 671 OFFCURVE",
"67 518 OFFCURVE",
"40 328 CURVE"
);
},
{
closed = 1;
nodes = (
"263 400 OFFCURVE",
"329 459 OFFCURVE",
"401 459 CURVE",
"475 459 OFFCURVE",
"525 400 OFFCURVE",
"515 328 CURVE",
"505 257 OFFCURVE",
"439 197 OFFCURVE",
"365 197 CURVE",
"293 197 OFFCURVE",
"243 257 OFFCURVE",
"253 328 CURVE"
);
},
{
closed = 1;
nodes = (
"260 841 LINE",
"242 711 LINE",
"630 711 LINE",
"648 841 LINE"
);
}
);
width = 745;
},
{
anchors = (
{
name = top;
position = "{452, 660}";
}
);
layerId = "1C7CD022-87C7-4E11-B656-E47B18819458";
name = "Light Italic";
paths = (
{
closed = 1;
nodes = (
"34 138 OFFCURVE",
"166 -17 OFFCURVE",
"359 -17 CURVE SMOOTH",
"550 -17 OFFCURVE",
"727 138 OFFCURVE",
"754 330 CURVE SMOOTH",
"781 522 OFFCURVE",
"648 677 OFFCURVE",
"456 677 CURVE SMOOTH",
"264 677 OFFCURVE",
"88 522 OFFCURVE",
"61 330 CURVE SMOOTH"
);
},
{
closed = 1;
nodes = (
"103 512 OFFCURVE",
"272 660 OFFCURVE",
"454 660 CURVE SMOOTH",
"636 660 OFFCURVE",
"763 512 OFFCURVE",
"737 330 CURVE SMOOTH",
"712 148 OFFCURVE",
"543 0 OFFCURVE",
"361 0 CURVE SMOOTH",
"179 0 OFFCURVE",
"52 148 OFFCURVE",
"77 330 CURVE SMOOTH"
);
},
{
closed = 1;
nodes = (
"324 779 LINE",
"322 765 LINE",
"610 765 LINE",
"612 779 LINE"
);
}
);
width = 792;
}
);
leftKerningGroup = O;
rightKerningGroup = O;
unicode = 014C;
},
{
color = 4;
glyphname = Oslash;
lastChange = "2016-04-09 01:28:02 +0000";
layers = (
{
anchors = (
{
name = top;
position = "{452, 660}";
}
);
layerId = "1C7CD022-87C7-4E11-B656-E47B18819458";
name = "Light Italic";
paths = (
{
closed = 1;
nodes = (
"705 690 LINE",
"626 599 LINE",
"638 590 LINE",
"725 690 LINE"
);
},
{
closed = 1;
nodes = (
"170 71 LINE",
"178 59 LINE",
"638 590 LINE",
"626 599 LINE"
);
},
{
closed = 1;
nodes = (
"102 -30 LINE",
"178 59 LINE",
"170 71 LINE",
"82 -30 LINE"
);
},
{
closed = 1;
nodes = (
"34 138 OFFCURVE",
"166 -17 OFFCURVE",
"359 -17 CURVE SMOOTH",
"550 -17 OFFCURVE",
"727 138 OFFCURVE",
"754 330 CURVE SMOOTH",
"781 522 OFFCURVE",
"648 677 OFFCURVE",
"456 677 CURVE SMOOTH",
"264 677 OFFCURVE",
"88 522 OFFCURVE",
"61 330 CURVE SMOOTH"
);
},
{
closed = 1;
nodes = (
"103 512 OFFCURVE",
"272 660 OFFCURVE",
"454 660 CURVE SMOOTH",
"636 660 OFFCURVE",
"763 512 OFFCURVE",
"737 330 CURVE SMOOTH",
"712 148 OFFCURVE",
"543 0 OFFCURVE",
"361 0 CURVE SMOOTH",
"179 0 OFFCURVE",
"52 148 OFFCURVE",
"77 330 CURVE SMOOTH"
);
}
);
width = 714;
},
{
anchors = (
{
name = top;
position = "{432, 660}";
}
);
layerId = "4A17B37A-CBFD-40E5-9E02-2080A0E1F76C";
name = "Regular Italic";
paths = (
{
closed = 1;
nodes = (
"674 683 LINE",
"587 580 LINE",
"628 544 LINE",
"745 683 LINE"
);
},
{
closed = 1;
nodes = (
"185 100 LINE",
"226 63 LINE",
"628 544 LINE",
"587 580 LINE"
);
},
{
closed = 1;
nodes = (
"142 -37 LINE",
"226 63 LINE",
"185 100 LINE",
"71 -37 LINE"
);
},
{
closed = 1;
nodes = (
"20 143 OFFCURVE",
"151 -9 OFFCURVE",
"337 -9 CURVE",
"523 -9 OFFCURVE",
"696 143 OFFCURVE",
"722 331 CURVE",
"749 517 OFFCURVE",
"618 669 OFFCURVE",
"432 669 CURVE",
"246 669 OFFCURVE",
"73 517 OFFCURVE",
"46 331 CURVE"
);
},
{
closed = 1;
nodes = (
"143 474 OFFCURVE",
"278 592 OFFCURVE",
"421 592 CURVE",
"564 592 OFFCURVE",
"664 474 OFFCURVE",
"644 330 CURVE",
"624 187 OFFCURVE",
"491 69 OFFCURVE",
"348 69 CURVE",
"205 69 OFFCURVE",
"103 187 OFFCURVE",
"123 330 CURVE"
);
}
);
width = 798;
},
{
anchors = (
{
name = top;
position = "{429, 660}";
}
);
layerId = "99EB5860-B45A-4B60-BB0B-F826C8F71D42";
name = "Bold Italic";
paths = (
{
closed = 1;
nodes = (
"644 680 LINE",
"524 541 LINE",
"565 482 LINE",
"739 680 LINE"
);
},
{
closed = 1;
nodes = (
"191 167 LINE",
"242 112 LINE",
"562 488 LINE",
"513 545 LINE"
);
},
{
closed = 1;
nodes = (
"106 -21 LINE",
"226 118 LINE",
"183 176 LINE",
"10 -21 LINE"
);
},
{
closed = 1;
nodes = (
"13 138 OFFCURVE",
"145 -15 OFFCURVE",
"335 -15 CURVE",
"525 -15 OFFCURVE",
"699 138 OFFCURVE",
"726 328 CURVE",
"753 518 OFFCURVE",
"621 671 OFFCURVE",
"431 671 CURVE",
"241 671 OFFCURVE",
"67 518 OFFCURVE",
"40 328 CURVE"
);
},
{
closed = 1;
nodes = (
"263 400 OFFCURVE",
"329 459 OFFCURVE",
"401 459 CURVE",
"475 459 OFFCURVE",
"525 400 OFFCURVE",
"515 328 CURVE",
"505 257 OFFCURVE",
"439 197 OFFCURVE",
"365 197 CURVE",
"293 197 OFFCURVE",
"243 257 OFFCURVE",
"253 328 CURVE"
);
}
);
width = 729;
}
);
leftKerningGroup = O;
rightKerningGroup = O;
unicode = 00D8;
},
{
color = 4;
glyphname = Otilde;
lastChange = "2016-04-09 01:28:01 +0000";
layers = (
{
anchors = (
{
name = top;
position = "{432, 660}";
}
);
layerId = "4A17B37A-CBFD-40E5-9E02-2080A0E1F76C";
name = "Regular Italic";
paths = (
{
closed = 1;
nodes = (
"20 143 OFFCURVE",
"151 -9 OFFCURVE",
"337 -9 CURVE",
"523 -9 OFFCURVE",
"696 143 OFFCURVE",
"722 331 CURVE",
"749 517 OFFCURVE",
"618 669 OFFCURVE",
"432 669 CURVE",
"246 669 OFFCURVE",
"73 517 OFFCURVE",
"46 331 CURVE"
);
},
{
closed = 1;
nodes = (
"143 474 OFFCURVE",
"278 592 OFFCURVE",
"421 592 CURVE",
"564 592 OFFCURVE",
"664 474 OFFCURVE",
"644 330 CURVE",
"624 187 OFFCURVE",
"491 69 OFFCURVE",
"348 69 CURVE",
"205 69 OFFCURVE",
"103 187 OFFCURVE",
"123 330 CURVE"
);
},
{
closed = 1;
nodes = (
"579 877 LINE",
"566 834 OFFCURVE",
"549 808 OFFCURVE",
"519 808 CURVE SMOOTH",
"479 808 OFFCURVE",
"466 876 OFFCURVE",
"393 876 CURVE SMOOTH",
"322 876 OFFCURVE",
"281 830 OFFCURVE",
"261 742 CURVE",
"324 742 LINE",
"337 785 OFFCURVE",
"353 811 OFFCURVE",
"383 811 CURVE SMOOTH",
"426 811 OFFCURVE",
"436 743 OFFCURVE",
"511 743 CURVE SMOOTH",
"580 743 OFFCURVE",
"623 789 OFFCURVE",
"642 877 CURVE"
);
}
);
width = 746;
},
{
anchors = (
{
name = top;
position = "{429, 660}";
}
);
layerId = "99EB5860-B45A-4B60-BB0B-F826C8F71D42";
name = "Bold Italic";
paths = (
{
closed = 1;
nodes = (
"13 138 OFFCURVE",
"145 -15 OFFCURVE",
"335 -15 CURVE",
"525 -15 OFFCURVE",
"699 138 OFFCURVE",
"726 328 CURVE",
"753 518 OFFCURVE",
"621 671 OFFCURVE",
"431 671 CURVE",
"241 671 OFFCURVE",
"67 518 OFFCURVE",
"40 328 CURVE"
);
},
{
closed = 1;
nodes = (
"263 400 OFFCURVE",
"329 459 OFFCURVE",
"401 459 CURVE",
"475 459 OFFCURVE",
"525 400 OFFCURVE",
"515 328 CURVE",
"505 257 OFFCURVE",
"439 197 OFFCURVE",
"365 197 CURVE",
"293 197 OFFCURVE",
"243 257 OFFCURVE",
"253 328 CURVE"
);
},
{
closed = 1;
nodes = (
"551 879 LINE",
"544 845 OFFCURVE",
"533 831 OFFCURVE",
"515 831 CURVE SMOOTH",
"478 831 OFFCURVE",
"475 881 OFFCURVE",
"396 881 CURVE SMOOTH",
"305 881 OFFCURVE",
"245 825 OFFCURVE",
"225 705 CURVE",
"343 705 LINE",
"351 739 OFFCURVE",
"363 753 OFFCURVE",
"380 753 CURVE SMOOTH",
"417 753 OFFCURVE",
"420 703 OFFCURVE",
"499 703 CURVE SMOOTH",
"590 703 OFFCURVE",
"650 759 OFFCURVE",
"669 879 CURVE"
);
}
);
width = 745;
},
{
anchors = (
{
name = top;
position = "{452, 660}";
}
);
layerId = "1C7CD022-87C7-4E11-B656-E47B18819458";
name = "Light Italic";
paths = (
{
closed = 1;
nodes = (
"34 138 OFFCURVE",
"166 -17 OFFCURVE",
"359 -17 CURVE SMOOTH",
"550 -17 OFFCURVE",
"727 138 OFFCURVE",
"754 330 CURVE SMOOTH",
"781 522 OFFCURVE",
"648 677 OFFCURVE",
"456 677 CURVE SMOOTH",
"264 677 OFFCURVE",
"88 522 OFFCURVE",
"61 330 CURVE SMOOTH"
);
},
{
closed = 1;
nodes = (
"103 512 OFFCURVE",
"272 660 OFFCURVE",
"454 660 CURVE SMOOTH",
"636 660 OFFCURVE",
"763 512 OFFCURVE",
"737 330 CURVE SMOOTH",
"712 148 OFFCURVE",
"543 0 OFFCURVE",
"361 0 CURVE SMOOTH",
"179 0 OFFCURVE",
"52 148 OFFCURVE",
"77 330 CURVE SMOOTH"
);
},
{
closed = 1;
nodes = (
"621 843 LINE",
"605 798 OFFCURVE",
"588 773 OFFCURVE",
"542 773 CURVE SMOOTH",
"474 773 OFFCURVE",
"483 842 OFFCURVE",
"405 842 CURVE SMOOTH",
"355 842 OFFCURVE",
"327 815 OFFCURVE",
"308 758 CURVE",
"323 758 LINE",
"340 803 OFFCURVE",
"356 828 OFFCURVE",
"402 828 CURVE SMOOTH",
"471 828 OFFCURVE",
"461 759 OFFCURVE",
"540 759 CURVE SMOOTH",
"590 759 OFFCURVE",
"617 786 OFFCURVE",
"636 843 CURVE"
);
}
);
width = 792;
}
);
leftKerningGroup = O;
rightKerningGroup = O;
unicode = 00D5;
},
{
color = 4;
glyphname = OE;
lastChange = "2016-04-09 01:28:02 +0000";
layers = (
{
layerId = "4A17B37A-CBFD-40E5-9E02-2080A0E1F76C";
name = "Regular Italic";
paths = (
{
closed = 1;
nodes = (
"231 670 OFFCURVE",
"99 539 OFFCURVE",
"69 330 CURVE SMOOTH",
"40 121 OFFCURVE",
"137 -10 OFFCURVE",
"325 -10 CURVE SMOOTH",
"489 -10 OFFCURVE",
"622 121 OFFCURVE",
"651 330 CURVE SMOOTH",
"681 539 OFFCURVE",
"589 670 OFFCURVE",
"425 670 CURVE SMOOTH"
);
},
{
closed = 1;
nodes = (
"539 595 OFFCURVE",
"611 496 OFFCURVE",
"587 330 CURVE SMOOTH",
"564 164 OFFCURVE",
"465 65 OFFCURVE",
"340 65 CURVE SMOOTH",
"197 65 OFFCURVE",
"130 164 OFFCURVE",
"153 330 CURVE SMOOTH",
"177 496 OFFCURVE",
"271 595 OFFCURVE",
"414 595 CURVE SMOOTH"
);
},
{
closed = 1;
nodes = (
"593 75 LINE",
"583 0 LINE",
"983 0 LINE",
"993 75 LINE"
);
},
{
closed = 1;
nodes = (
"634 660 LINE",
"541 0 LINE",
"614 0 LINE",
"707 660 LINE"
);
},
{
closed = 1;
nodes = (
"635 372 LINE",
"625 297 LINE",
"925 297 LINE",
"935 372 LINE"
);
},
{
closed = 1;
nodes = (
"676 660 LINE",
"665 585 LINE",
"1050 585 LINE",
"1061 660 LINE"
);
}
);
width = 1060;
},
{
layerId = "99EB5860-B45A-4B60-BB0B-F826C8F71D42";
name = "Bold Italic";
paths = (
{
closed = 1;
nodes = (
"211 670 OFFCURVE",
"71 546 OFFCURVE",
"40 330 CURVE SMOOTH",
"10 114 OFFCURVE",
"115 -10 OFFCURVE",
"305 -10 CURVE SMOOTH",
"513 -10 OFFCURVE",
"630 162 OFFCURVE",
"653 330 CURVE SMOOTH",
"677 498 OFFCURVE",
"609 670 OFFCURVE",
"401 670 CURVE SMOOTH"
);
},
{
closed = 1;
nodes = (
"457 495 OFFCURVE",
"479 445 OFFCURVE",
"463 330 CURVE SMOOTH",
"447 215 OFFCURVE",
"411 165 OFFCURVE",
"343 165 CURVE SMOOTH",
"279 165 OFFCURVE",
"257 215 OFFCURVE",
"273 330 CURVE SMOOTH",
"289 445 OFFCURVE",
"325 495 OFFCURVE",
"389 495 CURVE SMOOTH"
);
},
{
closed = 1;
nodes = (
"554 171 LINE",
"530 0 LINE",
"976 0 LINE",
"1000 171 LINE"
);
},
{
closed = 1;
nodes = (
"600 660 LINE",
"507 0 LINE",
"650 0 LINE",
"743 660 LINE"
);
},
{
closed = 1;
nodes = (
"587 407 LINE",
"565 249 LINE",
"938 249 LINE",
"960 407 LINE"
);
},
{
closed = 1;
nodes = (
"623 660 LINE",
"599 489 LINE",
"1033 489 LINE",
"1057 660 LINE"
);
}
);
width = 1027;
},
{
layerId = "1C7CD022-87C7-4E11-B656-E47B18819458";
name = "Light Italic";
paths = (
{
closed = 1;
nodes = (
"226 670 OFFCURVE",
"97 539 OFFCURVE",
"67 330 CURVE SMOOTH",
"38 121 OFFCURVE",
"130 -10 OFFCURVE",
"300 -10 CURVE SMOOTH",
"488 -10 OFFCURVE",
"585 101 OFFCURVE",
"617 330 CURVE SMOOTH",
"649 559 OFFCURVE",
"584 670 OFFCURVE",
"396 670 CURVE SMOOTH"
);
},
{
closed = 1;
nodes = (
"574 656 OFFCURVE",
"634 550 OFFCURVE",
"603 330 CURVE SMOOTH",
"572 110 OFFCURVE",
"482 4 OFFCURVE",
"302 4 CURVE SMOOTH",
"142 4 OFFCURVE",
"55 130 OFFCURVE",
"83 330 CURVE SMOOTH",
"111 530 OFFCURVE",
"234 656 OFFCURVE",
"394 656 CURVE SMOOTH"
);
},
{
closed = 1;
nodes = (
"573 14 LINE",
"563 0 LINE",
"985 0 LINE",
"987 14 LINE"
);
},
{
closed = 1;
nodes = (
"650 660 LINE",
"557 0 LINE",
"573 0 LINE",
"666 660 LINE"
);
},
{
closed = 1;
nodes = (
"611 344 LINE",
"609 330 LINE",
"942 330 LINE",
"944 344 LINE"
);
},
{
closed = 1;
nodes = (
"656 660 LINE",
"654 646 LINE",
"1059 646 LINE",
"1061 660 LINE"
);
}
);
width = 1050;
}
);
leftKerningGroup = O;
leftMetricsKey = O;
rightKerningGroup = E;
rightMetricsKey = E;
unicode = 0152;
},
{
color = 4;
glyphname = P;
lastChange = "2016-04-09 01:28:02 +0000";
layers = (
{
layerId = "4A17B37A-CBFD-40E5-9E02-2080A0E1F76C";
name = "Regular Italic";
paths = (
{
closed = 1;
nodes = (
"196 660 LINE",
"185 585 LINE",
"394 585 LINE SMOOTH",
"488 585 OFFCURVE",
"539 521 OFFCURVE",
"528 442 CURVE SMOOTH",
"517 363 OFFCURVE",
"447 294 OFFCURVE",
"353 294 CURVE SMOOTH",
"144 294 LINE",
"134 219 LINE",
"344 219 LINE SMOOTH",
"478 219 OFFCURVE",
"595 323 OFFCURVE",
"612 442 CURVE SMOOTH",
"629 561 OFFCURVE",
"540 660 OFFCURVE",
"406 660 CURVE SMOOTH"
);
},
{
closed = 1;
nodes = (
"156 660 LINE",
"63 0 LINE",
"143 0 LINE",
"236 660 LINE"
);
}
);
width = 620;
},
{
layerId = "99EB5860-B45A-4B60-BB0B-F826C8F71D42";
name = "Bold Italic";
paths = (
{
closed = 1;
nodes = (
"266 660 LINE",
"242 494 LINE",
"395 494 LINE SMOOTH",
"454 494 OFFCURVE",
"479 450 OFFCURVE",
"473 406 CURVE SMOOTH",
"467 361 OFFCURVE",
"429 317 OFFCURVE",
"370 317 CURVE SMOOTH",
"217 317 LINE",
"195 154 LINE",
"395 154 LINE SMOOTH",
"571 154 OFFCURVE",
"686 266 OFFCURVE",
"707 412 CURVE SMOOTH",
"727 559 OFFCURVE",
"642 660 OFFCURVE",
"466 660 CURVE SMOOTH"
);
},
{
closed = 1;
nodes = (
"108 660 LINE",
"15 0 LINE",
"243 0 LINE",
"336 660 LINE"
);
}
);
width = 703;
},
{
layerId = "1C7CD022-87C7-4E11-B656-E47B18819458";
name = "Light Italic";
paths = (
{
closed = 1;
nodes = (
"165 660 LINE",
"163 646 LINE",
"394 646 LINE SMOOTH",
"515 646 OFFCURVE",
"582 565 OFFCURVE",
"568 461 CURVE SMOOTH",
"553 357 OFFCURVE",
"461 264 OFFCURVE",
"340 264 CURVE SMOOTH",
"109 264 LINE",
"107 250 LINE",
"338 250 LINE SMOOTH",
"467 250 OFFCURVE",
"568 349 OFFCURVE",
"584 461 CURVE SMOOTH",
"599 573 OFFCURVE",
"525 660 OFFCURVE",
"396 660 CURVE SMOOTH"
);
},
{
closed = 1;
nodes = (
"157 660 LINE",
"64 0 LINE",
"80 0 LINE",
"173 660 LINE"
);
}
);
width = 614;
}
);
leftKerningGroup = I;
unicode = 0050;
},
{
color = 4;
glyphname = Thorn;
lastChange = "2016-04-09 01:28:01 +0000";
layers = (
{
layerId = "4A17B37A-CBFD-40E5-9E02-2080A0E1F76C";
name = "Regular Italic";
paths = (
{
closed = 1;
nodes = (
"179 542 LINE",
"168 467 LINE",
"355 467 LINE SMOOTH",
"459 467 OFFCURVE",
"504 425 OFFCURVE",
"491 337 CURVE SMOOTH",
"479 249 OFFCURVE",
"423 207 OFFCURVE",
"319 207 CURVE SMOOTH",
"132 207 LINE",
"121 132 LINE",
"300 132 LINE SMOOTH",
"464 132 OFFCURVE",
"557 206 OFFCURVE",
"575 337 CURVE SMOOTH",
"594 469 OFFCURVE",
"522 542 OFFCURVE",
"358 542 CURVE SMOOTH"
);
},
{
closed = 1;
nodes = (
"156 660 LINE",
"63 0 LINE",
"143 0 LINE",
"236 660 LINE"
);
}
);
width = 607;
},
{
layerId = "99EB5860-B45A-4B60-BB0B-F826C8F71D42";
leftMetricsKey = "=I";
name = "Bold Italic";
paths = (
{
closed = 1;
nodes = (
"211 571 LINE",
"188 406 LINE",
"376 406 LINE SMOOTH",
"424 406 OFFCURVE",
"450 385 OFFCURVE",
"442 337 CURVE SMOOTH",
"436 288 OFFCURVE",
"404 267 OFFCURVE",
"356 267 CURVE SMOOTH",
"168 267 LINE",
"145 103 LINE",
"371 103 LINE SMOOTH",
"542 103 OFFCURVE",
"654 182 OFFCURVE",
"675 337 CURVE SMOOTH",
"698 492 OFFCURVE",
"608 571 OFFCURVE",
"437 571 CURVE SMOOTH"
);
},
{
closed = 1;
nodes = (
"108 660 LINE",
"15 0 LINE",
"248 0 LINE",
"341 660 LINE"
);
}
);
width = 692;
},
{
layerId = "1C7CD022-87C7-4E11-B656-E47B18819458";
name = "Light Italic";
paths = (
{
closed = 1;
nodes = (
"147 525 LINE",
"145 511 LINE",
"340 511 LINE SMOOTH",
"478 511 OFFCURVE",
"540 453 OFFCURVE",
"524 340 CURVE SMOOTH",
"508 227 OFFCURVE",
"430 169 OFFCURVE",
"292 169 CURVE SMOOTH",
"97 169 LINE",
"95 155 LINE",
"281 155 LINE SMOOTH",
"435 155 OFFCURVE",
"523 218 OFFCURVE",
"540 340 CURVE SMOOTH",
"557 462 OFFCURVE",
"487 525 OFFCURVE",
"333 525 CURVE SMOOTH"
);
},
{
closed = 1;
nodes = (
"157 660 LINE",
"64 0 LINE",
"80 0 LINE",
"173 660 LINE"
);
}
);
width = 567;
}
);
leftKerningGroup = I;
unicode = 00DE;
},
{
color = 4;
glyphname = Q;
lastChange = "2016-04-09 01:28:03 +0000";
layers = (
{
anchors = (
{
name = top;
position = "{432, 660}";
}
);
hints = (
{
horizontal = 1;
place = "{-25, 251}";
type = Stem;
}
);
layerId = "4A17B37A-CBFD-40E5-9E02-2080A0E1F76C";
name = "Regular Italic";
paths = (
{
closed = 1;
nodes = (
"576 -79 LINE",
"651 -31 LINE",
"581 89 LINE",
"507 41 LINE"
);
},
{
closed = 1;
nodes = (
"20 143 OFFCURVE",
"151 -9 OFFCURVE",
"337 -9 CURVE",
"523 -9 OFFCURVE",
"696 143 OFFCURVE",
"722 331 CURVE",
"749 517 OFFCURVE",
"618 669 OFFCURVE",
"432 669 CURVE",
"246 669 OFFCURVE",
"73 517 OFFCURVE",
"46 331 CURVE"
);
},
{
closed = 1;
nodes = (
"143 474 OFFCURVE",
"278 592 OFFCURVE",
"421 592 CURVE",
"564 592 OFFCURVE",
"664 474 OFFCURVE",
"644 330 CURVE",
"624 187 OFFCURVE",
"491 69 OFFCURVE",
"348 69 CURVE",
"205 69 OFFCURVE",
"103 187 OFFCURVE",
"123 330 CURVE"
);
}
);
width = 762;
},
{
anchors = (
{
name = top;
position = "{429, 660}";
}
);
guideLines = (
{
angle = 90;
position = "{692, 57}";
}
);
hints = (
{
horizontal = 1;
place = "{-210, 170}";
type = Stem;
}
);
layerId = "99EB5860-B45A-4B60-BB0B-F826C8F71D42";
leftMetricsKey = "=O";
rightMetricsKey = "=O";
name = "Bold Italic";
paths = (
{
closed = 1;
nodes = (
"518 -107 LINE",
"700 12 LINE",
"576 226 LINE",
"393 107 LINE"
);
},
{
closed = 1;
nodes = (
"13 138 OFFCURVE",
"145 -15 OFFCURVE",
"335 -15 CURVE",
"525 -15 OFFCURVE",
"699 138 OFFCURVE",
"726 328 CURVE",
"753 518 OFFCURVE",
"621 671 OFFCURVE",
"431 671 CURVE",
"241 671 OFFCURVE",
"67 518 OFFCURVE",
"40 328 CURVE"
);
},
{
closed = 1;
nodes = (
"263 400 OFFCURVE",
"329 459 OFFCURVE",
"401 459 CURVE",
"475 459 OFFCURVE",
"525 400 OFFCURVE",
"515 328 CURVE",
"505 257 OFFCURVE",
"439 197 OFFCURVE",
"365 197 CURVE",
"293 197 OFFCURVE",
"243 257 OFFCURVE",
"253 328 CURVE"
);
}
);
width = 753;
},
{
anchors = (
{
name = top;
position = "{452, 660}";
}
);
hints = (
{
horizontal = 1;
place = "{-195, 14}";
type = Stem;
}
);
layerId = "1C7CD022-87C7-4E11-B656-E47B18819458";
name = "Light Italic";
paths = (
{
closed = 1;
nodes = (
"654 -89 LINE",
"668 -80 LINE",
"501 193 LINE",
"488 184 LINE"
);
},
{
closed = 1;
nodes = (
"34 138 OFFCURVE",
"166 -17 OFFCURVE",
"359 -17 CURVE SMOOTH",
"550 -17 OFFCURVE",
"727 138 OFFCURVE",
"754 330 CURVE SMOOTH",
"781 522 OFFCURVE",
"648 677 OFFCURVE",
"456 677 CURVE SMOOTH",
"264 677 OFFCURVE",
"88 522 OFFCURVE",
"61 330 CURVE SMOOTH"
);
},
{
closed = 1;
nodes = (
"103 512 OFFCURVE",
"272 660 OFFCURVE",
"454 660 CURVE SMOOTH",
"636 660 OFFCURVE",
"763 512 OFFCURVE",
"737 330 CURVE SMOOTH",
"712 148 OFFCURVE",
"543 0 OFFCURVE",
"361 0 CURVE SMOOTH",
"179 0 OFFCURVE",
"52 148 OFFCURVE",
"77 330 CURVE SMOOTH"
);
}
);
width = 792;
}
);
leftKerningGroup = O;
rightKerningGroup = O;
unicode = 0051;
},
{
color = 4;
glyphname = R;
lastChange = "2016-04-09 01:28:02 +0000";
layers = (
{
anchors = (
{
name = bottom;
position = "{320, 0}";
},
{
name = top;
position = "{370, 660}";
}
);
layerId = "4A17B37A-CBFD-40E5-9E02-2080A0E1F76C";
name = "Regular Italic";
paths = (
{
closed = 1;
nodes = (
"196 660 LINE",
"185 585 LINE",
"394 585 LINE SMOOTH",
"488 585 OFFCURVE",
"539 521 OFFCURVE",
"528 442 CURVE SMOOTH",
"517 363 OFFCURVE",
"447 294 OFFCURVE",
"353 294 CURVE SMOOTH",
"144 294 LINE",
"134 219 LINE",
"344 219 LINE SMOOTH",
"478 219 OFFCURVE",
"595 323 OFFCURVE",
"612 442 CURVE SMOOTH",
"629 561 OFFCURVE",
"540 660 OFFCURVE",
"406 660 CURVE SMOOTH"
);
},
{
closed = 1;
nodes = (
"156 660 LINE",
"63 0 LINE",
"143 0 LINE",
"236 660 LINE"
);
},
{
closed = 1;
nodes = (
"356 242 LINE",
"481 0 LINE",
"576 0 LINE",
"429 286 LINE"
);
}
);
width = 645;
},
{
anchors = (
{
name = bottom;
position = "{327, 0}";
},
{
name = top;
position = "{392, 660}";
}
);
layerId = "99EB5860-B45A-4B60-BB0B-F826C8F71D42";
name = "Bold Italic";
paths = (
{
closed = 1;
nodes = (
"266 660 LINE",
"242 494 LINE",
"395 494 LINE SMOOTH",
"454 494 OFFCURVE",
"479 450 OFFCURVE",
"473 406 CURVE SMOOTH",
"467 361 OFFCURVE",
"429 317 OFFCURVE",
"370 317 CURVE SMOOTH",
"217 317 LINE",
"193 144 LINE",
"393 144 LINE",
"569 144 OFFCURVE",
"686 266 OFFCURVE",
"707 412 CURVE SMOOTH",
"727 559 OFFCURVE",
"642 660 OFFCURVE",
"466 660 CURVE SMOOTH"
);
},
{
closed = 1;
nodes = (
"108 660 LINE",
"15 0 LINE",
"243 0 LINE",
"336 660 LINE"
);
},
{
closed = 1;
nodes = (
"318 226 LINE",
"394 0 LINE",
"637 0 LINE SMOOTH",
"543 260 LINE"
);
}
);
width = 705;
},
{
anchors = (
{
name = bottom;
position = "{311, 0}";
},
{
name = top;
position = "{351, 660}";
}
);
layerId = "1C7CD022-87C7-4E11-B656-E47B18819458";
name = "Light Italic";
paths = (
{
closed = 1;
nodes = (
"165 660 LINE",
"163 646 LINE",
"394 646 LINE",
"515 646 OFFCURVE",
"582 565 OFFCURVE",
"568 461 CURVE SMOOTH",
"553 357 OFFCURVE",
"461 264 OFFCURVE",
"340 264 CURVE SMOOTH",
"109 264 LINE",
"107 250 LINE",
"338 250 LINE SMOOTH",
"467 250 OFFCURVE",
"568 349 OFFCURVE",
"584 461 CURVE SMOOTH",
"599 573 OFFCURVE",
"525 660 OFFCURVE",
"396 660 CURVE SMOOTH"
);
},
{
closed = 1;
nodes = (
"157 660 LINE",
"64 0 LINE",
"80 0 LINE",
"173 660 LINE"
);
},
{
closed = 1;
nodes = (
"386 260 LINE",
"523 0 LINE",
"541 0 LINE",
"401 270 LINE"
);
}
);
width = 629;
}
);
leftKerningGroup = I;
rightKerningGroup = R;
unicode = 0052;
},
{
color = 4;
glyphname = Racute;
lastChange = "2016-04-09 01:28:03 +0000";
layers = (
{
anchors = (
{
name = bottom;
position = "{320, 0}";
},
{
name = top;
position = "{370, 660}";
}
);
layerId = "4A17B37A-CBFD-40E5-9E02-2080A0E1F76C";
name = "Regular Italic";
paths = (
{
closed = 1;
nodes = (
"196 660 LINE",
"185 585 LINE",
"394 585 LINE SMOOTH",
"488 585 OFFCURVE",
"539 521 OFFCURVE",
"528 442 CURVE SMOOTH",
"517 363 OFFCURVE",
"447 294 OFFCURVE",
"353 294 CURVE SMOOTH",
"144 294 LINE",
"134 219 LINE",
"344 219 LINE SMOOTH",
"478 219 OFFCURVE",
"595 323 OFFCURVE",
"612 442 CURVE SMOOTH",
"629 561 OFFCURVE",
"540 660 OFFCURVE",
"406 660 CURVE SMOOTH"
);
},
{
closed = 1;
nodes = (
"156 660 LINE",
"63 0 LINE",
"143 0 LINE",
"236 660 LINE"
);
},
{
closed = 1;
nodes = (
"356 242 LINE",
"481 0 LINE",
"576 0 LINE",
"429 286 LINE"
);
},
{
closed = 1;
nodes = (
"339 743 LINE",
"420 743 LINE",
"502 891 LINE",
"417 891 LINE"
);
}
);
width = 645;
},
{
anchors = (
{
name = bottom;
position = "{327, 0}";
},
{
name = top;
position = "{392, 660}";
}
);
layerId = "99EB5860-B45A-4B60-BB0B-F826C8F71D42";
name = "Bold Italic";
paths = (
{
closed = 1;
nodes = (
"266 660 LINE",
"242 494 LINE",
"395 494 LINE SMOOTH",
"454 494 OFFCURVE",
"479 450 OFFCURVE",
"473 406 CURVE SMOOTH",
"467 361 OFFCURVE",
"429 317 OFFCURVE",
"370 317 CURVE SMOOTH",
"217 317 LINE",
"193 144 LINE",
"393 144 LINE",
"569 144 OFFCURVE",
"686 266 OFFCURVE",
"707 412 CURVE SMOOTH",
"727 559 OFFCURVE",
"642 660 OFFCURVE",
"466 660 CURVE SMOOTH"
);
},
{
closed = 1;
nodes = (
"108 660 LINE",
"15 0 LINE",
"243 0 LINE",
"336 660 LINE"
);
},
{
closed = 1;
nodes = (
"318 226 LINE",
"394 0 LINE",
"637 0 LINE SMOOTH",
"543 260 LINE"
);
},
{
closed = 1;
nodes = (
"308 709 LINE",
"485 709 LINE",
"575 876 LINE",
"384 876 LINE"
);
}
);
width = 705;
},
{
anchors = (
{
name = bottom;
position = "{311, 0}";
},
{
name = top;
position = "{351, 660}";
}
);
layerId = "1C7CD022-87C7-4E11-B656-E47B18819458";
name = "Light Italic";
paths = (
{
closed = 1;
nodes = (
"165 660 LINE",
"163 646 LINE",
"394 646 LINE",
"515 646 OFFCURVE",
"582 565 OFFCURVE",
"568 461 CURVE SMOOTH",
"553 357 OFFCURVE",
"461 264 OFFCURVE",
"340 264 CURVE SMOOTH",
"109 264 LINE",
"107 250 LINE",
"338 250 LINE SMOOTH",
"467 250 OFFCURVE",
"568 349 OFFCURVE",
"584 461 CURVE SMOOTH",
"599 573 OFFCURVE",
"525 660 OFFCURVE",
"396 660 CURVE SMOOTH"
);
},
{
closed = 1;
nodes = (
"157 660 LINE",
"64 0 LINE",
"80 0 LINE",
"173 660 LINE"
);
},
{
closed = 1;
nodes = (
"386 260 LINE",
"523 0 LINE",
"541 0 LINE",
"401 270 LINE"
);
},
{
closed = 1;
nodes = (
"361 743 LINE",
"377 743 LINE",
"473 891 LINE",
"457 891 LINE"
);
}
);
width = 629;
}
);
leftKerningGroup = I;
rightKerningGroup = R;
unicode = 0154;
},
{
color = 4;
glyphname = Rcaron;
lastChange = "2016-04-09 01:28:03 +0000";
layers = (
{
anchors = (
{
name = bottom;
position = "{320, 0}";
},
{
name = top;
position = "{370, 660}";
}
);
layerId = "4A17B37A-CBFD-40E5-9E02-2080A0E1F76C";
name = "Regular Italic";
paths = (
{
closed = 1;
nodes = (
"196 660 LINE",
"185 585 LINE",
"394 585 LINE SMOOTH",
"488 585 OFFCURVE",
"539 521 OFFCURVE",
"528 442 CURVE SMOOTH",
"517 363 OFFCURVE",
"447 294 OFFCURVE",
"353 294 CURVE SMOOTH",
"144 294 LINE",
"134 219 LINE",
"344 219 LINE SMOOTH",
"478 219 OFFCURVE",
"595 323 OFFCURVE",
"612 442 CURVE SMOOTH",
"629 561 OFFCURVE",
"540 660 OFFCURVE",
"406 660 CURVE SMOOTH"
);
},
{
closed = 1;
nodes = (
"156 660 LINE",
"63 0 LINE",
"143 0 LINE",
"236 660 LINE"
);
},
{
closed = 1;
nodes = (
"356 242 LINE",
"481 0 LINE",
"576 0 LINE",
"429 286 LINE"
);
},
{
closed = 1;
nodes = (
"490 905 LINE",
"388 790 LINE",
"318 905 LINE",
"245 905 LINE",
"336 738 LINE",
"426 738 LINE",
"563 905 LINE"
);
}
);
width = 645;
},
{
anchors = (
{
name = bottom;
position = "{327, 0}";
},
{
name = top;
position = "{392, 660}";
}
);
layerId = "99EB5860-B45A-4B60-BB0B-F826C8F71D42";
name = "Bold Italic";
paths = (
{
closed = 1;
nodes = (
"266 660 LINE",
"242 494 LINE",
"395 494 LINE SMOOTH",
"454 494 OFFCURVE",
"479 450 OFFCURVE",
"473 406 CURVE SMOOTH",
"467 361 OFFCURVE",
"429 317 OFFCURVE",
"370 317 CURVE SMOOTH",
"217 317 LINE",
"193 144 LINE",
"393 144 LINE",
"569 144 OFFCURVE",
"686 266 OFFCURVE",
"707 412 CURVE SMOOTH",
"727 559 OFFCURVE",
"642 660 OFFCURVE",
"466 660 CURVE SMOOTH"
);
},
{
closed = 1;
nodes = (
"108 660 LINE",
"15 0 LINE",
"243 0 LINE",
"336 660 LINE"
);
},
{
closed = 1;
nodes = (
"318 226 LINE",
"394 0 LINE",
"637 0 LINE SMOOTH",
"543 260 LINE"
);
},
{
closed = 1;
nodes = (
"460 876 LINE",
"406 807 LINE",
"372 876 LINE",
"201 876 LINE",
"286 709 LINE",
"500 709 LINE",
"631 876 LINE"
);
}
);
width = 705;
},
{
anchors = (
{
name = bottom;
position = "{311, 0}";
},
{
name = top;
position = "{351, 660}";
}
);
layerId = "1C7CD022-87C7-4E11-B656-E47B18819458";
name = "Light Italic";
paths = (
{
closed = 1;
nodes = (
"165 660 LINE",
"163 646 LINE",
"394 646 LINE",
"515 646 OFFCURVE",
"582 565 OFFCURVE",
"568 461 CURVE SMOOTH",
"553 357 OFFCURVE",
"461 264 OFFCURVE",
"340 264 CURVE SMOOTH",
"109 264 LINE",
"107 250 LINE",
"338 250 LINE SMOOTH",
"467 250 OFFCURVE",
"568 349 OFFCURVE",
"584 461 CURVE SMOOTH",
"599 573 OFFCURVE",
"525 660 OFFCURVE",
"396 660 CURVE SMOOTH"
);
},
{
closed = 1;
nodes = (
"157 660 LINE",
"64 0 LINE",
"80 0 LINE",
"173 660 LINE"
);
},
{
closed = 1;
nodes = (
"386 260 LINE",
"523 0 LINE",
"541 0 LINE",
"401 270 LINE"
);
},
{
closed = 1;
nodes = (
"484 885 LINE",
"364 756 LINE",
"280 885 LINE",
"263 885 LINE",
"352 743 LINE",
"372 743 LINE",
"501 885 LINE"
);
}
);
width = 629;
}
);
leftKerningGroup = I;
rightKerningGroup = R;
unicode = 0158;
},
{
color = 4;
glyphname = S;
lastChange = "2016-04-09 01:28:02 +0000";
layers = (
{
anchors = (
{
name = bottom;
position = "{284, 0}";
},
{
name = bottomC;
position = "{254, 0}";
},
{
name = top;
position = "{344, 660}";
}
);
layerId = "4A17B37A-CBFD-40E5-9E02-2080A0E1F76C";
name = "Regular Italic";
paths = (
{
closed = 1;
nodes = (
"387 -10 OFFCURVE",
"485 72 OFFCURVE",
"500 180 CURVE SMOOTH",
"517 302 OFFCURVE",
"411 338 OFFCURVE",
"327 365 CURVE SMOOTH",
"228 396 OFFCURVE",
"172 415 OFFCURVE",
"183 489 CURVE SMOOTH",
"193 563 OFFCURVE",
"255 601 OFFCURVE",
"336 601 CURVE SMOOTH",
"413 601 OFFCURVE",
"467 566 OFFCURVE",
"457 476 CURVE",
"530 476 LINE",
"548 604 OFFCURVE",
"456 671 OFFCURVE",
"341 671 CURVE SMOOTH",
"221 671 OFFCURVE",
"121 598 OFFCURVE",
"105 483 CURVE SMOOTH",
"90 378 OFFCURVE",
"158 337 OFFCURVE",
"285 298 CURVE SMOOTH",
"351 278 OFFCURVE",
"433 253 OFFCURVE",
"422 171 CURVE SMOOTH",
"413 109 OFFCURVE",
"358 60 OFFCURVE",
"262 60 CURVE SMOOTH",
"151 60 OFFCURVE",
"113 127 OFFCURVE",
"119 170 CURVE SMOOTH",
"120 179 OFFCURVE",
"124 204 OFFCURVE",
"124 204 CURVE SMOOTH",
"57 204 LINE",
"53 192 OFFCURVE",
"49 171 OFFCURVE",
"47 160 CURVE",
"36 82 OFFCURVE",
"105 -10 OFFCURVE",
"250 -10 CURVE SMOOTH"
);
}
);
width = 570;
},
{
anchors = (
{
name = bottom;
position = "{279, 0}";
},
{
name = bottomC;
position = "{271, 0}";
},
{
name = top;
position = "{365, 660}";
}
);
layerId = "99EB5860-B45A-4B60-BB0B-F826C8F71D42";
name = "Bold Italic";
paths = (
{
closed = 1;
nodes = (
"417 -14 OFFCURVE",
"564 24 OFFCURVE",
"587 186 CURVE SMOOTH",
"604 306 OFFCURVE",
"535 367 OFFCURVE",
"386 401 CURVE SMOOTH",
"341 411 OFFCURVE",
"278 428 OFFCURVE",
"284 468 CURVE",
"287 494 OFFCURVE",
"306 512 OFFCURVE",
"344 512 CURVE SMOOTH",
"400 512 OFFCURVE",
"408 472 OFFCURVE",
"399 422 CURVE",
"594 422 LINE",
"616 577 OFFCURVE",
"544 671 OFFCURVE",
"368 671 CURVE SMOOTH",
"204 671 OFFCURVE",
"76 591 OFFCURVE",
"57 453 CURVE SMOOTH",
"36 306 OFFCURVE",
"165 269 OFFCURVE",
"263 244 CURVE SMOOTH",
"310 232 OFFCURVE",
"366 217 OFFCURVE",
"361 180 CURVE SMOOTH",
"358 154 OFFCURVE",
"325 137 OFFCURVE",
"282 137 CURVE SMOOTH",
"227 137 OFFCURVE",
"199 165 OFFCURVE",
"203 195 CURVE SMOOTH",
"205 206 OFFCURVE",
"206 216 OFFCURVE",
"210 232 CURVE",
"28 232 LINE",
"21 209 OFFCURVE",
"17 189 OFFCURVE",
"16 177 CURVE SMOOTH",
"-1 58 OFFCURVE",
"87 -14 OFFCURVE",
"274 -14 CURVE SMOOTH"
);
}
);
width = 622;
},
{
anchors = (
{
name = bottom;
position = "{233, -5}";
},
{
name = bottomC;
position = "{205, -5}";
},
{
name = top;
position = "{300, 662}";
}
);
layerId = "1C7CD022-87C7-4E11-B656-E47B18819458";
name = "Light Italic";
paths = (
{
closed = 1;
nodes = (
"348 -10 OFFCURVE",
"440 49 OFFCURVE",
"454 149 CURVE SMOOTH",
"470 263 OFFCURVE",
"369 303 OFFCURVE",
"285 334 CURVE SMOOTH",
"158 381 OFFCURVE",
"104 405 OFFCURVE",
"117 499 CURVE SMOOTH",
"131 598 OFFCURVE",
"203 656 OFFCURVE",
"313 656 CURVE SMOOTH",
"433 656 OFFCURVE",
"489 586 OFFCURVE",
"468 493 CURVE",
"484 493 LINE",
"506 595 OFFCURVE",
"439 671 OFFCURVE",
"315 671 CURVE SMOOTH",
"198 671 OFFCURVE",
"115 603 OFFCURVE",
"100 498 CURVE SMOOTH",
"85 390 OFFCURVE",
"158 363 OFFCURVE",
"276 320 CURVE SMOOTH",
"364 287 OFFCURVE",
"452 252 OFFCURVE",
"438 148 CURVE SMOOTH",
"425 55 OFFCURVE",
"343 6 OFFCURVE",
"224 6 CURVE",
"110 6 OFFCURVE",
"49 50 OFFCURVE",
"53 138 CURVE SMOOTH",
"54 159 OFFCURVE",
"62 177 OFFCURVE",
"69 196 CURVE",
"53 196 LINE",
"44 171 OFFCURVE",
"39 155 OFFCURVE",
"37 136 CURVE SMOOTH",
"28 47 OFFCURVE",
"97 -10 OFFCURVE",
"221 -10 CURVE SMOOTH"
);
}
);
width = 529;
}
);
leftKerningGroup = S;
rightKerningGroup = S;
unicode = 0053;
},
{
color = 4;
glyphname = Sacute;
lastChange = "2016-04-09 01:28:02 +0000";
layers = (
{
anchors = (
{
name = bottom;
position = "{284, 0}";
},
{
name = bottomC;
position = "{254, 0}";
},
{
name = top;
position = "{344, 660}";
}
);
layerId = "4A17B37A-CBFD-40E5-9E02-2080A0E1F76C";
name = "Regular Italic";
paths = (
{
closed = 1;
nodes = (
"387 -10 OFFCURVE",
"485 72 OFFCURVE",
"500 180 CURVE SMOOTH",
"517 302 OFFCURVE",
"411 338 OFFCURVE",
"327 365 CURVE SMOOTH",
"228 396 OFFCURVE",
"172 415 OFFCURVE",
"183 489 CURVE SMOOTH",
"193 563 OFFCURVE",
"255 601 OFFCURVE",
"336 601 CURVE SMOOTH",
"413 601 OFFCURVE",
"467 566 OFFCURVE",
"457 476 CURVE",
"530 476 LINE",
"548 604 OFFCURVE",
"456 671 OFFCURVE",
"341 671 CURVE SMOOTH",
"221 671 OFFCURVE",
"121 598 OFFCURVE",
"105 483 CURVE SMOOTH",
"90 378 OFFCURVE",
"158 337 OFFCURVE",
"285 298 CURVE SMOOTH",
"351 278 OFFCURVE",
"433 253 OFFCURVE",
"422 171 CURVE SMOOTH",
"413 109 OFFCURVE",
"358 60 OFFCURVE",
"262 60 CURVE SMOOTH",
"151 60 OFFCURVE",
"113 127 OFFCURVE",
"119 170 CURVE SMOOTH",
"120 179 OFFCURVE",
"124 204 OFFCURVE",
"124 204 CURVE SMOOTH",
"57 204 LINE",
"53 192 OFFCURVE",
"49 171 OFFCURVE",
"47 160 CURVE",
"36 82 OFFCURVE",
"105 -10 OFFCURVE",
"250 -10 CURVE SMOOTH"
);
},
{
closed = 1;
nodes = (
"313 743 LINE",
"394 743 LINE",
"476 891 LINE",
"391 891 LINE"
);
}
);
width = 570;
},
{
anchors = (
{
name = bottom;
position = "{279, 0}";
},
{
name = bottomC;
position = "{271, 0}";
},
{
name = top;
position = "{365, 660}";
}
);
layerId = "99EB5860-B45A-4B60-BB0B-F826C8F71D42";
name = "Bold Italic";
paths = (
{
closed = 1;
nodes = (
"417 -14 OFFCURVE",
"564 24 OFFCURVE",
"587 186 CURVE SMOOTH",
"604 306 OFFCURVE",
"535 367 OFFCURVE",
"386 401 CURVE SMOOTH",
"341 411 OFFCURVE",
"278 428 OFFCURVE",
"284 468 CURVE",
"287 494 OFFCURVE",
"306 512 OFFCURVE",
"344 512 CURVE SMOOTH",
"400 512 OFFCURVE",
"408 472 OFFCURVE",
"399 422 CURVE",
"594 422 LINE",
"616 577 OFFCURVE",
"544 671 OFFCURVE",
"368 671 CURVE SMOOTH",
"204 671 OFFCURVE",
"76 591 OFFCURVE",
"57 453 CURVE SMOOTH",
"36 306 OFFCURVE",
"165 269 OFFCURVE",
"263 244 CURVE SMOOTH",
"310 232 OFFCURVE",
"366 217 OFFCURVE",
"361 180 CURVE SMOOTH",
"358 154 OFFCURVE",
"325 137 OFFCURVE",
"282 137 CURVE SMOOTH",
"227 137 OFFCURVE",
"199 165 OFFCURVE",
"203 195 CURVE SMOOTH",
"205 206 OFFCURVE",
"206 216 OFFCURVE",
"210 232 CURVE",
"28 232 LINE",
"21 209 OFFCURVE",
"17 189 OFFCURVE",
"16 177 CURVE SMOOTH",
"-1 58 OFFCURVE",
"87 -14 OFFCURVE",
"274 -14 CURVE SMOOTH"
);
},
{
closed = 1;
nodes = (
"281 709 LINE",
"458 709 LINE",
"548 876 LINE",
"357 876 LINE"
);
}
);
width = 622;
},
{
anchors = (
{
name = bottom;
position = "{233, -5}";
},
{
name = bottomC;
position = "{205, -5}";
},
{
name = top;
position = "{300, 662}";
}
);
layerId = "1C7CD022-87C7-4E11-B656-E47B18819458";
name = "Light Italic";
paths = (
{
closed = 1;
nodes = (
"348 -10 OFFCURVE",
"440 49 OFFCURVE",
"454 149 CURVE SMOOTH",
"470 263 OFFCURVE",
"369 303 OFFCURVE",
"285 334 CURVE SMOOTH",
"158 381 OFFCURVE",
"104 405 OFFCURVE",
"117 499 CURVE SMOOTH",
"131 598 OFFCURVE",
"203 656 OFFCURVE",
"313 656 CURVE SMOOTH",
"433 656 OFFCURVE",
"489 586 OFFCURVE",
"468 493 CURVE",
"484 493 LINE",
"506 595 OFFCURVE",
"439 671 OFFCURVE",
"315 671 CURVE SMOOTH",
"198 671 OFFCURVE",
"115 603 OFFCURVE",
"100 498 CURVE SMOOTH",
"85 390 OFFCURVE",
"158 363 OFFCURVE",
"276 320 CURVE SMOOTH",
"364 287 OFFCURVE",
"452 252 OFFCURVE",
"438 148 CURVE SMOOTH",
"425 55 OFFCURVE",
"343 6 OFFCURVE",
"224 6 CURVE",
"110 6 OFFCURVE",
"49 50 OFFCURVE",
"53 138 CURVE SMOOTH",
"54 159 OFFCURVE",
"62 177 OFFCURVE",
"69 196 CURVE",
"53 196 LINE",
"44 171 OFFCURVE",
"39 155 OFFCURVE",
"37 136 CURVE SMOOTH",
"28 47 OFFCURVE",
"97 -10 OFFCURVE",
"221 -10 CURVE SMOOTH"
);
},
{
closed = 1;
nodes = (
"311 745 LINE",
"327 745 LINE",
"422 893 LINE",
"406 893 LINE"
);
}
);
width = 529;
}
);
leftKerningGroup = S;
rightKerningGroup = S;
unicode = 015A;
},
{
color = 4;
glyphname = Scaron;
lastChange = "2016-04-09 01:28:01 +0000";
layers = (
{
anchors = (
{
name = bottom;
position = "{284, 0}";
},
{
name = bottomC;
position = "{254, 0}";
},
{
name = top;
position = "{344, 660}";
}
);
layerId = "4A17B37A-CBFD-40E5-9E02-2080A0E1F76C";
name = "Regular Italic";
paths = (
{
closed = 1;
nodes = (
"387 -10 OFFCURVE",
"485 72 OFFCURVE",
"500 180 CURVE SMOOTH",
"517 302 OFFCURVE",
"411 338 OFFCURVE",
"327 365 CURVE SMOOTH",
"228 396 OFFCURVE",
"172 415 OFFCURVE",
"183 489 CURVE SMOOTH",
"193 563 OFFCURVE",
"255 601 OFFCURVE",
"336 601 CURVE SMOOTH",
"413 601 OFFCURVE",
"467 566 OFFCURVE",
"457 476 CURVE",
"530 476 LINE",
"548 604 OFFCURVE",
"456 671 OFFCURVE",
"341 671 CURVE SMOOTH",
"221 671 OFFCURVE",
"121 598 OFFCURVE",
"105 483 CURVE SMOOTH",
"90 378 OFFCURVE",
"158 337 OFFCURVE",
"285 298 CURVE SMOOTH",
"351 278 OFFCURVE",
"433 253 OFFCURVE",
"422 171 CURVE SMOOTH",
"413 109 OFFCURVE",
"358 60 OFFCURVE",
"262 60 CURVE SMOOTH",
"151 60 OFFCURVE",
"113 127 OFFCURVE",
"119 170 CURVE SMOOTH",
"120 179 OFFCURVE",
"124 204 OFFCURVE",
"124 204 CURVE SMOOTH",
"57 204 LINE",
"53 192 OFFCURVE",
"49 171 OFFCURVE",
"47 160 CURVE",
"36 82 OFFCURVE",
"105 -10 OFFCURVE",
"250 -10 CURVE SMOOTH"
);
},
{
closed = 1;
nodes = (
"464 905 LINE",
"362 790 LINE",
"292 905 LINE",
"219 905 LINE",
"310 738 LINE",
"400 738 LINE",
"537 905 LINE"
);
}
);
width = 570;
},
{
anchors = (
{
name = bottom;
position = "{279, 0}";
},
{
name = bottomC;
position = "{271, 0}";
},
{
name = top;
position = "{365, 660}";
}
);
layerId = "99EB5860-B45A-4B60-BB0B-F826C8F71D42";
name = "Bold Italic";
paths = (
{
closed = 1;
nodes = (
"417 -14 OFFCURVE",
"564 24 OFFCURVE",
"587 186 CURVE SMOOTH",
"604 306 OFFCURVE",
"535 367 OFFCURVE",
"386 401 CURVE SMOOTH",
"341 411 OFFCURVE",
"278 428 OFFCURVE",
"284 468 CURVE",
"287 494 OFFCURVE",
"306 512 OFFCURVE",
"344 512 CURVE SMOOTH",
"400 512 OFFCURVE",
"408 472 OFFCURVE",
"399 422 CURVE",
"594 422 LINE",
"616 577 OFFCURVE",
"544 671 OFFCURVE",
"368 671 CURVE SMOOTH",
"204 671 OFFCURVE",
"76 591 OFFCURVE",
"57 453 CURVE SMOOTH",
"36 306 OFFCURVE",
"165 269 OFFCURVE",
"263 244 CURVE SMOOTH",
"310 232 OFFCURVE",
"366 217 OFFCURVE",
"361 180 CURVE SMOOTH",
"358 154 OFFCURVE",
"325 137 OFFCURVE",
"282 137 CURVE SMOOTH",
"227 137 OFFCURVE",
"199 165 OFFCURVE",
"203 195 CURVE SMOOTH",
"205 206 OFFCURVE",
"206 216 OFFCURVE",
"210 232 CURVE",
"28 232 LINE",
"21 209 OFFCURVE",
"17 189 OFFCURVE",
"16 177 CURVE SMOOTH",
"-1 58 OFFCURVE",
"87 -14 OFFCURVE",
"274 -14 CURVE SMOOTH"
);
},
{
closed = 1;
nodes = (
"433 876 LINE",
"379 807 LINE",
"345 876 LINE",
"174 876 LINE",
"259 709 LINE",
"473 709 LINE",
"604 876 LINE"
);
}
);
width = 622;
},
{
anchors = (
{
name = bottom;
position = "{233, -5}";
},
{
name = bottomC;
position = "{205, -5}";
},
{
name = top;
position = "{300, 662}";
}
);
layerId = "1C7CD022-87C7-4E11-B656-E47B18819458";
name = "Light Italic";
paths = (
{
closed = 1;
nodes = (
"348 -10 OFFCURVE",
"440 49 OFFCURVE",
"454 149 CURVE SMOOTH",
"470 263 OFFCURVE",
"369 303 OFFCURVE",
"285 334 CURVE SMOOTH",
"158 381 OFFCURVE",
"104 405 OFFCURVE",
"117 499 CURVE SMOOTH",
"131 598 OFFCURVE",
"203 656 OFFCURVE",
"313 656 CURVE SMOOTH",
"433 656 OFFCURVE",
"489 586 OFFCURVE",
"468 493 CURVE",
"484 493 LINE",
"506 595 OFFCURVE",
"439 671 OFFCURVE",
"315 671 CURVE SMOOTH",
"198 671 OFFCURVE",
"115 603 OFFCURVE",
"100 498 CURVE SMOOTH",
"85 390 OFFCURVE",
"158 363 OFFCURVE",
"276 320 CURVE SMOOTH",
"364 287 OFFCURVE",
"452 252 OFFCURVE",
"438 148 CURVE SMOOTH",
"425 55 OFFCURVE",
"343 6 OFFCURVE",
"224 6 CURVE",
"110 6 OFFCURVE",
"49 50 OFFCURVE",
"53 138 CURVE SMOOTH",
"54 159 OFFCURVE",
"62 177 OFFCURVE",
"69 196 CURVE",
"53 196 LINE",
"44 171 OFFCURVE",
"39 155 OFFCURVE",
"37 136 CURVE SMOOTH",
"28 47 OFFCURVE",
"97 -10 OFFCURVE",
"221 -10 CURVE SMOOTH"
);
},
{
closed = 1;
nodes = (
"455 887 LINE",
"334 758 LINE",
"251 887 LINE",
"234 887 LINE",
"323 745 LINE",
"343 745 LINE",
"472 887 LINE"
);
}
);
width = 529;
}
);
leftKerningGroup = S;
rightKerningGroup = S;
unicode = 0160;
},
{
color = 4;
glyphname = Germandbls;
lastChange = "2016-04-09 01:28:02 +0000";
layers = (
{
layerId = "1C7CD022-87C7-4E11-B656-E47B18819458";
name = "Light Italic";
paths = (
{
closed = 1;
nodes = (
"80 0 LINE",
"142 442 LINE SMOOTH",
"159 563 OFFCURVE",
"245 646 OFFCURVE",
"367 646 CURVE SMOOTH",
"598 646 LINE",
"312 344 LINE",
"324 338 LINE",
"616 645 LINE",
"618 660 LINE",
"369 660 LINE SMOOTH",
"236 660 OFFCURVE",
"144 573 OFFCURVE",
"126 443 CURVE SMOOTH",
"64 0 LINE"
);
},
{
closed = 1;
nodes = (
"485 -5 OFFCURVE",
"570 70 OFFCURVE",
"585 180 CURVE SMOOTH",
"601 294 OFFCURVE",
"542 344 OFFCURVE",
"404 344 CURVE SMOOTH",
"312 344 LINE",
"310 330 LINE",
"402 330 LINE SMOOTH",
"530 330 OFFCURVE",
"584 285 OFFCURVE",
"569 180 CURVE SMOOTH",
"555 78 OFFCURVE",
"474 8 OFFCURVE",
"372 8 CURVE SMOOTH",
"299 8 OFFCURVE",
"257 35 OFFCURVE",
"241 67 CURVE",
"229 55 LINE",
"243 23 OFFCURVE",
"297 -5 OFFCURVE",
"370 -5 CURVE SMOOTH"
);
}
);
width = 639;
},
{
layerId = "4A17B37A-CBFD-40E5-9E02-2080A0E1F76C";
name = "Regular Italic";
paths = (
{
closed = 1;
nodes = (
"143 0 LINE",
"205 442 LINE SMOOTH",
"217 525 OFFCURVE",
"290 585 OFFCURVE",
"367 585 CURVE SMOOTH",
"550 585 LINE",
"346 370 LINE",
"391 329 LINE",
"645 584 LINE",
"656 660 LINE",
"378 660 LINE SMOOTH",
"251 660 OFFCURVE",
"143 573 OFFCURVE",
"125 443 CURVE SMOOTH",
"63 0 LINE"
);
},
{
closed = 1;
nodes = (
"519 -5 OFFCURVE",
"616 70 OFFCURVE",
"632 185 CURVE SMOOTH",
"648 303 OFFCURVE",
"576 370 OFFCURVE",
"455 370 CURVE SMOOTH",
"346 370 LINE",
"336 302 LINE",
"413 302 LINE SMOOTH",
"509 302 OFFCURVE",
"558 257 OFFCURVE",
"548 185 CURVE SMOOTH",
"538 116 OFFCURVE",
"480 68 OFFCURVE",
"402 68 CURVE SMOOTH",
"349 68 OFFCURVE",
"301 88 OFFCURVE",
"280 118 CURVE",
"238 59 LINE",
"257 24 OFFCURVE",
"317 -5 OFFCURVE",
"400 -5 CURVE SMOOTH"
);
}
);
width = 671;
},
{
layerId = "99EB5860-B45A-4B60-BB0B-F826C8F71D42";
name = "Bold Italic";
paths = (
{
closed = 1;
nodes = (
"248 0 LINE",
"299 362 LINE SMOOTH",
"311 449 OFFCURVE",
"359 494 OFFCURVE",
"439 494 CURVE SMOOTH",
"515 494 LINE",
"367 359 LINE",
"511 292 LINE",
"726 498 LINE",
"749 660 LINE",
"413 660 LINE SMOOTH",
"220 660 OFFCURVE",
"94 565 OFFCURVE",
"72 403 CURVE SMOOTH",
"15 0 LINE"
);
},
{
closed = 1;
nodes = (
"595 -5 OFFCURVE",
"699 56 OFFCURVE",
"717 189 CURVE SMOOTH",
"735 317 OFFCURVE",
"642 359 OFFCURVE",
"521 359 CURVE SMOOTH",
"367 359 LINE",
"351 243 LINE",
"447 243 LINE SMOOTH",
"486 243 OFFCURVE",
"510 231 OFFCURVE",
"506 198 CURVE SMOOTH",
"501 168 OFFCURVE",
"474 151 OFFCURVE",
"438 151 CURVE SMOOTH",
"397 151 OFFCURVE",
"379 158 OFFCURVE",
"357 177 CURVE",
"285 49 LINE",
"318 14 OFFCURVE",
"366 -5 OFFCURVE",
"469 -5 CURVE SMOOTH"
);
}
);
width = 738;
}
);
leftKerningGroup = I;
leftMetricsKey = I;
unicode = 1E9E;
},
{
color = 4;
glyphname = T;
lastChange = "2016-04-09 01:28:02 +0000";
layers = (
{
anchors = (
{
name = bottom;
position = "{281, 0}";
},
{
name = center;
position = "{311, 330}";
},
{
name = top;
position = "{358, 660}";
}
);
layerId = "4A17B37A-CBFD-40E5-9E02-2080A0E1F76C";
name = "Regular Italic";
paths = (
{
closed = 1;
nodes = (
"318 660 LINE",
"225 0 LINE",
"305 0 LINE",
"398 660 LINE"
);
},
{
closed = 1;
nodes = (
"88 660 LINE",
"77 585 LINE",
"617 585 LINE",
"628 660 LINE"
);
}
);
width = 600;
},
{
anchors = (
{
name = bottom;
position = "{291, 0}";
},
{
name = center;
position = "{354, 330}";
},
{
name = top;
position = "{401, 660}";
}
);
layerId = "99EB5860-B45A-4B60-BB0B-F826C8F71D42";
name = "Bold Italic";
paths = (
{
closed = 1;
nodes = (
"285 660 LINE",
"192 0 LINE",
"425 0 LINE",
"518 660 LINE"
);
},
{
closed = 1;
nodes = (
"78 660 LINE",
"50 461 LINE",
"696 461 LINE",
"724 660 LINE"
);
}
);
width = 686;
},
{
anchors = (
{
name = bottom;
position = "{250, 0}";
},
{
name = center;
position = "{298, 371}";
},
{
name = top;
position = "{339, 660}";
}
);
layerId = "1C7CD022-87C7-4E11-B656-E47B18819458";
name = "Light Italic";
paths = (
{
closed = 1;
nodes = (
"330 653 LINE",
"238 0 LINE",
"254 0 LINE",
"346 653 LINE"
);
},
{
closed = 1;
nodes = (
"78 660 LINE",
"76 646 LINE",
"598 646 LINE",
"600 660 LINE"
);
}
);
width = 562;
}
);
leftKerningGroup = T;
rightKerningGroup = T;
unicode = 0054;
},
{
color = 4;
glyphname = Tcaron;
lastChange = "2016-04-09 01:28:02 +0000";
layers = (
{
anchors = (
{
name = bottom;
position = "{281, 0}";
},
{
name = center;
position = "{311, 330}";
},
{
name = top;
position = "{358, 660}";
}
);
layerId = "4A17B37A-CBFD-40E5-9E02-2080A0E1F76C";
name = "Regular Italic";
paths = (
{
closed = 1;
nodes = (
"318 660 LINE",
"225 0 LINE",
"305 0 LINE",
"398 660 LINE"
);
},
{
closed = 1;
nodes = (
"88 660 LINE",
"77 585 LINE",
"617 585 LINE",
"628 660 LINE"
);
},
{
closed = 1;
nodes = (
"478 905 LINE",
"376 790 LINE",
"306 905 LINE",
"233 905 LINE",
"324 738 LINE",
"414 738 LINE",
"551 905 LINE"
);
}
);
width = 600;
},
{
anchors = (
{
name = bottom;
position = "{291, 0}";
},
{
name = center;
position = "{354, 330}";
},
{
name = top;
position = "{401, 660}";
}
);
layerId = "99EB5860-B45A-4B60-BB0B-F826C8F71D42";
name = "Bold Italic";
paths = (
{
closed = 1;
nodes = (
"285 660 LINE",
"192 0 LINE",
"425 0 LINE",
"518 660 LINE"
);
},
{
closed = 1;
nodes = (
"78 660 LINE",
"50 461 LINE",
"696 461 LINE",
"724 660 LINE"
);
},
{
closed = 1;
nodes = (
"469 876 LINE",
"415 807 LINE",
"381 876 LINE",
"210 876 LINE",
"295 709 LINE",
"509 709 LINE",
"640 876 LINE"
);
}
);
width = 686;
},
{
anchors = (
{
name = bottom;
position = "{250, 0}";
},
{
name = center;
position = "{298, 371}";
},
{
name = top;
position = "{339, 660}";
}
);
layerId = "1C7CD022-87C7-4E11-B656-E47B18819458";
name = "Light Italic";
paths = (
{
closed = 1;
nodes = (
"330 653 LINE",
"238 0 LINE",
"254 0 LINE",
"346 653 LINE"
);
},
{
closed = 1;
nodes = (
"78 660 LINE",
"76 646 LINE",
"598 646 LINE",
"600 660 LINE"
);
},
{
closed = 1;
nodes = (
"472 885 LINE",
"352 756 LINE",
"268 885 LINE",
"251 885 LINE",
"340 743 LINE",
"360 743 LINE",
"489 885 LINE"
);
}
);
width = 562;
}
);
leftKerningGroup = T;
rightKerningGroup = T;
unicode = 0164;
},
{
color = 4;
glyphname = U;
lastChange = "2016-04-09 01:28:03 +0000";
layers = (
{
anchors = (
{
name = ogonek;
position = "{426, 16}";
},
{
name = top;
position = "{397, 660}";
}
);
layerId = "4A17B37A-CBFD-40E5-9E02-2080A0E1F76C";
name = "Regular Italic";
paths = (
{
closed = 1;
nodes = (
"576 660 LINE",
"520 266 LINE SMOOTH",
"501 128 OFFCURVE",
"436 65 OFFCURVE",
"313 65 CURVE SMOOTH",
"190 65 OFFCURVE",
"143 128 OFFCURVE",
"162 266 CURVE SMOOTH",
"218 660 LINE",
"138 660 LINE",
"79 246 LINE SMOOTH",
"56 76 OFFCURVE",
"136 -10 OFFCURVE",
"302 -10 CURVE SMOOTH",
"469 -10 OFFCURVE",
"574 76 OFFCURVE",
"597 246 CURVE SMOOTH",
"656 660 LINE"
);
}
);
width = 678;
},
{
anchors = (
{
name = ogonek;
position = "{457, 10}";
},
{
name = top;
position = "{412, 660}";
}
);
layerId = "99EB5860-B45A-4B60-BB0B-F826C8F71D42";
name = "Bold Italic";
paths = (
{
closed = 1;
nodes = (
"498 660 LINE",
"442 266 LINE SMOOTH",
"433 199 OFFCURVE",
"398 165 OFFCURVE",
"342 165 CURVE SMOOTH",
"287 165 OFFCURVE",
"262 199 OFFCURVE",
"271 266 CURVE SMOOTH",
"327 660 LINE",
"93 660 LINE",
"40 284 LINE SMOOTH",
"12 87 OFFCURVE",
"104 -10 OFFCURVE",
"317 -10 CURVE SMOOTH",
"530 -10 OFFCURVE",
"650 87 OFFCURVE",
"678 284 CURVE SMOOTH",
"731 660 LINE"
);
}
);
width = 708;
},
{
anchors = (
{
name = ogonek;
position = "{391, 8}";
},
{
name = top;
position = "{387, 660}";
}
);
layerId = "1C7CD022-87C7-4E11-B656-E47B18819458";
name = "Light Italic";
paths = (
{
closed = 1;
nodes = (
"620 660 LINE",
"560 235 LINE SMOOTH",
"539 88 OFFCURVE",
"440 4 OFFCURVE",
"294 4 CURVE SMOOTH",
"148 4 OFFCURVE",
"73 88 OFFCURVE",
"94 235 CURVE SMOOTH",
"154 660 LINE",
"138 660 LINE",
"78 235 LINE SMOOTH",
"56 78 OFFCURVE",
"136 -10 OFFCURVE",
"292 -10 CURVE SMOOTH",
"448 -10 OFFCURVE",
"554 78 OFFCURVE",
"576 235 CURVE SMOOTH",
"636 660 LINE"
);
}
);
width = 658;
}
);
leftKerningGroup = U;
rightKerningGroup = U;
unicode = 0055;
},
{
color = 4;
glyphname = Uacute;
lastChange = "2016-04-09 01:28:02 +0000";
layers = (
{
anchors = (
{
name = ogonek;
position = "{426, 16}";
},
{
name = top;
position = "{397, 660}";
}
);
layerId = "4A17B37A-CBFD-40E5-9E02-2080A0E1F76C";
name = "Regular Italic";
paths = (
{
closed = 1;
nodes = (
"576 660 LINE",
"520 266 LINE SMOOTH",
"501 128 OFFCURVE",
"436 65 OFFCURVE",
"313 65 CURVE SMOOTH",
"190 65 OFFCURVE",
"143 128 OFFCURVE",
"162 266 CURVE SMOOTH",
"218 660 LINE",
"138 660 LINE",
"79 246 LINE SMOOTH",
"56 76 OFFCURVE",
"136 -10 OFFCURVE",
"302 -10 CURVE SMOOTH",
"469 -10 OFFCURVE",
"574 76 OFFCURVE",
"597 246 CURVE SMOOTH",
"656 660 LINE"
);
},
{
closed = 1;
nodes = (
"366 743 LINE",
"447 743 LINE",
"529 891 LINE",
"444 891 LINE"
);
}
);
width = 678;
},
{
anchors = (
{
name = ogonek;
position = "{457, 10}";
},
{
name = top;
position = "{412, 660}";
}
);
layerId = "99EB5860-B45A-4B60-BB0B-F826C8F71D42";
name = "Bold Italic";
paths = (
{
closed = 1;
nodes = (
"498 660 LINE",
"442 266 LINE SMOOTH",
"433 199 OFFCURVE",
"398 165 OFFCURVE",
"342 165 CURVE SMOOTH",
"287 165 OFFCURVE",
"262 199 OFFCURVE",
"271 266 CURVE SMOOTH",
"327 660 LINE",
"93 660 LINE",
"40 284 LINE SMOOTH",
"12 87 OFFCURVE",
"104 -10 OFFCURVE",
"317 -10 CURVE SMOOTH",
"530 -10 OFFCURVE",
"650 87 OFFCURVE",
"678 284 CURVE SMOOTH",
"731 660 LINE"
);
},
{
closed = 1;
nodes = (
"328 709 LINE",
"505 709 LINE",
"595 876 LINE",
"404 876 LINE"
);
}
);
width = 708;
},
{
anchors = (
{
name = ogonek;
position = "{391, 8}";
},
{
name = top;
position = "{387, 660}";
}
);
layerId = "1C7CD022-87C7-4E11-B656-E47B18819458";
name = "Light Italic";
paths = (
{
closed = 1;
nodes = (
"620 660 LINE",
"560 235 LINE SMOOTH",
"539 88 OFFCURVE",
"440 4 OFFCURVE",
"294 4 CURVE SMOOTH",
"148 4 OFFCURVE",
"73 88 OFFCURVE",
"94 235 CURVE SMOOTH",
"154 660 LINE",
"138 660 LINE",
"78 235 LINE SMOOTH",
"56 78 OFFCURVE",
"136 -10 OFFCURVE",
"292 -10 CURVE SMOOTH",
"448 -10 OFFCURVE",
"554 78 OFFCURVE",
"576 235 CURVE SMOOTH",
"636 660 LINE"
);
},
{
closed = 1;
nodes = (
"397 743 LINE",
"413 743 LINE",
"509 891 LINE",
"493 891 LINE"
);
}
);
width = 658;
}
);
leftKerningGroup = U;
rightKerningGroup = U;
unicode = 00DA;
},
{
color = 4;
glyphname = Ucircumflex;
lastChange = "2016-04-09 01:28:01 +0000";
layers = (
{
anchors = (
{
name = ogonek;
position = "{426, 16}";
},
{
name = top;
position = "{397, 660}";
}
);
layerId = "4A17B37A-CBFD-40E5-9E02-2080A0E1F76C";
name = "Regular Italic";
paths = (
{
closed = 1;
nodes = (
"576 660 LINE",
"520 266 LINE SMOOTH",
"501 128 OFFCURVE",
"436 65 OFFCURVE",
"313 65 CURVE SMOOTH",
"190 65 OFFCURVE",
"143 128 OFFCURVE",
"162 266 CURVE SMOOTH",
"218 660 LINE",
"138 660 LINE",
"79 246 LINE SMOOTH",
"56 76 OFFCURVE",
"136 -10 OFFCURVE",
"302 -10 CURVE SMOOTH",
"469 -10 OFFCURVE",
"574 76 OFFCURVE",
"597 246 CURVE SMOOTH",
"656 660 LINE"
);
},
{
closed = 1;
nodes = (
"476 903 LINE",
"386 903 LINE",
"248 736 LINE",
"321 736 LINE",
"423 851 LINE",
"493 736 LINE",
"566 736 LINE"
);
}
);
width = 678;
},
{
anchors = (
{
name = ogonek;
position = "{457, 10}";
},
{
name = top;
position = "{412, 660}";
}
);
layerId = "99EB5860-B45A-4B60-BB0B-F826C8F71D42";
name = "Bold Italic";
paths = (
{
closed = 1;
nodes = (
"498 660 LINE",
"442 266 LINE SMOOTH",
"433 199 OFFCURVE",
"398 165 OFFCURVE",
"342 165 CURVE SMOOTH",
"287 165 OFFCURVE",
"262 199 OFFCURVE",
"271 266 CURVE SMOOTH",
"327 660 LINE",
"93 660 LINE",
"40 284 LINE SMOOTH",
"12 87 OFFCURVE",
"104 -10 OFFCURVE",
"317 -10 CURVE SMOOTH",
"530 -10 OFFCURVE",
"650 87 OFFCURVE",
"678 284 CURVE SMOOTH",
"731 660 LINE"
);
},
{
closed = 1;
nodes = (
"549 876 LINE",
"335 876 LINE",
"204 709 LINE",
"375 709 LINE",
"428 778 LINE",
"463 709 LINE",
"634 709 LINE"
);
}
);
width = 708;
},
{
anchors = (
{
name = ogonek;
position = "{391, 8}";
},
{
name = top;
position = "{387, 660}";
}
);
layerId = "1C7CD022-87C7-4E11-B656-E47B18819458";
name = "Light Italic";
paths = (
{
closed = 1;
nodes = (
"620 660 LINE",
"560 235 LINE SMOOTH",
"539 88 OFFCURVE",
"440 4 OFFCURVE",
"294 4 CURVE SMOOTH",
"148 4 OFFCURVE",
"73 88 OFFCURVE",
"94 235 CURVE SMOOTH",
"154 660 LINE",
"138 660 LINE",
"78 235 LINE SMOOTH",
"56 78 OFFCURVE",
"136 -10 OFFCURVE",
"292 -10 CURVE SMOOTH",
"448 -10 OFFCURVE",
"554 78 OFFCURVE",
"576 235 CURVE SMOOTH",
"636 660 LINE"
);
},
{
closed = 1;
nodes = (
"428 885 LINE",
"408 885 LINE",
"279 743 LINE",
"296 743 LINE",
"416 872 LINE",
"500 743 LINE",
"517 743 LINE"
);
}
);
width = 658;
}
);
leftKerningGroup = U;
rightKerningGroup = U;
unicode = 00DB;
},
{
color = 4;
glyphname = Udieresis;
lastChange = "2016-04-09 01:28:01 +0000";
layers = (
{
anchors = (
{
name = ogonek;
position = "{426, 16}";
},
{
name = top;
position = "{397, 660}";
}
);
layerId = "4A17B37A-CBFD-40E5-9E02-2080A0E1F76C";
name = "Regular Italic";
paths = (
{
closed = 1;
nodes = (
"576 660 LINE",
"520 266 LINE SMOOTH",
"501 128 OFFCURVE",
"436 65 OFFCURVE",
"313 65 CURVE SMOOTH",
"190 65 OFFCURVE",
"143 128 OFFCURVE",
"162 266 CURVE SMOOTH",
"218 660 LINE",
"138 660 LINE",
"79 246 LINE SMOOTH",
"56 76 OFFCURVE",
"136 -10 OFFCURVE",
"302 -10 CURVE SMOOTH",
"469 -10 OFFCURVE",
"574 76 OFFCURVE",
"597 246 CURVE SMOOTH",
"656 660 LINE"
);
},
{
closed = 1;
nodes = (
"536 742 OFFCURVE",
"566 768 OFFCURVE",
"570 799 CURVE SMOOTH",
"575 830 OFFCURVE",
"552 856 OFFCURVE",
"521 856 CURVE SMOOTH",
"489 856 OFFCURVE",
"461 830 OFFCURVE",
"456 799 CURVE SMOOTH",
"452 768 OFFCURVE",
"473 742 OFFCURVE",
"505 742 CURVE SMOOTH"
);
},
{
closed = 1;
nodes = (
"342 742 OFFCURVE",
"372 768 OFFCURVE",
"376 799 CURVE SMOOTH",
"381 830 OFFCURVE",
"358 856 OFFCURVE",
"327 856 CURVE SMOOTH",
"295 856 OFFCURVE",
"267 830 OFFCURVE",
"262 799 CURVE SMOOTH",
"258 768 OFFCURVE",
"279 742 OFFCURVE",
"311 742 CURVE SMOOTH"
);
}
);
width = 678;
},
{
anchors = (
{
name = ogonek;
position = "{457, 10}";
},
{
name = top;
position = "{412, 660}";
}
);
layerId = "99EB5860-B45A-4B60-BB0B-F826C8F71D42";
name = "Bold Italic";
paths = (
{
closed = 1;
nodes = (
"498 660 LINE",
"442 266 LINE SMOOTH",
"433 199 OFFCURVE",
"398 165 OFFCURVE",
"342 165 CURVE SMOOTH",
"287 165 OFFCURVE",
"262 199 OFFCURVE",
"271 266 CURVE SMOOTH",
"327 660 LINE",
"93 660 LINE",
"40 284 LINE SMOOTH",
"12 87 OFFCURVE",
"104 -10 OFFCURVE",
"317 -10 CURVE SMOOTH",
"530 -10 OFFCURVE",
"650 87 OFFCURVE",
"678 284 CURVE SMOOTH",
"731 660 LINE"
);
},
{
closed = 1;
nodes = (
"591 697 OFFCURVE",
"643 743 OFFCURVE",
"651 799 CURVE SMOOTH",
"659 856 OFFCURVE",
"620 902 OFFCURVE",
"563 902 CURVE SMOOTH",
"507 902 OFFCURVE",
"454 856 OFFCURVE",
"446 799 CURVE SMOOTH",
"438 743 OFFCURVE",
"478 697 OFFCURVE",
"534 697 CURVE SMOOTH"
);
},
{
closed = 1;
nodes = (
"356 697 OFFCURVE",
"408 743 OFFCURVE",
"416 799 CURVE SMOOTH",
"424 856 OFFCURVE",
"385 902 OFFCURVE",
"328 902 CURVE SMOOTH",
"272 902 OFFCURVE",
"219 856 OFFCURVE",
"211 799 CURVE SMOOTH",
"203 743 OFFCURVE",
"243 697 OFFCURVE",
"299 697 CURVE SMOOTH"
);
}
);
width = 708;
},
{
anchors = (
{
name = ogonek;
position = "{391, 8}";
},
{
name = top;
position = "{387, 660}";
}
);
layerId = "1C7CD022-87C7-4E11-B656-E47B18819458";
name = "Light Italic";
paths = (
{
closed = 1;
nodes = (
"620 660 LINE",
"560 235 LINE SMOOTH",
"539 88 OFFCURVE",
"440 4 OFFCURVE",
"294 4 CURVE SMOOTH",
"148 4 OFFCURVE",
"73 88 OFFCURVE",
"94 235 CURVE SMOOTH",
"154 660 LINE",
"138 660 LINE",
"78 235 LINE SMOOTH",
"56 78 OFFCURVE",
"136 -10 OFFCURVE",
"292 -10 CURVE SMOOTH",
"448 -10 OFFCURVE",
"554 78 OFFCURVE",
"576 235 CURVE SMOOTH",
"636 660 LINE"
);
},
{
closed = 1;
nodes = (
"508 758 OFFCURVE",
"520 767 OFFCURVE",
"521 780 CURVE SMOOTH",
"523 792 OFFCURVE",
"514 801 OFFCURVE",
"503 801 CURVE SMOOTH",
"490 801 OFFCURVE",
"479 792 OFFCURVE",
"477 780 CURVE SMOOTH",
"476 767 OFFCURVE",
"484 758 OFFCURVE",
"497 758 CURVE SMOOTH"
);
},
{
closed = 1;
nodes = (
"324 758 OFFCURVE",
"336 767 OFFCURVE",
"337 780 CURVE SMOOTH",
"339 792 OFFCURVE",
"330 801 OFFCURVE",
"319 801 CURVE SMOOTH",
"306 801 OFFCURVE",
"295 792 OFFCURVE",
"293 780 CURVE SMOOTH",
"292 767 OFFCURVE",
"300 758 OFFCURVE",
"313 758 CURVE SMOOTH"
);
}
);
width = 658;
}
);
leftKerningGroup = U;
rightKerningGroup = U;
unicode = 00DC;
},
{
color = 4;
glyphname = Ugrave;
lastChange = "2016-04-09 01:28:01 +0000";
layers = (
{
anchors = (
{
name = ogonek;
position = "{426, 16}";
},
{
name = top;
position = "{397, 660}";
}
);
layerId = "4A17B37A-CBFD-40E5-9E02-2080A0E1F76C";
name = "Regular Italic";
paths = (
{
closed = 1;
nodes = (
"576 660 LINE",
"520 266 LINE SMOOTH",
"501 128 OFFCURVE",
"436 65 OFFCURVE",
"313 65 CURVE SMOOTH",
"190 65 OFFCURVE",
"143 128 OFFCURVE",
"162 266 CURVE SMOOTH",
"218 660 LINE",
"138 660 LINE",
"79 246 LINE SMOOTH",
"56 76 OFFCURVE",
"136 -10 OFFCURVE",
"302 -10 CURVE SMOOTH",
"469 -10 OFFCURVE",
"574 76 OFFCURVE",
"597 246 CURVE SMOOTH",
"656 660 LINE"
);
},
{
closed = 1;
nodes = (
"320 891 LINE",
"360 743 LINE",
"441 743 LINE",
"405 891 LINE"
);
}
);
width = 678;
},
{
anchors = (
{
name = ogonek;
position = "{457, 10}";
},
{
name = top;
position = "{412, 660}";
}
);
layerId = "99EB5860-B45A-4B60-BB0B-F826C8F71D42";
name = "Bold Italic";
paths = (
{
closed = 1;
nodes = (
"498 660 LINE",
"442 266 LINE SMOOTH",
"433 199 OFFCURVE",
"398 165 OFFCURVE",
"342 165 CURVE SMOOTH",
"287 165 OFFCURVE",
"262 199 OFFCURVE",
"271 266 CURVE SMOOTH",
"327 660 LINE",
"93 660 LINE",
"40 284 LINE SMOOTH",
"12 87 OFFCURVE",
"104 -10 OFFCURVE",
"317 -10 CURVE SMOOTH",
"530 -10 OFFCURVE",
"650 87 OFFCURVE",
"678 284 CURVE SMOOTH",
"731 660 LINE"
);
},
{
closed = 1;
nodes = (
"269 876 LINE",
"313 709 LINE",
"490 709 LINE",
"460 876 LINE"
);
}
);
width = 708;
},
{
anchors = (
{
name = ogonek;
position = "{391, 8}";
},
{
name = top;
position = "{387, 660}";
}
);
layerId = "1C7CD022-87C7-4E11-B656-E47B18819458";
name = "Light Italic";
paths = (
{
closed = 1;
nodes = (
"620 660 LINE",
"560 235 LINE SMOOTH",
"539 88 OFFCURVE",
"440 4 OFFCURVE",
"294 4 CURVE SMOOTH",
"148 4 OFFCURVE",
"73 88 OFFCURVE",
"94 235 CURVE SMOOTH",
"154 660 LINE",
"138 660 LINE",
"78 235 LINE SMOOTH",
"56 78 OFFCURVE",
"136 -10 OFFCURVE",
"292 -10 CURVE SMOOTH",
"448 -10 OFFCURVE",
"554 78 OFFCURVE",
"576 235 CURVE SMOOTH",
"636 660 LINE"
);
},
{
closed = 1;
nodes = (
"357 891 LINE",
"411 743 LINE",
"427 743 LINE",
"373 891 LINE"
);
}
);
width = 658;
}
);
leftKerningGroup = U;
rightKerningGroup = U;
unicode = 00D9;
},
{
color = 4;
glyphname = Uhungarumlaut;
lastChange = "2016-04-09 01:28:02 +0000";
layers = (
{
anchors = (
{
name = ogonek;
position = "{426, 16}";
},
{
name = top;
position = "{397, 660}";
}
);
layerId = "4A17B37A-CBFD-40E5-9E02-2080A0E1F76C";
name = "Regular Italic";
paths = (
{
closed = 1;
nodes = (
"576 660 LINE",
"520 266 LINE SMOOTH",
"501 128 OFFCURVE",
"436 65 OFFCURVE",
"313 65 CURVE SMOOTH",
"190 65 OFFCURVE",
"143 128 OFFCURVE",
"162 266 CURVE SMOOTH",
"218 660 LINE",
"138 660 LINE",
"79 246 LINE SMOOTH",
"56 76 OFFCURVE",
"136 -10 OFFCURVE",
"302 -10 CURVE SMOOTH",
"469 -10 OFFCURVE",
"574 76 OFFCURVE",
"597 246 CURVE SMOOTH",
"656 660 LINE"
);
},
{
closed = 1;
nodes = (
"285 745 LINE",
"366 745 LINE",
"447 893 LINE",
"362 893 LINE"
);
},
{
closed = 1;
nodes = (
"456 743 LINE",
"537 743 LINE",
"619 891 LINE",
"534 891 LINE"
);
}
);
width = 678;
},
{
anchors = (
{
name = ogonek;
position = "{457, 10}";
},
{
name = top;
position = "{412, 660}";
}
);
layerId = "99EB5860-B45A-4B60-BB0B-F826C8F71D42";
name = "Bold Italic";
paths = (
{
closed = 1;
nodes = (
"498 660 LINE",
"442 266 LINE SMOOTH",
"433 199 OFFCURVE",
"398 165 OFFCURVE",
"342 165 CURVE SMOOTH",
"287 165 OFFCURVE",
"262 199 OFFCURVE",
"271 266 CURVE SMOOTH",
"327 660 LINE",
"93 660 LINE",
"40 284 LINE SMOOTH",
"12 87 OFFCURVE",
"104 -10 OFFCURVE",
"317 -10 CURVE SMOOTH",
"530 -10 OFFCURVE",
"650 87 OFFCURVE",
"678 284 CURVE SMOOTH",
"731 660 LINE"
);
},
{
closed = 1;
nodes = (
"210 709 LINE",
"387 709 LINE",
"477 876 LINE",
"286 876 LINE"
);
},
{
closed = 1;
nodes = (
"465 709 LINE",
"642 709 LINE",
"732 876 LINE",
"541 876 LINE"
);
}
);
width = 708;
},
{
anchors = (
{
name = ogonek;
position = "{391, 8}";
},
{
name = top;
position = "{387, 660}";
}
);
layerId = "1C7CD022-87C7-4E11-B656-E47B18819458";
name = "Light Italic";
paths = (
{
closed = 1;
nodes = (
"620 660 LINE",
"560 235 LINE SMOOTH",
"539 88 OFFCURVE",
"440 4 OFFCURVE",
"294 4 CURVE SMOOTH",
"148 4 OFFCURVE",
"73 88 OFFCURVE",
"94 235 CURVE SMOOTH",
"154 660 LINE",
"138 660 LINE",
"78 235 LINE SMOOTH",
"56 78 OFFCURVE",
"136 -10 OFFCURVE",
"292 -10 CURVE SMOOTH",
"448 -10 OFFCURVE",
"554 78 OFFCURVE",
"576 235 CURVE SMOOTH",
"636 660 LINE"
);
},
{
closed = 1;
nodes = (
"344 743 LINE",
"360 743 LINE",
"456 891 LINE",
"440 891 LINE"
);
},
{
closed = 1;
nodes = (
"462 743 LINE",
"478 743 LINE",
"574 891 LINE",
"558 891 LINE"
);
}
);
width = 658;
}
);
leftKerningGroup = U;
rightKerningGroup = U;
unicode = 0170;
},
